<svg width="145" height="159" viewBox="0 0 145 159" fill="none" xmlns="http://www.w3.org/2000/svg">
<g clip-path="url(#clip0_90_1105)">
<path d="M73.6819 37.1387C74.3156 37.3798 75.5708 37.46 76.2863 37.581C77.8331 37.8399 79.3616 38.1991 80.862 38.6562C91.9301 42.0733 99.4436 47.8909 105.803 57.5277C111.435 57.2213 116.961 59.1448 121.185 62.8821C129.721 70.482 130.104 85.044 122.493 93.2547C120.731 95.1552 118.63 96.6953 116.286 97.8029C114.688 98.6047 111.567 99.3859 110.453 100.602C113.882 103.966 115.543 103.617 115.379 109.285C115.254 113.591 114.833 115.91 110.8 118.148C110.743 118.31 110.677 118.465 110.649 118.632C110.798 119.934 110.765 120.952 109.831 121.94C108.244 123.621 106.982 123.272 105.946 121.493C105.893 120.441 105.863 119.82 105.996 118.773L105.875 118.476C104.709 117.933 103.922 117.347 103.118 116.347C98.5899 121.264 92.6455 126.049 86.3785 128.432C85.7471 128.672 84.0555 129.28 83.4107 129.348C82.0985 129.494 80.0202 130.413 78.5305 130.746C77.4236 130.993 74.2615 131.468 73.4837 131.834L73.2796 132.224L73.1084 131.907C69.0827 132.133 65.1856 132.33 61.1458 131.777C61.1417 132.556 61.1702 133.985 61.0532 134.697C60.9767 133.906 61.0082 132.501 61.0028 131.664C58.1678 130.996 55.548 129.941 52.8218 128.949C52.0216 128.658 51.2244 128.431 50.3723 128.36L50.2357 128.835C50.1295 128.172 49.4332 128.065 48.8389 127.766C46.7133 126.694 44.7052 125.389 42.6846 124.132C43.305 125.714 44.9767 130.982 41.3584 131.143C40.2592 131.192 38.7502 129.31 38.0282 128.397C37.9567 128.983 37.8868 129.728 37.7348 130.281C37.1198 132.449 34.7424 133.447 32.6451 132.676C30.6512 131.942 27.9057 129.883 26.8037 128.027C26.2516 127.097 26.5205 125.189 26.2835 124.116C25.456 120.37 24.8118 116.699 25.3376 112.848C25.7052 109.994 26.6535 107.431 27.579 104.699C26.8619 102.009 25.9533 99.7991 25.3487 96.9369C23.0629 86.1185 24.051 75.2718 28.3904 65.103C31.6474 57.4705 36.103 51.7088 42.663 46.6614C44.2937 45.4066 46.1512 43.8892 48.0361 43.1021C55.2233 43.0361 61.6709 42.0071 68.4373 39.4692C69.1065 39.2181 69.1282 39.0577 69.3697 38.4615C69.3209 39.4459 69.4968 40.048 69.7798 40.9574C71.0493 41.5617 71.4898 41.5251 72.8611 41.5183C73.0149 40.3399 73.2542 38.1862 73.6819 37.1387ZM90.9032 81.9966C91.1369 81.6184 90.832 80.5292 91.3079 80.0298C91.3766 78.4736 91.4153 77.4552 91.6601 75.9107L90.9961 75.2623C90.5043 77.477 90.4728 79.7692 90.9032 81.9966Z" fill="#6B38B7"/>
<path d="M105.803 57.5278C111.435 57.2214 116.961 59.1449 121.185 62.8822C129.722 70.4821 130.104 85.0441 122.493 93.2547C120.731 95.1553 118.63 96.6954 116.286 97.803C114.689 98.6047 111.567 99.3859 110.453 100.602C110.06 101.017 109.664 101.427 109.264 101.834C107.319 102.437 106.363 103.138 105.695 100.843C105.33 100.03 98.7026 98.3746 97.0259 97.4418C88.4751 92.6851 85.1676 84.1561 86.4904 74.6197C87.2242 69.3303 90.1889 64.6819 94.799 61.5455L94.7109 61.3928L94.0399 61.2133C94.9576 60.9435 97.7303 60.4087 98.1546 59.6748C99.4726 58.7909 104.199 57.9356 105.803 57.5278ZM90.9033 81.9967C91.1369 81.6185 90.8321 80.5293 91.308 80.0299C91.3767 78.4737 91.4153 77.4553 91.6601 75.9108L90.9962 75.2624C90.5044 77.4771 90.4728 79.7693 90.9033 81.9967Z" fill="#2E2161"/>
<path d="M98.0582 65.0182C101.878 62.5034 106.568 61.68 111.017 62.7431C117.45 64.2808 122.352 69.4984 123.485 76.015C124.618 82.5316 121.766 89.0979 116.23 92.7172C108.532 97.7499 98.2078 95.5474 93.2338 87.8114C92.0942 86.039 91.3032 84.0655 90.9033 81.9967C91.137 81.6185 90.8321 80.5293 91.308 80.0298C91.3767 78.4736 91.4153 77.4552 91.6602 75.9108L90.9962 75.2624C91.9295 71.0597 94.4625 67.3855 98.0582 65.0182Z" fill="#A581E3"/>
<path d="M98.0582 65.0183C104.89 68.8662 108.586 77.166 104.762 84.8206C103.871 86.6029 102.038 88.2687 100.194 88.8925C97.6491 89.7332 94.8486 87.8933 93.2338 87.8115C92.0942 86.0391 91.3032 84.0656 90.9033 81.9968C91.137 81.6185 90.8321 80.5294 91.308 80.0299C91.3767 78.4737 91.4153 77.4553 91.6602 75.9109L90.9962 75.2625C91.9295 71.0597 94.4625 67.3856 98.0582 65.0183Z" fill="#030511"/>
<path d="M98.0582 65.0183C104.89 68.8662 108.586 77.166 104.762 84.8206C103.871 86.6029 102.038 88.2687 100.194 88.8925C97.6491 89.7332 94.8486 87.8933 93.2338 87.8115C92.0942 86.0391 91.3032 84.0656 90.9033 81.9968C91.137 81.6185 90.8321 80.5294 91.308 80.0299C91.7876 83.5879 94.0732 86.5372 97.9277 86.4109C99.765 86.3526 101.498 85.5432 102.722 84.1716C104.515 82.1903 105.028 79.8257 104.921 77.2225C104.997 74.9776 102.09 75.8409 100.847 74.5807C98.8367 72.5427 101.691 71.9988 101.744 70.9497C101.44 70.5296 100.954 70.2545 100.452 70.1434C95.1262 68.9652 92.9286 71.1305 91.6602 75.9109L90.9962 75.2625C91.9295 71.0597 94.4625 67.3856 98.0582 65.0183Z" fill="white"/>
<path d="M111.016 62.7432C117.45 64.2808 122.352 69.4984 123.485 76.0151C124.618 82.5317 121.766 89.0979 116.23 92.7172C115.924 92.2644 116.894 88.9057 117.038 87.9038C117.881 81.5307 117.034 74.6354 114.542 68.7003C114.01 67.4336 110.707 63.2293 110.702 63.0046L111.016 62.7432Z" fill="white"/>
<path d="M90.9962 75.2625L91.6601 75.9108C91.4153 77.4553 91.3766 78.4737 91.308 80.0299C90.832 80.5293 91.1369 81.6185 90.9033 81.9967C90.4728 79.7693 90.5044 77.4771 90.9962 75.2625Z" fill="#E1DDF3" fill-opacity="0.988235"/>
<path d="M109.264 101.834C109.664 101.427 110.06 101.017 110.453 100.602C113.882 103.966 115.543 103.617 115.379 109.285C115.254 113.591 114.833 115.91 110.8 118.149C110.743 118.31 110.677 118.465 110.648 118.632C110.797 119.934 110.764 120.952 109.831 121.94C108.244 123.621 106.981 123.272 105.946 121.493C105.893 120.441 105.863 119.82 105.996 118.773L105.875 118.476C104.709 117.933 103.922 117.347 103.118 116.347C101.124 113.62 100.343 111.105 101.167 107.769C101.895 104.822 103.696 103.004 105.695 100.843C106.363 103.138 107.319 102.437 109.264 101.834Z" fill="#49238A"/>
<path d="M105.996 118.772C106.506 117.407 108.969 116.966 110.177 117.576C110.626 117.803 110.549 118.174 110.649 118.632C110.798 119.934 110.765 120.952 109.831 121.94C108.244 123.62 106.982 123.271 105.946 121.493C105.893 120.441 105.863 119.82 105.996 118.772Z" fill="#2E2161"/>
<path d="M94.0398 61.2132C93.5227 61.118 92.9893 61.0271 92.4805 60.9043C89.7779 60.2491 91.1703 57.5559 93.218 57.3389C94.6746 57.1845 97.0408 58.8433 98.1545 59.6747C97.7302 60.4086 94.9575 60.9434 94.0398 61.2132Z" fill="#251A4D"/>
<path d="M72.2221 81.6213L72.5215 81.7517L72.4982 82.0328C70.6561 84.5434 67.9305 84.8607 65.1593 84.1591C62.8568 83.5763 60.7389 82.4961 59.4894 80.3874C56.5762 75.4713 57.0779 66.9191 62.3225 63.6637C67.5727 60.5279 73.2441 63.9244 74.711 69.4448C74.9458 70.3282 75.2761 71.9771 75.0568 72.8305C75.1905 77.13 75.2872 78.1647 72.2221 81.6213Z" fill="white"/>
<path d="M72.222 81.6214C71.5589 82.0922 70.8021 82.4147 70.0031 82.5666C66.2709 83.2535 64.1796 79.175 63.5702 76.1266C62.9248 72.8978 65.4099 67.7207 68.78 66.9765C70.4727 66.6027 73.2496 68.0817 73.3189 70.0179C73.3747 71.1192 73.0443 71.3903 72.4121 72.2131C73.4518 72.3675 74.0796 72.417 75.0568 72.8306C75.1904 77.1301 75.2871 78.1648 72.222 81.6214Z" fill="#030511"/>
<path d="M72.2215 87.8464C75.0033 87.448 76.7572 88.6518 79.4484 89.3999C80.7571 89.7544 82.1054 89.9414 83.4611 89.9564C84.6534 89.9799 87.0438 89.4287 87.7386 89.8655C89.7189 92.6503 85.2095 98.5188 82.9189 100.019C82.3762 100.375 81.7926 100.607 81.1884 100.827C76.1253 102.83 73.9668 100.651 71.3158 96.7796C69.5006 94.1236 69.6857 89.9788 72.2215 87.8464Z" fill="#030511"/>
<path d="M71.6018 96.6591C72.5511 92.2701 82.5156 95.1551 82.3472 99.1459C82.3154 99.9005 80.779 100.506 80.1085 100.686L81.1885 100.828C76.1254 102.83 73.9668 100.652 71.3159 96.7799L71.6018 96.6591Z" fill="#DE3B64"/>
<path d="M71.6018 96.6589C71.8952 96.8951 72.2438 97.5121 72.4734 97.861C74.453 100.869 76.5758 101.548 80.1085 100.686L81.1885 100.828C76.1254 102.83 73.9668 100.652 71.3159 96.7797L71.6018 96.6589Z" fill="#19001C"/>
<path d="M65.6046 52.8676C66.7299 52.6886 69.4949 52.791 69.9906 54.0453C71.3871 57.5778 67.8764 55.2441 66.3724 55.1925C65.5728 55.1651 64.7763 55.4624 64.0181 55.7393C63.089 56.2083 62.0785 57.0774 61.123 57.4206C60.6564 57.5882 60.0883 56.978 60.0601 56.4301C59.9232 53.7795 63.6226 53.0871 65.6046 52.8676Z" fill="#030511"/>
<path d="M36.6135 119.049C37.2711 119.273 38.3385 120.375 38.7632 120.928C37.4146 120.989 36.8615 120.312 36.6135 119.049Z" fill="#A581E3"/>
<path d="M50.2358 128.835L50.3724 128.36C51.2244 128.431 52.0216 128.658 52.8218 128.949C55.5481 129.941 58.1678 130.996 61.0028 131.664C61.0082 132.501 60.9768 133.906 61.0533 134.697C61.1702 133.984 61.1418 132.556 61.1459 131.777C65.1856 132.33 69.0828 132.133 73.1085 131.907L73.2797 132.224L73.4838 131.834C74.2616 131.468 77.4237 130.993 78.5306 130.746C80.0202 130.413 82.0985 129.494 83.4107 129.348C83.4001 130.97 83.3501 132.591 83.2606 134.211C85.1007 134.362 86.0468 134.41 87.6712 135.385C88.6157 134.776 96.1386 136.092 97.6853 136.284C100.342 136.612 103.303 136.784 105.93 137.18C108.593 137.582 111.242 138.07 113.873 138.644C116.614 139.235 118.433 139.953 120.585 141.688C120.052 142.38 118.859 143.642 118.058 143.901C107.654 147.267 95.3775 148.319 84.6073 148.781C76.3586 149.198 68.0958 149.261 59.8419 148.969C47.0324 148.605 33.3659 148.131 20.8571 144.506C19.1116 143.999 17.6644 143.039 16.5122 141.613C20.1705 139.029 22.0199 138.738 26.3968 137.974C32.0067 136.995 37.5606 136.63 43.2306 136.217C45.0305 136.072 47.2995 136.103 49.037 135.778C50.3336 132.303 49.9846 132.341 50.2358 128.835Z" fill="#E1DDF3"/>
<path d="M50.2357 128.835L50.3723 128.36C51.2243 128.431 52.0216 128.658 52.8217 128.949C55.548 129.941 58.1678 130.996 61.0028 131.664C61.0082 132.501 60.9767 133.906 61.0532 134.697C61.6159 135.343 67.3145 135.418 66.5558 139.681C66.2856 141.199 65.5051 143.022 63.7009 143.005C58.421 142.958 45.2262 145.551 49.0369 135.778C50.3335 132.303 49.9845 132.341 50.2357 128.835Z" fill="#49238A"/>
<path d="M73.2795 132.224L73.4836 131.834C74.2614 131.468 77.4235 130.993 78.5304 130.746C80.0201 130.413 82.0983 129.494 83.4106 129.348C83.3999 130.97 83.35 132.591 83.2605 134.211C85.1006 134.362 86.0466 134.41 87.6711 135.385C87.8747 135.571 88.0738 135.762 88.2683 135.957C89.1509 136.849 89.8833 138.143 89.8374 139.406C89.6831 143.649 83.5898 142.61 80.8674 142.648C71.2328 142.784 72.8775 139.565 73.2795 132.224Z" fill="#49238A"/>
<path d="M23.5716 23.8927C24.5079 23.2314 26.2116 22.553 27.3115 22.1572C33.5204 19.9232 40.0487 19.2669 46.5745 20.287C53.8004 21.4164 59.4005 26.3883 64.253 31.5187C65.5592 32.8996 66.888 34.8497 68.187 36.1388L68.5176 36.3359C68.6995 37.6417 69.3387 36.9335 69.3697 38.4614C69.1281 39.0575 69.1064 39.218 68.4372 39.469C61.6708 42.0069 55.2232 43.036 48.036 43.102C47.1326 42.8302 44.9451 42.8393 43.8805 42.6381C35.0343 40.9653 28.6572 34.8065 24.2628 27.2777C23.8409 26.5551 22.9429 25.4185 22.863 24.5766C23.0776 24.0825 23.0339 24.2195 23.5716 23.8927Z" fill="#3DA74E"/>
<path d="M23.5718 23.8927C24.508 23.2314 26.2118 22.553 27.3116 22.1572C33.5206 19.9232 40.0488 19.2669 46.5747 20.287C53.8006 21.4164 59.4007 26.3883 64.2532 31.5187C65.5593 32.8996 66.8881 34.8497 68.1872 36.1388C68.1291 36.1772 68.0709 36.2156 68.0129 36.2541L67.9334 36.3014C66.3878 37.2387 62.3141 34.6684 60.7368 34.0903C59.9719 33.7333 59.1272 33.505 58.3484 33.2C50.6416 30.1829 43.2595 27.9016 35.1631 26.1561C32.8926 25.6666 25.2391 24.7375 23.5718 23.8927Z" fill="#7FC73E"/>
<path d="M68.5178 36.3361C69.0052 36.3816 69.507 36.4893 69.933 36.2809C70.4886 35.486 71.0121 32.8135 71.5162 31.501C73.4369 26.8451 76.8766 20.5725 82.0697 19.0842C82.8473 18.8614 84.0349 19.0908 84.7798 19.5552C86.0062 20.3199 85.8746 22.8742 85.2516 23.9361C84.8465 24.6265 82.9504 25.5036 82.2472 25.928C77.5783 28.2301 75.3776 32.3607 73.682 37.1387C73.2542 38.1863 73.0149 40.3399 72.8612 41.5183C71.4899 41.5251 71.0494 41.5618 69.7799 40.9574C69.4969 40.0481 69.321 39.446 69.3698 38.4616C69.3388 36.9337 68.6996 37.6418 68.5178 36.3361Z" fill="#49238A"/>
</g>
<defs>
<clipPath id="clip0_90_1105">
<rect width="145" height="158.594" fill="white"/>
</clipPath>
</defs>
</svg>
