<svg width="145" height="159" viewBox="0 0 145 159" fill="none" xmlns="http://www.w3.org/2000/svg">
<g clip-path="url(#clip0_90_862)">
<path d="M67.3121 40.3323C68.0144 41.3095 67.9164 43.3109 68.8448 43.7581C72.6088 45.5711 71.512 40.4944 72.5319 38.5171C73.0338 38.6509 73.605 38.6816 74.1248 38.7117C76.8795 38.8678 79.5082 39.6377 82.1685 40.315C90.9627 42.5542 97.9957 48.1886 103.702 55.0258C106.892 58.8488 109.24 62.6709 111.013 67.3265C111.704 69.1397 112.196 71.0326 113.048 72.777C113.861 74.4986 115.547 75.6041 116.742 77.0115C120.504 81.4436 121.715 89.6556 116.395 93.4458C115.524 94.0663 114.516 94.7542 113.484 95.05C111.529 106.692 105.07 117.097 95.5048 124.015C94.6612 124.613 89.8381 127.622 89.0513 127.745L89.0804 135.011C90.8873 135.49 92.0812 136.421 93.4154 137.713C97.4089 137.37 106.898 138.998 111.018 140.147C112.329 140.513 113.839 141.389 114.939 142.216C114.219 142.771 112.701 143.993 111.818 144.276C104.521 146.621 96.9904 147.074 89.3862 147.772C77.2151 148.89 65.0596 148.679 52.8815 147.704C45.3908 147.106 38.0814 146.675 30.7247 144.854C28.4484 144.31 27.5358 143.473 25.7147 142.175C26.83 141.434 28.9885 140.171 30.2368 139.806C32.5288 139.136 45.7585 136.963 47.4346 137.963C48.829 136.161 49.8325 135.489 52.0835 135.468C52.13 133.851 52.1395 130.051 52.4123 128.683C50.7747 128.071 49.4018 127.213 47.8819 126.375C34.2936 118.884 25.1252 102.432 25.6325 86.8034C23.6941 85.1536 21.2443 82.0007 21.1242 79.2544C20.9448 75.1558 22.0494 69.2727 24.6158 65.9564C25.9627 64.2159 28.5141 63.955 30.5141 63.7906C31.7554 62.1056 33.0966 59.5686 34.3774 57.712C37.8774 52.639 43.4848 47.4138 48.807 44.28C52.5503 44.6609 65.1695 43.3987 67.3121 40.3323Z" fill="#6532B1"/>
<path d="M78.8442 131.255C78.8721 131.202 79.1567 130.716 79.1689 130.714C82.8239 130.161 85.7173 129.421 89.0513 127.745L89.0803 135.011C90.8873 135.49 92.0811 136.421 93.4153 137.713C97.4089 137.37 106.898 138.998 111.018 140.147C112.329 140.513 113.839 141.39 114.939 142.216C114.219 142.771 112.701 143.993 111.818 144.276C104.521 146.621 96.9903 147.074 89.3862 147.773C77.2151 148.89 65.0596 148.679 52.8814 147.705C45.3907 147.106 38.0814 146.675 30.7246 144.854C28.4484 144.31 27.5357 143.474 25.7146 142.175C26.83 141.434 28.9884 140.171 30.2368 139.806C32.5287 139.137 45.7584 136.963 47.4346 137.963C45.9223 141.491 48.3005 143.791 51.7993 143.628C54.739 143.489 59.0383 144.112 61.5987 142.54C63.093 141.621 62.7666 138.378 62.7301 136.77C64.9901 136.776 77.0932 136.584 78.5296 137.078C78.8085 135.36 78.8387 133.006 78.8442 131.255Z" fill="#E1DDF4"/>
<path d="M78.8442 131.255C78.8721 131.202 79.1567 130.716 79.1689 130.714C82.8239 130.161 85.7172 129.421 89.0512 127.745L89.0803 135.011C90.8872 135.49 92.0811 136.421 93.4153 137.713C94.087 138.432 94.1217 139.429 94.1299 140.35C94.1672 142.063 92.4168 143.284 90.8426 143.452C88.284 143.67 85.6109 143.558 83.04 143.469C78.4323 143.311 78.2339 140.804 78.5295 137.078C78.8085 135.36 78.8386 133.006 78.8442 131.255Z" fill="#461E81"/>
<path d="M62.5312 131.873C68.1346 132.345 73.3155 132.484 78.8442 131.255C78.8386 133.006 78.8085 135.36 78.5295 137.078C77.0931 136.584 64.99 136.776 62.7301 136.77C62.6081 135.194 62.5842 133.463 62.5312 131.873Z" fill="white"/>
<path d="M58.6383 89.6568C59.1324 89.5379 59.2291 89.5211 59.7407 89.5289L59.8174 89.7181C59.001 91.5538 53.9517 92.3506 52.1334 91.7573C50.1526 91.3478 48.2547 89.5033 47.2548 87.693C44.6212 82.9247 46.0914 75.1371 51.0274 72.3175C54.8121 70.1555 58.275 72.0785 60.514 75.246C60.7595 75.5932 60.6825 75.6498 60.5805 76.0018L60.8486 76.4728C60.6603 76.5799 60.7387 76.5709 60.542 76.5708C61.0331 76.9486 61.5369 78.5378 61.6632 79.1526C61.5672 79.305 61.5834 79.3214 61.4497 79.4242C61.8496 79.5804 62.3252 80.2718 62.442 80.653C63.4395 83.9073 61.4719 88.1636 58.6383 89.6568Z" fill="#010107"/>
<path d="M58.6383 89.6568C59.1324 89.5379 59.2291 89.5211 59.7407 89.5289L59.8174 89.7181C59.001 91.5538 53.9517 92.3506 52.1334 91.7573C50.1526 91.3478 48.2547 89.5033 47.2548 87.693C44.6212 82.9247 46.0914 75.1371 51.0274 72.3175C54.8121 70.1555 58.275 72.0785 60.514 75.246C60.7595 75.5932 60.6825 75.6498 60.5805 76.0018C54.901 70.745 51.1213 78.7471 51.6728 83.7585C52.0711 87.3774 54.5092 91.4926 58.6383 89.6568Z" fill="white"/>
<path d="M60.5421 76.5708C61.0332 76.9486 61.537 78.5378 61.6633 79.1526C61.5673 79.305 61.5834 79.3214 61.4497 79.4242C60.8522 79.1897 60.2596 78.9428 59.6724 78.6835C59.8515 77.9486 60.0278 77.125 60.5421 76.5708Z" fill="white"/>
<path d="M90.6126 89.8076C90.6868 89.9658 90.6766 90.0115 90.7046 90.1924C89.313 92.2212 85.3484 93.1558 83.0413 92.3396C77.2485 90.2034 76.4157 83.5323 77.9851 78.2185C79.9943 71.4154 88.144 69.7067 91.7522 76.2933C92.1545 77.0278 93.2175 79.5238 92.9142 80.2439C94.6158 81.2658 93.5468 85.7403 92.6031 87.0448C92.2743 87.4992 90.7315 89.5438 90.6126 89.8076Z" fill="white"/>
<path d="M90.6126 89.8074C88.471 91.1593 87.0061 90.6484 85.3239 89.0071C82.1418 86.0373 82.3214 79.3805 85.406 76.4087C87.6252 74.2708 89.9894 75.0953 91.8645 77.0615C91.7492 77.3806 91.6364 77.7007 91.5259 78.0215C91.2962 78.6924 91.0912 79.0405 91.4128 79.6982C91.7665 80.1021 92.3714 80.1419 92.9142 80.2437C94.6158 81.2656 93.5468 85.7401 92.6031 87.0447C92.2743 87.4991 90.7315 89.5436 90.6126 89.8074Z" fill="#010107"/>
<path d="M61.5277 92.4829C66.5109 93.3366 68.7866 95.5108 74.2885 93.5238C85.6294 89.4281 80.6242 103.801 73.6789 105.345C71.6189 106.32 68.8148 106.595 66.7552 105.513C62.848 104.013 58.8787 99.7849 59.5135 95.0601C59.6733 93.8723 60.5501 93.0997 61.5277 92.4829Z" fill="#010107"/>
<path d="M67.6368 105.226C55.8101 100.819 70.1946 97.4518 74.6207 99.8267C75.3586 100.223 76.813 101.044 77.1369 101.857C77.174 103.45 73.6477 104.806 72.3706 105.267C72.7757 105.493 73.2064 105.392 73.6788 105.345C71.6188 106.32 68.8147 106.595 66.7551 105.513L67.6368 105.226Z" fill="#ED3A64"/>
<path d="M67.6369 105.226C69.3943 105.48 70.6131 105.552 72.3706 105.267C72.7757 105.493 73.2065 105.392 73.6789 105.345C71.6189 106.32 68.8147 106.595 66.7551 105.513L67.6369 105.226Z" fill="#050036"/>
<path d="M54.2464 61.2168C56.9923 60.905 58.0514 62.0282 57.3824 64.6093C53.5483 64.6144 53.0425 63.5566 49.494 66.2073C48.7347 66.781 47.6422 67.5254 46.9848 66.4105C46.5955 63.4346 51.8727 61.5215 54.2464 61.2168Z" fill="#010107"/>
<path d="M84.7372 61.9207C89.2747 61.6333 90.9431 63.0098 93.4875 66.5393C92.9894 67.4466 92.737 67.7315 91.9911 68.4184C91.3428 68.3019 89.5698 65.7717 88.5809 65.3356C87.2589 64.6474 85.6368 65.1164 84.2751 64.7628C83.4399 64.5457 83.5198 63.2593 83.8208 62.6592C84.0486 62.2051 84.2673 62.0769 84.7372 61.9207Z" fill="#010107"/>
<path d="M24.9678 21.7738C24.9514 21.6292 24.852 21.1997 25.0327 21.1258C32.3504 18.1321 41.9715 17.6577 49.545 19.8546C57.2515 22.0902 63.1773 29.8755 65.9132 37.0441C66.0679 37.442 66.219 37.8716 66.4483 38.2321C66.5358 38.8712 66.606 39.0013 66.8936 39.5865L67.3119 40.3325C65.1693 43.3989 52.5501 44.6611 48.8069 44.2802C44.6511 43.5966 40.2742 41.966 36.6693 39.7116C31.5649 36.5192 26.1634 27.6975 24.9678 21.7738Z" fill="#3CA44D"/>
<path d="M24.9678 21.7738C24.9514 21.6292 24.852 21.1997 25.0327 21.1258C32.3504 18.1321 41.9715 17.6577 49.545 19.8546C57.2515 22.0902 63.1773 29.8755 65.9132 37.0441C66.0679 37.442 66.219 37.8716 66.4483 38.2321C66.5358 38.8712 66.606 39.0013 66.8936 39.5865C66.8279 39.8525 66.7595 39.9544 66.6304 40.1983C65.8431 40.3764 64.6938 39.0836 63.9972 38.5317C62.5819 37.3904 61.1021 36.3315 59.5653 35.36C52.5804 30.9847 43.0016 26.9586 34.983 24.8709C33.2882 24.4296 25.9364 21.3075 24.9678 21.7738Z" fill="#81C53C"/>
<path d="M39.8038 19.5928C40.4515 19.745 40.9818 19.9672 41.264 20.6C41.52 21.1743 42.0177 22.9787 41.839 23.5677L41.6555 23.499C40.8926 22.2263 40.101 21.2754 39.1802 20.1252C39.2547 19.8455 39.4892 19.7902 39.8038 19.5928Z" fill="#82D845"/>
<path d="M68.7445 38.3672C69.3266 35.7919 69.9152 33.0484 70.9903 30.6146C72.4186 27.452 74.4014 24.305 76.9469 21.9239C78.0584 20.8841 79.6312 19.9525 81.1914 20.3473C83.4618 20.9219 83.325 22.4896 83.2522 24.3872C82.0312 25.9511 80.9968 26.2644 79.5209 27.4378C75.8216 30.379 73.9224 34.1016 72.5317 38.5171C71.5118 40.4945 72.6086 45.5712 68.8446 43.7581C67.9162 43.3109 68.0142 41.3095 67.3119 40.3323L66.8936 39.5864C66.606 39.0011 66.5358 38.871 66.4482 38.232C67.3308 38.4162 67.8532 38.3825 68.7445 38.3672Z" fill="#461E81"/>
<path d="M129.559 39.3516C130.281 40.092 132.585 43.3991 133.245 44.323C132.381 45.8941 130.498 47.7004 129.204 48.9918C129.073 48.6562 128.871 48.103 128.617 47.8614C127.592 46.8849 124.994 47.1091 123.559 47.1065C121.817 47.1463 120.074 47.1491 118.332 47.1152C118.199 46.344 118.123 45.6918 118.041 44.9183C119.566 44.2504 121.097 43.6092 122.657 43.0444C124.574 42.35 126.628 42.0917 128.165 40.6444C128.625 40.2116 129.098 39.789 129.559 39.3516Z" fill="#AE95EF"/>
<path d="M116.872 21.1064C117.904 21.0785 118.794 20.8603 118.903 22.1712C119.077 24.2555 120.302 25.7086 121.455 27.3653C120.521 27.9362 118.969 28.3385 118.274 28.8484C117.295 29.5664 116.261 31.6989 115.443 32.7261C114.648 33.7249 114.012 34.3875 113.134 35.2934C112.784 35.6734 112.594 35.9294 112.122 36.1428C111.616 36.1447 111.791 36.2164 111.45 35.8999C110.979 34.4753 112.542 30.5314 113.047 28.8258C112.543 28.0335 111.784 27.1256 111.188 26.3744C112.176 26.0578 114.272 25.4831 114.866 24.6828C115.602 23.6926 116.034 22.1204 116.872 21.1064Z" fill="#AE95EF"/>
<path d="M33.9044 9.28662C35.0599 9.52515 37.3027 12.1172 37.9963 13.0702C37.6281 14.5475 37.4205 14.9292 36.5516 16.1508C34.9956 16.0891 33.0381 12.892 32.4089 11.5815C32.7765 10.355 32.8728 9.96815 33.9044 9.28662Z" fill="#82D845"/>
</g>
<defs>
<clipPath id="clip0_90_862">
<rect width="145" height="158.594" fill="white"/>
</clipPath>
</defs>
</svg>
