<svg width="145" height="159" viewBox="0 0 145 159" fill="none" xmlns="http://www.w3.org/2000/svg">
<g clip-path="url(#clip0_90_945)">
<path d="M60.1322 43.7931C60.3526 44.9675 60.9272 46.5359 62.4516 45.8313C63.228 44.9548 62.9311 42.3377 63.3312 40.6648C63.7151 40.8545 67.8646 41.0869 68.7404 41.1605C85.8718 42.5984 98.513 53.7247 105.04 69.7428C108.09 77.4423 109.087 85.8024 107.933 94.0033C107.505 96.9646 106.747 99.767 106.405 102.694C106.339 103.262 107.008 104.603 107.178 105.279C108.093 108.913 107.794 112.742 104.736 115.299C102.224 117.4 101.133 116.928 98.4677 117.19C97.0327 118.307 95.3863 120.126 94.0573 121.401C92.049 123.327 86.4882 127.465 83.783 128.261C83.7766 128.95 83.7966 129.922 83.7095 130.584L83.579 128.371C81.8868 128.988 80.3061 129.605 78.5786 130.133C77.4255 130.486 74.5359 131.132 73.7391 131.824C73.6333 133.371 73.6384 135.136 73.489 136.625C73.1834 136.675 69.25 136.632 68.6998 136.632L57.5147 136.66C57.4885 135.481 57.3553 133.35 57.1623 132.236C56.9049 131.918 56.3089 131.842 55.8998 131.805C53.3639 131.57 50.005 129.491 47.6159 129.331C46.4601 129.15 44.6329 127.98 43.6197 127.382C38.0973 124.119 33.1743 119.807 29.4049 114.603C28.1766 112.907 27.4485 110.834 26.111 109.219C24.298 107.266 21.4021 106.557 19.8118 103.974C17.854 100.795 17.776 97.6826 19.3961 94.3278C19.9434 93.1947 20.8878 91.6256 21.0078 90.4314C21.1648 88.8684 21.0752 87.1219 21.1086 85.5341C21.1076 83.1351 21.5422 80.7707 21.9759 78.4216C23.9074 67.9601 30.235 55.4565 39.3459 49.3596C45.2821 49.6943 53.1063 48.0907 57.9406 44.5661C58.3762 44.3433 58.9954 43.9458 59.4311 43.6853C59.6681 43.7101 59.9097 43.7197 60.1322 43.7931Z" fill="#6835B4"/>
<path d="M57.1624 132.236C61.5629 133.292 69.3565 132.495 73.7391 131.824C73.6333 133.371 73.6384 135.136 73.489 136.625C73.1834 136.675 69.25 136.632 68.6998 136.632L57.5147 136.66C57.4885 135.481 57.3554 133.35 57.1624 132.236Z" fill="white"/>
<path d="M49.8655 73.5198C55.9735 73.2811 58.57 79.521 58.6292 84.7609C58.6839 89.607 56.4086 93.3685 51.4157 94.3606C40.4998 94.8442 38.9932 75.6492 49.8655 73.5198Z" fill="white"/>
<path d="M51.2289 77.0761C53.1576 76.9648 53.8774 77.7057 54.8622 79.2282C54.4112 80.1957 54.1529 80.8555 53.8011 81.8647C54.9788 81.8685 57.3902 81.2097 57.6916 82.7811C58.3769 86.3548 57.3394 90.8446 53.5075 92.1478C53.0685 92.2128 52.3671 92.3311 51.9435 92.2946C44.724 91.6737 43.9377 78.0862 51.2289 77.0761Z" fill="#000106"/>
<path d="M73.71 80.9949C73.3324 80.2487 73.6413 79.1612 73.9395 78.4264C75.1924 75.3269 78.7872 71.641 82.4488 73.1608C88.4444 75.6493 89.8542 82.7819 87.6814 88.3923C86.1259 92.4086 81.7328 94.7461 77.6748 92.9685C76.03 92.2505 74.7387 90.9074 74.0859 89.2357C73.9173 88.8047 73.8329 88.5264 73.7932 88.0676L73.9191 87.8188L74.1288 87.7764C73.3919 85.2816 73.2001 83.5334 73.71 80.9949Z" fill="#000106"/>
<path d="M73.71 80.9949C73.3324 80.2487 73.6413 79.1612 73.9395 78.4264C75.1924 75.3269 78.7872 71.641 82.4487 73.1608C88.4444 75.6493 89.8542 82.7819 87.6814 88.3923C86.1259 92.4086 81.7328 94.7461 77.6748 92.9685C76.03 92.2505 74.7387 90.9074 74.0859 89.2357C73.9173 88.8047 73.8329 88.5264 73.7932 88.0676L73.9191 87.8188L74.1288 87.7764C74.3773 88.4589 75.1476 89.5702 75.6938 89.9519C80.4632 93.2865 84.967 87.7034 84.3319 83.0144C83.8914 79.7613 82.8064 80.9813 81.9992 80.351C82.1014 80.0511 82.7495 79.6075 83.0377 79.3799C82.9166 79.0432 82.7827 78.7112 82.636 78.3848C81.6096 76.1186 79.2653 75.509 77.0173 76.5118C75.2569 77.2971 74.3078 79.2355 73.71 80.9949Z" fill="white"/>
<path d="M61.8752 104.787C57.2262 97.6781 66.5763 90.2786 71.1453 96.7455C73.0691 99.4685 72.7775 103.387 70.0359 105.717C68.9452 106.703 68.7637 106.928 67.2996 107.274C64.5358 107.527 63.6488 106.823 61.8752 104.787Z" fill="#000106"/>
<path d="M62.147 104.607C62.0508 104.298 61.8789 103.879 62.1222 103.615C64.9129 100.589 68.2598 100.975 70.4455 103.98C70.246 104.385 70.0195 104.879 69.7773 105.247L70.0359 105.716C68.9453 106.703 68.7637 106.928 67.2996 107.274C64.5358 107.527 63.6488 106.823 61.8752 104.786L62.147 104.607Z" fill="#E62960"/>
<path d="M62.147 104.607C63.6254 106.167 64.3044 106.889 66.5143 106.95L66.7265 106.955L67.2996 107.274C64.5358 107.528 63.6488 106.823 61.8752 104.787L62.147 104.607Z" fill="#0E0030"/>
<path d="M69.7771 105.247L70.0357 105.716C68.9451 106.703 68.7635 106.928 67.2994 107.274L66.7263 106.954C68.2954 106.712 68.7245 106.372 69.7771 105.247Z" fill="#000106"/>
<path d="M79.7161 62.766C82.3665 62.5234 84.9279 63.1241 86.7179 65.2606C87.4583 66.1443 87.9082 67.7092 86.825 68.5237C86.3151 68.5424 86.4054 68.4788 85.8919 68.1142C84.6265 67.1717 83.3594 66.1966 82.0224 65.3611C80.7126 65.5563 76.3034 66.4944 78.1725 63.5639C78.6019 62.8906 78.9686 62.9035 79.7161 62.766Z" fill="#000106"/>
<path d="M49.8774 63.3467C50.4618 63.3079 51.938 63.3885 52.1948 63.9345C53.6317 66.9884 50.4063 66.0544 49.1491 66.309C47.5775 66.6272 45.7976 67.9843 44.6 68.8409L43.6996 69.466C42.6509 68.5863 42.1343 67.8877 43.2987 66.6282C44.9287 64.8648 47.4687 63.5485 49.8774 63.3467Z" fill="#000106"/>
<path d="M101.897 4.30999C116.866 3.57021 124.77 6.61695 124.126 23.0959C123.763 32.407 122.12 38.6404 111.638 40.1645C108.455 40.6272 106.757 39.7159 104.256 42.1644C102.435 44.1044 101.016 45.6691 98.5624 46.7386C95.8281 45.1534 96.3662 43.1038 96.4284 40.3517C94.2882 39.2864 91.5976 38.5403 89.8254 36.9028C85.5529 32.8636 85.9118 26.6915 85.8485 21.4202C85.7053 9.51912 89.9396 4.93104 101.897 4.30999Z" fill="#7AC941"/>
<path d="M99.3697 15.0481C99.6222 15.0342 99.8751 15.0305 100.128 15.0372C102.04 15.1053 103.652 16.3549 104.906 17.6817C106.429 16.4396 107.94 15.1383 110.046 15.1472C111.35 15.1451 112.598 15.6742 113.504 16.6125C114.455 17.6133 114.822 18.8853 114.766 20.2481C114.619 23.7989 111.726 26.3098 109.291 28.5485C107.826 29.7549 106.417 31.0601 104.936 32.278C101.843 29.2691 96.3137 26.6325 95.153 22.0204C94.3113 18.6757 95.9156 15.8325 99.3697 15.0481Z" fill="white"/>
<path d="M73.7391 131.824C74.5359 131.132 77.4255 130.486 78.5786 130.133C80.3061 129.604 81.8868 128.988 83.579 128.371L83.7095 130.584C83.7252 132.169 83.7233 133.753 83.7037 135.338C85.6417 135.582 86.4239 136.159 87.8021 137.545C91.0598 137.081 101.705 139.003 105.058 140.042C106.345 140.441 107.671 141.042 108.761 141.863C108.902 141.97 109.041 142.077 109.18 142.188C106.891 144.681 104.172 145.21 100.935 145.739C83.2479 148.628 65.0943 149.535 47.2542 147.542C41.7227 146.938 26.7048 146.933 22.623 143.206C22.2532 142.86 21.8914 142.508 21.5381 142.147C23.2032 140.917 25.3303 139.67 27.3766 139.318C29.4641 138.96 41.2354 136.788 42.7864 137.753C43.0035 137.51 43.2249 137.271 43.4505 137.036C44.7893 135.652 45.5359 135.492 47.3076 135.462C47.5234 133.579 47.291 131.141 47.6159 129.331C50.005 129.491 53.3639 131.57 55.8998 131.805C56.3089 131.842 56.9049 131.918 57.1623 132.236C57.3554 133.35 57.4885 135.481 57.5147 136.66L68.6998 136.632C69.25 136.632 73.1834 136.675 73.489 136.625C73.6384 135.136 73.6333 133.371 73.7391 131.824Z" fill="#E1DDF4"/>
<path d="M73.7391 131.824C74.5359 131.132 77.4256 130.486 78.5786 130.133C80.3062 129.604 81.8869 128.988 83.579 128.371L83.7096 130.584C83.7253 132.169 83.7233 133.753 83.7038 135.338C85.6417 135.582 86.4239 136.159 87.8021 137.545C88.9379 139.04 89.1794 141.113 87.7284 142.441C85.8536 144.125 82.8227 143.588 80.4768 143.55C73.764 143.441 73.2911 142.812 73.4891 136.625C73.6384 135.136 73.6333 133.371 73.7391 131.824Z" fill="#4C248D"/>
<path d="M47.616 129.331C50.0051 129.491 53.364 131.57 55.9 131.804C56.3091 131.842 56.905 131.918 57.1625 132.236C57.3555 133.35 57.4886 135.481 57.5148 136.66C57.8674 140.07 58.1989 143.539 53.3686 143.595C51.2815 143.621 46.955 143.874 45.0696 143.403C44.3198 143.22 43.6272 142.855 43.0537 142.338C41.626 141.03 41.7853 139.278 42.7865 137.752C43.0036 137.51 43.2251 137.271 43.4506 137.036C44.7895 135.652 45.536 135.492 47.3077 135.461C47.5235 133.578 47.2912 131.141 47.616 129.331Z" fill="#4C248D"/>
<path d="M16.0577 32.171C19.2847 29.9373 26.2116 27.5896 30.1938 27.0296C32.5226 26.7021 36.1375 26.8435 38.4945 27.2535C45.0883 28.4003 49.913 31.4927 54.2059 36.5993C54.9546 37.4899 57.1444 40.4901 57.855 41.0426L58.0706 41.0228C58.532 42.0307 59.2958 42.7513 59.431 43.6852C58.9953 43.9458 58.3761 44.3432 57.9405 44.566C53.1062 48.0906 45.282 49.6942 39.3458 49.3595C33.1672 48.8743 29.0279 47.3973 23.9869 43.4921C22.8599 42.6192 21.8018 41.661 20.8219 40.6258C19.5668 39.3097 16.0398 35.0554 15.5306 33.0594C15.4435 32.7177 15.8143 32.4306 16.0577 32.171Z" fill="#3DA44D"/>
<path d="M16.0579 32.171C19.2848 29.9373 26.2117 27.5896 30.1939 27.0296C32.5227 26.7021 36.1377 26.8435 38.4946 27.2535C45.0884 28.4003 49.9131 31.4927 54.206 36.5993C54.9547 37.4899 57.1445 40.4901 57.8551 41.0426C57.5488 41.3382 57.1678 41.7321 56.8308 41.968C56.2713 41.6444 54.7911 41.1725 54.0976 40.8768C43.4143 36.3225 32.1067 33.1942 20.4513 32.7514C19.277 32.7068 17.0314 32.6778 16.0579 32.171Z" fill="#7AC941"/>
<path d="M60.1737 40.7531C60.9445 34.1733 62.0957 27.1258 67.8845 22.6762C71.1112 20.2584 74.0793 24.8288 71.5789 26.941C66.5204 31.2139 65.0757 34.2012 63.3313 40.6646C62.9311 42.3374 63.2281 44.9545 62.4517 45.831C60.9273 46.5356 60.3527 44.9673 60.1322 43.7928C59.9098 43.7195 59.6682 43.7098 59.4312 43.6851C59.2959 42.7512 58.5321 42.0306 58.0708 41.0227L60.1737 40.7531Z" fill="#3D1775"/>
<path d="M58.0708 41.0228L60.1737 40.7532C60.1562 41.2215 60.164 43.6016 60.1322 43.7929C59.9098 43.7196 59.6682 43.71 59.4312 43.6852C59.2959 42.7513 58.5321 42.0307 58.0708 41.0228Z" fill="#4C248D"/>
</g>
<defs>
<clipPath id="clip0_90_945">
<rect width="145" height="158.594" fill="white"/>
</clipPath>
</defs>
</svg>
