<svg width="145" height="159" viewBox="0 0 145 159" fill="none" xmlns="http://www.w3.org/2000/svg">
<g clip-path="url(#clip0_90_1077)">
<path d="M65.2965 37.4209C76.6663 38.2368 87.2513 43.5184 94.7403 52.1122C102.479 60.9316 107.032 71.3874 107.073 83.1909C107.065 83.5105 107.06 84.5484 106.991 84.7951C100.767 84.6796 93.9538 84.6221 87.7467 84.7696C88.4625 84.1105 88.5168 84.0388 88.9199 83.0085C91.2927 76.9433 87.1006 65.3153 79.0486 68.5714C77.7239 69.1071 75.906 71.1093 75.1416 72.4325C74.4505 73.6288 73.5717 77.5696 74.235 78.8565C75.4128 75.9818 76.9061 76.862 77.6551 75.7677C77.8345 74.8574 76.3791 74.4136 77.7502 73.0304C79.7968 70.9659 83.4195 71.2873 84.8772 73.8619C86.9753 77.6934 86.8466 80.7821 84.8981 84.6592L82.4793 84.6335C81.6138 85.3097 79.6018 85.0753 79.3493 86.1572C79.2365 86.6407 79.3871 88.2529 79.6699 88.6277C79.9084 87.8666 81.1455 87.1798 81.7617 86.5099L81.8936 86.5606C81.5541 86.9684 79.3972 89.2078 79.317 89.3705C78.4163 91.1982 78.2526 94.1843 77.3182 96.0088C76.8608 96.902 76.9927 96.6542 76.726 97.6085C76.5187 99.4798 76.53 101.474 76.4888 103.361C76.4312 105.998 76.5014 108.661 76.3355 111.295C76.0792 115.366 75.7854 119.429 75.5946 123.504C75.4949 125.556 75.2491 127.597 75.3982 129.654C75.44 130.232 75.8107 130.781 76.1596 131.228C77.2399 132.608 78.6338 132.674 80.2148 132.703C80.6532 132.729 81.2486 132.695 81.5493 132.964L81.6427 133.216C81.6632 133.514 81.7088 134.6 81.8776 134.627C83.7359 134.895 85.1607 134.947 86.6189 136.316C88.0659 137.59 88.268 140.511 86.6843 141.788C84.7036 143.387 80.115 142.61 77.6375 142.744C69.5743 143.182 71.8578 136.828 71.9515 131.473C68.2302 132.164 64.3472 132.399 60.5537 132.25C59.6703 132.215 56.3353 131.712 55.8756 131.941C55.8306 131.787 55.7422 131.378 55.5675 131.369C53.7725 131.283 46.6673 128.1 45.4503 128.426C45.2099 128.103 40.4992 125.511 39.8123 125.099C31.1714 119.917 24.7076 111.269 21.5241 101.693C17.3126 89.0236 18.502 74.9214 24.2027 62.87C25.4936 60.141 28.7586 55.1442 30.8034 52.9668C34.6173 48.9052 41.1108 43.3098 46.357 41.5235C50.8907 42.2271 55.4784 42.0026 60.0323 41.7587C60.6986 41.723 61.3154 41.6933 61.9853 41.7328C62.4482 42.2763 64.2413 42.3152 64.9803 42.3785C65.1699 40.7895 65.1031 39.102 65.2965 37.4209Z" fill="#6938B6"/>
<path d="M74.2351 78.8565C75.4129 75.9819 76.9063 76.8621 77.6552 75.7678C77.8346 74.8574 76.3792 74.4136 77.7504 73.0305C79.7969 70.9659 83.4197 71.2873 84.8773 73.8619C86.9754 77.6934 86.8467 80.7822 84.8983 84.6592L82.4794 84.6336C80.3279 84.6871 79.4371 85.2575 77.966 86.7955C77.6017 86.5991 76.9155 86.2542 76.6156 86.0197C76.5707 85.9114 76.5982 85.9617 76.5342 85.8685C74.6735 83.1526 74.3752 82.0308 74.2351 78.8565Z" fill="#030513"/>
<path d="M77.9659 86.7955C79.437 85.2574 80.3278 84.6871 82.4793 84.6335C81.6139 85.3097 79.6018 85.0753 79.3494 86.1572C79.2365 86.6407 79.3872 88.2529 79.67 88.6277C79.9084 87.8666 81.1456 87.1798 81.7617 86.5099L81.8937 86.5606C81.5541 86.9684 79.3972 89.2078 79.3171 89.3705C78.4164 91.1982 78.2527 94.1843 77.3182 96.0088C76.8609 96.902 76.9927 96.6542 76.7261 97.6085C76.6713 94.9402 77.0236 90.7091 77.4681 88.0667C77.0492 87.4373 76.3991 86.7567 76.6155 86.0197C76.9154 86.2542 77.6016 86.5991 77.9659 86.7955Z" fill="#C6BBEE"/>
<path d="M55.7343 86.0981C56.1457 86.0078 56.1989 86.0064 56.6132 86.0807L56.6843 86.2872C56.3569 86.7365 55.959 86.9163 55.4899 87.1609C52.9712 88.4735 48.2225 88.1286 46.1217 86.2305C42.0832 82.5817 42.1179 74.5961 45.5343 70.5521C46.9084 68.9247 49.0341 67.4324 51.2128 67.2783C55.5968 66.9682 59.3216 71.821 59.6342 75.823C59.6075 76.4331 59.6889 76.9505 59.3688 77.3806L58.9477 77.4364L58.9302 78.0887C58.8931 81.4665 58.7341 83.8791 55.7343 86.0981Z" fill="#030513"/>
<path d="M55.7343 86.0981C56.1457 86.0078 56.1989 86.0064 56.6132 86.0807L56.6843 86.2872C56.3569 86.7365 55.959 86.9163 55.4899 87.1609C52.9712 88.4735 48.2225 88.1286 46.1217 86.2305C42.0832 82.5817 42.1179 74.5961 45.5343 70.5521C46.9084 68.9247 49.0341 67.4324 51.2128 67.2783C55.5968 66.9682 59.3216 71.821 59.6342 75.823C59.6075 76.4331 59.6889 76.9505 59.3688 77.3806L58.9477 77.4364C57.0325 76.0189 53.6083 79.5342 56.1938 73.4327C55.1561 72.1827 54.5634 71.8202 52.9174 71.5768C47.0398 70.7079 45.4829 78.0557 46.9306 82.3388C48.217 86.1442 52.0736 88.1776 55.7343 86.0981Z" fill="#FDFCFE"/>
<path d="M61.5437 99.2147C58.7822 97.547 57.2725 94.9086 59.0364 91.6946C59.2532 91.2998 59.8125 90.8038 60.3125 90.7314C62.9319 90.9429 64.7459 92.5985 67.569 92.6502C69.5124 92.6858 72.4611 90.4151 73.5394 91.3272C75.746 93.1938 73.1765 97.7502 72.131 99.1964C71.1654 100.523 69.8338 101.897 68.1622 102.239C65.6199 102.759 63.5127 100.522 61.5437 99.2147Z" fill="#030513"/>
<path d="M61.5437 99.2145C58.338 95.4957 65.7401 96.0917 67.5566 96.2953C69.3184 96.4927 71.429 97.4718 72.131 99.1962C71.1654 100.523 69.8338 101.896 68.1622 102.239C65.6199 102.759 63.5127 100.522 61.5437 99.2145Z" fill="#D53366"/>
<path d="M50.2286 57.5293C51.7532 57.3671 53.0798 57.2821 54.1975 58.563C54.4674 58.8791 54.8281 60.143 54.2703 60.2894C52.8179 60.6706 51.4002 60.1461 49.8883 60.5064C48.7967 60.7665 48.3467 61.0508 47.4149 61.6212C46.5152 62.2479 46.0751 62.5167 45.0952 63.0066L45.0311 62.968C42.7206 61.5537 44.7251 59.9543 46.2344 58.941C47.407 58.1535 48.8492 57.7624 50.2286 57.5293Z" fill="#030513"/>
<path d="M80.8992 58.2326C83.5414 58.025 85.897 58.506 87.6162 60.7088C88.2462 61.5161 89.102 62.8905 88.0008 63.7197C87.541 63.7445 87.727 63.781 87.2858 63.5197C82.0364 58.9072 82.091 61.9201 79.5364 60.7145C79.1841 60.5482 79.1375 60.3998 79.0256 60.0547C79.195 58.7758 79.7343 58.3923 80.8992 58.2326Z" fill="#030513"/>
<path d="M38.7036 93.2393C38.7367 93.2564 38.9904 93.3878 38.9904 93.3878C39.5597 94.8279 40.6821 97.0439 41.4522 98.2696C42.1564 99.3906 42.6026 99.8008 43.3041 100.524C42.435 100.403 40.5779 97.1773 39.7399 96.3126L39.7183 96.4856C40.638 98.9717 41.2919 99.6205 43.0099 101.469C42.717 101.457 42.639 101.299 42.3785 101.06C40.3425 99.1847 38.8271 96.0053 38.7036 93.2393Z" fill="#472084"/>
<path d="M59.6341 75.823C59.8867 77.2901 59.5701 78.8316 59.2088 80.2616L58.9302 78.0888L58.9476 77.4364L59.3687 77.3806C59.6889 76.9506 59.6075 76.4332 59.6341 75.823Z" fill="#C6BBEE"/>
<path d="M26.502 16.867C35.6472 15.9487 44.4358 15.4037 52.2198 21.5233C55.3533 23.9868 58.0096 27.7594 59.8786 31.2302C60.318 32.046 61.4052 34.6091 61.8739 35.0599L61.8369 36.5046C61.8937 38.2011 61.987 40.0483 61.9852 41.7327C61.3153 41.6932 60.6985 41.7229 60.0322 41.7586C55.4783 42.0024 50.8906 42.227 46.3569 41.5234C45.4613 41.2415 44.4913 41.1258 43.5617 40.7883C35.3757 37.8175 29.2448 31.2489 27.2261 22.705C26.9006 21.3273 25.6596 17.944 26.502 16.867Z" fill="#3BA44B"/>
<path d="M26.5022 16.867C35.6474 15.9487 44.436 15.4037 52.22 21.5233C55.3535 23.9868 58.0098 27.7594 59.8788 31.2302C60.3182 32.046 61.4054 34.6091 61.8741 35.0599L61.8372 36.5046C61.7875 37.0307 61.7943 37.8832 61.7808 38.4354C59.3917 35.7251 55.9917 33.5703 53.0308 31.494C46.5837 26.9734 39.644 22.7023 32.4611 19.451C30.4544 18.5427 28.4978 17.8041 26.5022 16.867Z" fill="#78C64F"/>
<path d="M122.841 96.628C123.175 96.5677 124.432 96.5493 124.838 96.5344C124.815 98.1277 124.858 100.269 124.614 101.84C124.539 102.322 124.369 102.396 124.04 102.58C122.396 102.638 122.578 101.725 121.952 101.331C119.878 104.415 117.75 107.453 115.793 110.616C114.821 112.187 113.927 113.653 112.654 115C111.548 114.151 108.255 110.114 107.006 108.736C106.408 109.876 105.38 111.265 104.688 112.408C102.884 115.386 102.086 117.267 99.5471 119.654C97.8402 117.997 94.977 115.488 93.578 113.743C92.0321 115.529 90.5803 117.326 89.1183 119.18C88.1829 120.366 86.9992 121.595 86.1652 122.834C86.0762 122.979 86.1165 122.914 85.9067 123.001C85.2753 122.48 84.6781 121.448 84.2659 120.729C86.0357 118.263 88.6101 115.965 90.3805 113.417C91.2518 112.164 92.5421 110.899 93.9186 110.213C95.7775 111.704 98.4742 114.338 99.9402 116.218C102.721 112.586 103.133 108.904 106.962 105.047C109.129 107.136 110.584 108.346 112.222 111.021C114.302 109.055 118.551 102.299 120.599 99.6092C116.555 97.2753 120.81 96.8243 122.841 96.628Z" fill="#78C64F"/>
<path d="M45.4504 128.426C46.6673 128.1 53.7726 131.283 55.5676 131.369C55.7423 131.378 55.8307 131.787 55.8757 131.941C57.1495 142.505 55.8207 142.713 45.7387 142.831C36.833 142.934 38.841 135.504 45.1979 134.303C45.2462 132.892 45.2391 129.629 45.4504 128.426Z" fill="#472084"/>
<path d="M61.8741 35.06C62.8039 29.2596 66.5049 18.8584 73.1037 17.5452C74.9258 18.7393 76.3883 20.1896 74.9127 22.5838C74.1643 23.7979 72.4421 24.6653 71.3995 25.6417C68.3122 28.1406 65.8241 33.5728 65.2966 37.4209C65.1032 39.102 65.17 40.7895 64.9804 42.3785C64.2414 42.3152 62.4483 42.2763 61.9854 41.7328C61.9873 40.0485 61.8939 38.2013 61.8372 36.5048L61.8741 35.06Z" fill="#472084"/>
<path d="M125.65 80.2706C126.328 80.1933 127.196 80.9967 127.762 81.3251C132.939 84.3276 132.803 88.1463 126.178 89.1933C123.822 89.3943 122.163 88.2052 120.141 87.0672C119.371 82.2492 121.848 82.1798 125.65 80.2706Z" fill="#472084"/>
<path d="M132.1 84.8062C134.677 87.7434 134.711 88.0468 134.327 91.9722C133.42 101.254 132.817 110.575 131.886 119.851C131.561 123.088 131.495 126.323 130.984 129.534C130.774 130.743 129.351 132.31 128.136 132.531L128.104 132.413C127.761 132.209 127.475 131.997 127.153 131.765C128.862 130.591 130.069 128.849 130.314 126.804C130.819 122.598 131.119 118.098 131.393 113.86C131.86 106.65 132.945 99.5017 132.809 92.2967C132.758 89.5692 132.412 87.4657 132.1 84.8062Z" fill="#C6BBEE"/>
<path d="M114.606 32.7261L114.644 32.6306C115.084 31.4892 115.415 26.8897 117.176 27.2786C118.332 28.2056 118.612 29.7133 118.765 31.1008C118.787 31.3054 118.808 31.5103 118.827 31.7152C120.768 31.6434 123.552 32.0608 123.711 34.6503C123.838 36.7123 120.471 38.1425 119.24 36.0019C118.493 36.424 118.59 36.3799 118.452 37.2592C117.745 37.2597 116.674 37.1197 115.941 37.0455C115.4 36.9551 115.237 36.9278 114.725 36.73L114.671 36.4854C114.741 35.6076 114.733 34.7065 114.74 33.8246L114.606 32.7261Z" fill="#78C64F"/>
<path d="M114.74 33.8245C115.601 33.2915 116.974 33.655 118.079 33.7153C118.611 34.6097 118.85 35.0408 119.24 36.0018C118.493 36.4239 118.59 36.3798 118.452 37.259C117.745 37.2596 116.674 37.1196 115.941 37.0454C115.4 36.955 115.237 36.9277 114.725 36.7299L114.671 36.4853C114.741 35.6075 114.733 34.7064 114.74 33.8245Z" fill="#C5E099"/>
<path d="M127.153 131.765C127.475 131.997 127.761 132.209 128.104 132.413L128.136 132.531C126 133.293 117 132.942 114.214 132.975C104.078 133.183 93.9401 133.246 83.8025 133.164C83.1774 133.095 82.1801 132.867 81.718 133.1L81.6428 133.216L81.5493 132.964C81.2487 132.695 80.6532 132.729 80.2148 132.704C81.1959 132.639 82.2257 132.375 83.2817 132.322C85.3747 132.217 87.483 132.168 89.5774 132.164C97.9022 132.102 106.227 132.088 114.552 132.124C116.778 132.119 125.57 132.226 127.153 131.765Z" fill="#B09FED"/>
<path d="M80.2148 132.703C81.1959 132.639 82.2257 132.375 83.2817 132.322C85.3747 132.217 87.483 132.167 89.5774 132.164C87.7733 132.65 84.6024 132.179 83.2518 132.674L84.1831 132.723L84.2232 132.885L83.8025 133.163C83.1774 133.095 82.1801 132.867 81.718 133.1L81.6428 133.216L81.5493 132.964C81.2487 132.695 80.6532 132.729 80.2148 132.703Z" fill="#C6BBEE"/>
<path d="M111.111 31.135C112.978 31.4659 113.036 31.8589 114.607 32.726L114.741 33.8246C114.733 34.7065 114.741 35.6076 114.671 36.4854C113.054 36.1323 110.524 36.7659 109.071 35.4703C107.803 34.3404 110.321 31.9072 111.111 31.135Z" fill="#C6BBEE"/>
<path d="M114.725 36.7297C115.237 36.9276 115.4 36.9549 115.941 37.0452C116.674 37.1194 117.745 37.2595 118.452 37.2589C118.184 38.5975 118.16 39.9621 117.861 41.2468C117.715 42.3478 117.101 43.6576 115.918 43.9259C114.196 43.4599 114.71 38.2382 114.725 36.7297Z" fill="#C6BBEE"/>
<path d="M115.941 37.0454C116.674 37.1196 117.745 37.2597 118.452 37.2591C118.184 38.5976 118.16 39.9623 117.861 41.247C117.777 40.956 117.496 40.022 117.499 39.7843C117.519 37.7448 117.795 37.9396 115.941 37.0454Z" fill="#B8BFC8"/>
<path d="M107.073 83.1909C107.118 83.538 107.173 84.369 107.372 84.5899C109.101 84.5108 118.18 84.1698 119.142 84.4997L119.266 84.7457C119.155 84.9694 119.046 85.2606 118.769 85.2974C116.84 85.553 108.779 85.7114 107.277 85.2655C107.166 85.1119 107.046 84.9741 106.991 84.7951C107.06 84.5484 107.065 83.5105 107.073 83.1909Z" fill="#C6BBEE"/>
</g>
<defs>
<clipPath id="clip0_90_1077">
<rect width="145" height="158.594" fill="white"/>
</clipPath>
</defs>
</svg>
