<svg width="145" height="159" viewBox="0 0 145 159" fill="none" xmlns="http://www.w3.org/2000/svg">
<g clip-path="url(#clip0_90_1053)">
<path d="M55.5911 40.7674C55.9463 40.7616 56.54 40.7336 56.8525 40.8765C57.6794 41.2545 59.5345 42.5911 60.412 42.0734C60.7545 40.6849 60.6077 38.7043 60.9635 37.0842C72.0801 37.2098 80.819 40.5218 89.2459 47.8481C100.706 57.8113 105.662 71.1323 105.666 86.155C105.292 90.3086 104.574 94.4241 103.519 98.4592C103.313 99.2725 102.108 102.929 102.081 103.345C98.4134 112.882 91.1557 121.361 82.0386 126.006C81.6972 126.18 81.2053 126.48 80.857 126.598C79.773 127.103 78.8598 127.685 77.6851 128.139C76.2759 128.684 71.1379 129.64 70.3894 130.442C66.5491 131.564 62.5142 131.662 58.545 131.671C57.7608 131.673 53.5372 131.103 53.1824 131.233C53.0258 130.938 52.9188 130.648 52.5607 130.562C49.2154 129.762 46.0619 129.192 42.9148 127.718C41.8483 127.325 36.2431 124.042 35.4526 123.328L35.1773 123.49C36.4043 125.173 37.7334 130.025 34.7943 130.935C33.6477 131.29 31.9982 129.794 31.0563 129.065C30.9954 130.899 30.4811 132.056 28.6876 132.925C27.6791 133.414 26.1372 133.477 25.0787 132.985C23.0119 132.023 20.7073 130.195 19.7065 128.099C19.1217 126.738 19.3765 124.444 19.2068 122.946C19.0163 121.266 18.6101 119.656 18.4427 117.979C18.0247 113.791 19.4455 109.037 21.006 105.185C20.8332 104.779 20.6667 104.369 20.5064 103.957C18.4713 98.7115 16.9933 90.7083 16.9971 85.0624C17.0013 78.9438 18.716 70.3028 21.113 64.6439C24.063 57.6796 28.7077 51.8959 34.3322 46.9102C35.9369 45.4879 37.2394 44.0631 39.2665 43.2782C42.9558 43.4876 46.0342 43.3551 49.6418 42.4056C51.6529 41.8764 53.5579 41.2374 55.5911 40.7674Z" fill="#6D39B8"/>
<path d="M32.5659 121.2C32.0792 121.101 31.712 121.046 31.2186 120.987C30.9229 120.629 30.7623 120.017 30.9515 119.579L31.2084 119.522C31.783 119.773 32.3696 120.511 32.8144 120.994L32.5659 121.2Z" fill="#E0DCF2"/>
<path d="M32.8144 120.994C33.7943 121.583 34.6633 122.498 35.4526 123.328L35.1773 123.49C34.6827 123.147 32.9808 121.609 32.5659 121.2L32.8144 120.994Z" fill="#8354BD"/>
<path d="M47.8289 68.5628C49.1705 68.3598 50.8878 68.9752 51.9811 69.7511C56.9071 73.2372 57.5228 80.2656 55.5032 85.552C54.3514 88.5666 52.2034 89.5395 49.2833 90.0591C47.8871 90.0889 46.0316 89.9115 44.8758 89.1378C37.5455 84.2309 39.0277 70.995 47.8289 68.5628Z" fill="white"/>
<path d="M48.5524 72.3974C49.0284 72.3839 49.5038 72.4344 49.9665 72.5472C52.0879 73.073 52.1024 74.1506 51.6088 75.9609C52.0395 77.3271 52.2528 77.6211 53.1737 78.6473L54.3989 77.6099L54.463 77.664C56.4847 79.4037 56.385 81.2754 55.5087 83.7C54.7452 85.813 53.5188 87.123 51.4581 88.0422C41.7853 91.1181 39.7956 73.7388 48.5524 72.3974Z" fill="#020413"/>
<path d="M71.5619 76.1773C71.3702 75.9232 71.27 75.9081 71.3496 75.5733C71.9109 73.2122 73.5467 70.869 75.4551 69.4014C78.7683 66.8534 82.6923 69.0596 84.7099 72.0958C87.9823 77.065 88.2372 85.0896 82.8193 88.7111C80.9723 89.9457 79.1538 90.0333 77.0295 89.7208C75.5328 89.5006 73.2384 87.7494 72.8117 86.3119L72.9618 85.9518C72.8673 85.7694 72.2897 84.9922 72.1185 84.756C69.9476 81.761 70.6103 79.5905 71.5619 76.1773Z" fill="#020413"/>
<path d="M71.5618 76.1773C71.37 75.9232 71.2699 75.9081 71.3495 75.5733C71.9108 73.2122 73.5466 70.869 75.455 69.4014C78.7681 66.8534 82.6922 69.0596 84.7097 72.0958C87.9822 77.065 88.237 85.0896 82.8192 88.7111C80.9722 89.9457 79.1537 90.0333 77.0294 89.7208C75.5327 89.5006 73.2383 87.7494 72.8115 86.3119L72.9616 85.9518C76.013 89.0581 79.9672 87.5363 81.7449 84.0502C83.0111 81.5674 83.1021 79.5946 82.2472 77.0114C82.2059 76.1953 81.9215 75.7845 81.5253 75.0958C80.8324 73.7626 79.7385 72.5824 78.2718 72.1175C77.1049 71.7512 75.8405 71.8609 74.7542 72.4228C73.3825 73.1388 72.1452 74.7497 71.5618 76.1773Z" fill="white"/>
<path d="M81.5253 75.0959C81.9215 75.7847 82.206 76.1955 82.2472 77.0115C81.4138 76.8364 79.9404 76.655 79.8149 75.6302C80.2593 75.1907 80.9054 75.101 81.5253 75.0959Z" fill="#E6EAE9"/>
<path d="M59.0554 93.7668C59.5529 93.831 59.974 94.0213 60.4519 94.1693C63.3124 95.0551 67.3421 95.1727 70.0443 93.7753C72.1823 94.8264 72.2674 95.9998 70.4214 97.4713C70.3349 97.5237 70.2551 97.5669 70.1629 97.6084C68.6862 98.272 60.1027 97.8727 58.5366 97.2696C58.0138 97.0683 57.4223 96.7218 57.219 96.166C57.1016 95.8451 57.1687 95.4832 57.2969 95.1759C57.6006 94.4478 58.3733 94.0597 59.0554 93.7668Z" fill="#020413"/>
<path d="M47.422 58.1053C48.8692 57.9601 51.1736 58.5067 51.2197 60.2689C50.6083 61.4595 47.3823 60.9442 46.2143 61.3526C45.0929 61.7447 43.9631 62.6215 43.0253 63.3181C42.4063 63.8137 41.8454 64.3911 41.0174 64.132C40.7691 63.9152 40.5159 63.7256 40.4961 63.3615C40.3272 60.2582 45.0451 58.4334 47.422 58.1053Z" fill="#020413"/>
<path d="M79.1685 57.811C81.6576 57.8296 86.1898 59.8025 85.2946 63.0931C85.2109 63.4005 84.8149 63.4941 84.5521 63.5667C84.0028 63.52 83.5998 63.089 83.1726 62.7248C82.6375 62.2861 81.3172 61.2143 80.7124 60.9897C79.8632 60.5479 76.5949 61.5122 75.9789 60.8187C74.1048 58.7082 78.4118 57.909 79.1685 57.811Z" fill="#020413"/>
<path d="M70.3894 130.442C71.1379 129.64 76.2759 128.684 77.6851 128.139C78.8598 127.685 79.773 127.103 80.857 126.598C80.8452 127.693 80.722 133.314 80.8337 134.002C82.1148 134.678 82.6251 134.573 83.9769 135.458C84.861 134.786 91.8267 135.867 93.222 136.004C99.8859 136.66 106.481 137.506 113.042 138.868C114.703 139.212 117.56 140.147 118.672 141.501C119.284 142.295 117.902 143.248 117.244 143.56C113.106 145.524 108.088 146.219 103.582 146.829C92.665 148.264 81.6696 149.019 70.6591 149.091C67.8802 149.115 65.1005 149.006 62.3229 148.985C52.7731 148.914 43.1875 148.843 33.7213 147.426C28.5621 146.654 23.3483 146.199 18.3113 144.778C16.1509 144.169 14.8798 143.643 13.749 141.648C16.1959 139.564 20.6797 138.548 23.8046 138.085C26.0664 137.751 35.9475 135.993 37.7901 136.693C39.4808 135.317 40.5658 134.477 42.7487 134.133C42.7456 132.446 42.6755 129.283 42.9148 127.718C46.0619 129.192 49.2154 129.762 52.5607 130.562C52.9188 130.648 53.0257 130.939 53.1824 131.233C53.5372 131.103 57.7608 131.673 58.5449 131.671C62.5142 131.662 66.5491 131.565 70.3894 130.442Z" fill="#E0DCF2"/>
<path d="M70.3895 130.442C71.138 129.64 76.276 128.684 77.6852 128.139C78.8599 127.685 79.7731 127.103 80.8571 126.598C80.8453 127.693 80.7222 133.314 80.8339 134.002C82.1149 134.678 82.6253 134.573 83.977 135.458C86.1676 136.955 87.1553 140.3 85.2531 141.813C82.9556 143.639 72.4659 143.462 70.5049 141.089C69.4417 139.803 70.3101 132.353 70.3895 130.442Z" fill="#4C268F"/>
<path d="M42.915 127.718C46.0621 129.192 49.2155 129.762 52.5609 130.562C52.919 130.648 53.0259 130.939 53.1825 131.233C53.8119 142.996 54.4426 143.018 42.0546 143.011C39.183 143.009 36.5381 141.984 37.1403 138.493C37.3293 137.665 37.2197 137.397 37.7903 136.693C39.481 135.317 40.5659 134.477 42.7489 134.133C42.7457 132.446 42.6756 129.283 42.915 127.718Z" fill="#4C268F"/>
<path d="M117.264 16.0623C117.552 16.045 117.84 16.0331 118.128 16.0269C123.702 15.9136 130.492 16.0339 134.646 20.2713C141.164 26.9203 141.232 41.488 134.79 48.2428C130.925 52.2959 124.911 52.5009 119.708 52.5586L118.729 53.1468C116.793 54.5284 114.915 57.2141 112.771 57.4655C112.021 57.5533 111.396 56.9908 110.87 56.5316C110.254 54.8501 110.322 52.9311 110.33 51.1639C103.104 49.597 100.983 43.9985 100.515 37.124C99.9774 29.2351 101.915 20.0114 110.32 17.1813C112.716 16.3745 114.749 16.21 117.264 16.0623Z" fill="#76C541"/>
<path d="M119.181 25.1223C124.056 24.547 128.357 26.3766 130.969 30.5765C127.448 35.2688 124.439 38.3706 120.334 42.5358C119.793 43.1152 119.346 43.4923 118.75 44.0008C115.875 42.6716 110.497 38.5285 109.828 35.0674C109.477 33.2556 111.655 29.6403 112.804 28.1938C114.645 25.8754 116.298 25.3942 119.181 25.1223Z" fill="white"/>
<path d="M114.641 31.092C115.175 31.2556 119.191 35.0989 119.211 35.4593C118.856 35.9013 119.007 35.8297 118.515 36.023C118.088 35.9324 117.698 35.3646 117.401 35.01C116.506 33.7295 115.431 32.646 114.385 31.4748L114.419 31.3782C114.684 31.6424 115.5 32.543 115.765 32.6048L115.752 32.2959C115.419 31.7377 115.131 31.5253 114.641 31.092Z" fill="#CBDFB6"/>
<path d="M17.2636 22.308C23.3059 19.0133 34.008 18.3124 40.5235 20.4271C46.3699 22.3245 51.2634 26.6782 54.3938 31.9199C54.8745 32.7246 56.9661 36.2189 57.3728 36.676C57.1617 37.2139 57.4791 38.2999 57.5385 38.9614C57.6447 39.3945 57.6816 39.4951 57.6179 39.9563C57.3489 40.3918 56.9674 40.4561 56.4926 40.5685C56.193 40.6386 55.8925 40.705 55.5912 40.7676C53.5579 41.2376 51.6529 41.8766 49.6418 42.4058C46.0342 43.3552 42.9558 43.4877 39.2665 43.2783C32.7062 42.3906 26.8135 39.1784 22.7474 33.8998C21.8984 32.7829 21.1136 31.6187 20.3969 30.4128C19.6528 29.1585 17.2098 24.434 16.8379 22.7478C16.8052 22.5997 17.1032 22.4306 17.2636 22.308Z" fill="#3CA84E"/>
<path d="M17.2637 22.308C23.306 19.0133 34.0081 18.3124 40.5236 20.4271C46.37 22.3245 51.2635 26.6782 54.3939 31.9199C54.8746 32.7246 56.9662 36.2189 57.3729 36.676C57.1618 37.2139 57.4792 38.2999 57.5386 38.9614L57.3502 39.0055C57.1055 38.9227 55.4475 37.2186 54.6932 36.6795C50.7883 33.8887 44.8734 30.9873 40.3951 29.1526C35.421 27.0917 30.2795 25.4602 25.0271 24.2761C22.9466 23.8037 18.8461 23.5083 17.2637 22.308Z" fill="#76C541"/>
<path d="M105.666 86.1552C108.512 85.5267 110.282 85.2386 111.996 82.4864C113.143 80.6466 113.797 79.0114 114.389 76.9004C115.192 74.1862 113.882 69.9543 117.588 69.0736C118.62 68.8287 119.469 68.9082 120.361 69.4802C123.773 71.6682 123.015 76.3906 122.375 79.8094C125.644 79.5499 128.589 79.9777 130.447 82.9884C131.234 84.2631 130.486 85.3527 130.556 86.6167C130.623 87.838 131.012 89.1921 131.027 90.4361C131.027 92.106 130.357 93.7151 130.016 95.3372C129.887 95.9512 129.839 97.0239 129.606 97.5316C127.21 102.759 121.01 101.766 116.724 100.538C111.734 102.786 107.76 104.238 102.081 103.345C102.108 102.929 103.313 99.2727 103.519 98.4594C104.574 94.4243 105.292 90.3088 105.666 86.1552Z" fill="#4C268F"/>
<path d="M117.935 86.0232L118.595 86.1532C119.042 86.6597 118.653 88.7696 118.63 89.8347C118.338 89.9133 118.288 89.896 117.981 89.8725C117.567 89.2922 117.884 86.8973 117.935 86.0232Z" fill="#3E1A76"/>
<path d="M57.3729 36.6759C57.9473 35.6725 58.0451 31.7175 58.4774 30.3511C59.9039 25.8423 62.3617 19.8623 66.8168 17.6396C68.3356 16.9042 69.6121 18.2329 70.3601 19.3978C70.5474 23.5316 68.9718 23.0597 66.416 25.7269C64.2425 27.9953 62.5373 31.48 61.5706 34.4506C61.2583 35.4118 61.1962 36.2398 60.9637 37.0843C60.6078 38.7044 60.7547 40.6849 60.4121 42.0735C59.5346 42.5912 57.6795 41.2546 56.8527 40.8765C56.5402 40.7337 55.9464 40.7617 55.5913 40.7675C55.8926 40.7049 56.1931 40.6385 56.4927 40.5684C56.9675 40.456 57.349 40.3917 57.6181 39.9563C57.6818 39.4951 57.6448 39.3944 57.5386 38.9614C57.4793 38.2998 57.1618 37.2139 57.3729 36.6759Z" fill="#3E1A76"/>
</g>
<defs>
<clipPath id="clip0_90_1053">
<rect width="145" height="158.594" fill="white"/>
</clipPath>
</defs>
</svg>
