<svg width="224" height="173" viewBox="0 0 224 173" fill="none" xmlns="http://www.w3.org/2000/svg">
<g clip-path="url(#clip0_90_1305)">
<path d="M102.39 44.4414C112.189 44.4889 119.451 46.8278 127.644 52.2019C136.931 58.2944 141.999 65.6878 145.575 76.1638C152.024 76.3685 157.551 78.0321 161.95 82.8829C169.504 91.2134 167.513 102.876 164.153 112.255C166.352 116.952 162.468 125.144 156.907 125.023C156.816 126.018 155.552 127.457 154.938 128.31C150.106 135.034 144.283 140.237 138.464 145.983C141.668 146.697 144.379 146.443 144.747 150.793C144.787 151.262 144.722 151.773 144.611 152.231C144.307 153.459 143.515 154.509 142.418 155.139C140.323 156.34 135.674 156.013 133.337 155.468C131.831 155.117 130.844 154.231 130.087 152.902C129.075 153.64 128.135 154.266 127.084 154.948C124.339 154.148 121.606 152.469 119.12 151.087C121.078 157.29 111.319 155.804 108.014 155.723C104.237 155.432 101.778 153.044 102.192 149.184C102.375 147.483 104.033 146.863 105.304 145.906L105.947 142.858L105.921 142.725C103.685 142.861 99.3656 142.345 96.9017 142.219C96.7824 143.613 96.3273 145.081 96.1261 146.471C96.1178 146.528 96.1555 146.849 96.1646 146.853C97.5334 147.387 98.898 147.805 99.9326 148.901C100.85 149.873 101.245 150.964 101.187 152.275C101.13 153.581 100.796 154.688 99.7893 155.553C99.4359 155.857 98.6892 156.324 98.2171 156.361C94.9575 156.617 91.1392 156.416 87.8643 156.362C86.0776 156.332 83.8095 155.728 82.7108 154.382C81.6524 153.086 81.511 151.51 81.6809 149.915C81.9756 147.151 83.3246 145.738 85.3251 144.093C85.5797 142.28 85.6228 139.919 85.7003 138.06C79.6478 135.037 74.8305 130.873 70.5525 125.672C61.9255 115.269 57.8694 101.821 59.3062 88.3836C60.5738 75.5329 67.0354 62.4 77.0564 54.1505C83.0345 53.122 89.8829 51.2752 95.0242 47.809C95.3946 47.5595 95.2545 46.3148 95.2192 45.9092L95.44 44.9077C96.2989 44.7114 97.5537 44.7411 98.463 44.7271C98.4459 46.7396 98.3861 48.0345 98.7471 50.0207C100.241 50.2533 100.593 50.1818 102.022 49.8419C102.154 48.0928 102.16 46.1471 102.39 44.4414Z" fill="#FB4D6C"/>
<path d="M102.39 44.4414C112.189 44.4889 119.451 46.8278 127.644 52.2019C136.931 58.2944 141.999 65.6878 145.575 76.1638C137.528 77.4553 132.196 79.7885 127.208 86.7441C127.066 86.942 126.93 87.1447 126.803 87.3523C126.426 87.7208 126.024 88.058 125.797 88.5282C125.642 81.2095 122.942 82.4561 117.906 83.8675C117.445 83.9966 116.117 83.8381 115.57 83.7803C112.316 81.8317 109.993 80.4781 105.958 79.789C92.337 77.4626 80.2968 89.9892 81.1917 103.292C81.3226 105.24 87.0612 108.823 88.6256 109.751C91.7597 111.53 95.3461 112.507 98.921 111.807C101.837 111.237 104.043 106.807 106.945 107.654C108.431 108.089 107.828 110.865 107.427 111.861C112.39 112.114 114.597 113.356 113.931 118.58C113.861 119.128 113.963 119.981 114.046 120.543C111.739 122.744 110.667 125.425 106.758 125.389C104.922 125.372 103.456 124.598 101.892 123.708C95.4838 124.601 94.5367 125.786 87.4866 124.133C91.1343 128.365 93.8548 132.403 98.1903 136.135C99.1938 136.999 105.83 142.488 105.921 142.725C103.685 142.861 99.3656 142.345 96.9017 142.219C96.7824 143.613 96.3273 145.081 96.1261 146.471C96.1178 146.528 96.1555 146.849 96.1646 146.853C97.5334 147.387 98.898 147.805 99.9326 148.901C100.85 149.873 101.245 150.964 101.187 152.275C101.13 153.581 100.796 154.688 99.7893 155.553C99.4359 155.857 98.6892 156.324 98.2171 156.361C94.9575 156.617 91.1392 156.416 87.8643 156.362C86.0776 156.332 83.8095 155.728 82.7108 154.382C81.6524 153.086 81.511 151.51 81.6809 149.915C81.9756 147.151 83.3246 145.738 85.3251 144.093C85.5797 142.28 85.6228 139.919 85.7003 138.06C79.6478 135.037 74.8305 130.873 70.5525 125.672C61.9255 115.269 57.8694 101.821 59.3062 88.3836C60.5738 75.5329 67.0354 62.4 77.0564 54.1505C83.0345 53.122 89.8829 51.2752 95.0242 47.809C95.3946 47.5595 95.2545 46.3148 95.2192 45.9092L95.44 44.9077C96.2989 44.7114 97.5537 44.7411 98.463 44.7271C98.4459 46.7396 98.3861 48.0345 98.7471 50.0207C100.241 50.2533 100.593 50.1818 102.022 49.8419C102.154 48.0928 102.16 46.1471 102.39 44.4414Z" fill="#6535B1"/>
<path d="M96.4762 73.2189C99.454 72.9621 102.469 73.4017 104.498 75.9096C104.907 76.4149 104.91 76.4842 104.837 77.0922C103.868 77.8568 99.6108 74.5871 95.6654 75.4272C93.0187 75.9584 91.9419 78.0754 90.2823 80.0307C89.7735 79.2271 89.1827 78.329 89.5114 77.3552C90.4008 74.7226 94.0219 73.4658 96.4762 73.2189Z" fill="#010005"/>
<path d="M126.972 71.8576C128.948 71.6129 131.117 71.8812 132.827 72.9353C133.696 73.4715 135.48 74.7857 134.744 75.9313C132.872 76.8186 131.914 74.8239 130.29 74.1875C129.8 73.9959 129.07 73.9881 128.54 73.9729C124.335 73.9555 124.013 76.5627 121.847 77.0364C121.457 76.7107 121.452 76.4836 121.345 75.9976C121.953 73.2809 124.459 72.1836 126.972 71.8576Z" fill="#010005"/>
<path d="M95.3775 63.9153C95.7576 63.9106 96.7795 63.971 97.011 64.2C99.5078 66.6701 95.9485 66.7272 94.664 66.9795C92.6703 67.3709 91.7178 67.8784 90.6909 69.3616C90.6043 69.6172 90.4596 69.7285 90.2714 69.9221C88.9016 69.9377 88.5316 68.0262 89.4909 67.0203C91.1716 65.2579 92.9539 64.2148 95.3775 63.9153Z" fill="#010005"/>
<path d="M126.287 62.0508C128.405 62.0287 131.63 63.4956 131.4 65.9737C131.11 66.4672 131.283 66.3244 130.753 66.5148C130.157 66.4609 129.766 66.0899 129.281 65.7289C126.757 64.0845 123.977 66.059 123.37 64.4724C123.61 62.6306 124.596 62.34 126.287 62.0508Z" fill="#010005"/>
<path d="M155.664 111.907C159.147 104.962 160.102 111.485 164.153 112.255C166.352 116.952 162.468 125.144 156.907 125.023C155.324 124.727 154.739 124.59 153.245 124C150.378 120.277 149.977 115.869 153.463 112.363C154.179 112.147 154.927 112.036 155.664 111.907Z" fill="#4D268E"/>
<path d="M105.947 142.858C106.781 142.698 108.511 143.953 109.201 144.441C111.938 146.378 114.741 148.193 117.573 149.986C117.894 150.188 118.92 151.014 119.12 151.087C121.078 157.29 111.318 155.804 108.014 155.723C104.237 155.432 101.778 153.044 102.192 149.184C102.375 147.483 104.033 146.864 105.304 145.906L105.947 142.858Z" fill="#4D268E"/>
<path d="M130.087 152.902C130.752 152.305 138.081 146.124 138.464 145.983C141.668 146.697 144.379 146.443 144.747 150.793C144.787 151.262 144.722 151.773 144.611 152.23C144.307 153.458 143.515 154.509 142.418 155.138C140.323 156.34 135.674 156.013 133.337 155.468C131.831 155.117 130.844 154.231 130.087 152.902Z" fill="#4D268E"/>
<path d="M115.571 83.7802C116.117 83.838 117.446 83.9965 117.906 83.8674C122.942 82.456 125.642 81.2094 125.797 88.5281C125.323 89.9024 124.621 92.7172 122.981 92.9501C122.821 92.3748 122.62 92.1687 122.256 91.6987L121.926 91.2574C120.734 88.3488 117.913 85.7488 115.571 83.7802Z" fill="#010005"/>
<path d="M112.819 91.3492C115.335 90.931 118.976 90.5769 121.487 91.3612C121.617 91.4015 121.767 91.3128 121.926 91.2576L122.256 91.6989C122.62 92.1689 122.821 92.375 122.981 92.9503L122.282 93.1501C116.865 97.8568 110.649 92.9989 112.819 91.3492Z" fill="#24205F"/>
<path d="M112.819 91.3492C115.335 90.931 118.976 90.5769 121.487 91.3612C121.617 91.4015 121.766 91.3128 121.926 91.2576L122.256 91.6989C121.665 91.7606 121.127 92.0101 120.486 92.0986C117.534 92.5068 115.546 92.5507 112.819 91.3492Z" fill="#862665"/>
<path d="M125.797 88.5282C126.024 88.058 126.426 87.7208 126.803 87.3523L127.148 89.4683C126.855 90.1759 124.883 93.5105 124.882 93.5411C123.376 94.1885 123.831 93.2157 122.282 93.15L122.98 92.9501C124.621 92.7173 125.323 89.9025 125.797 88.5282Z" fill="#C54690"/>
<path d="M127.148 89.4685C127.929 91.8702 127.282 92.6888 124.882 93.5413C124.883 93.5107 126.855 90.176 127.148 89.4685Z" fill="#862665"/>
<path d="M52.3434 41.5548C52.3691 41.5464 52.3947 41.5378 52.4203 41.5292C64.4329 33.6641 76.6311 29.8961 89.2752 39.6388C90.4068 40.5162 91.4814 41.4646 92.4924 42.4785C93.252 43.2396 94.4584 44.7935 95.4402 44.9076L95.2193 45.9091C95.2547 46.3147 95.3947 47.5593 95.0244 47.8089C89.883 51.2751 83.0347 53.1218 77.0565 54.1504C70.7035 54.0342 65.194 53.6464 59.6954 49.8242C57.9711 48.6254 52.8168 44.3681 52.0045 42.2227C51.9129 41.9809 52.153 41.7958 52.3434 41.5548Z" fill="#3EA654"/>
<path d="M52.3433 41.5548C52.3689 41.5464 52.3946 41.5378 52.4201 41.5292C64.4328 33.6641 76.631 29.8961 89.275 39.6388C90.4066 40.5162 91.4813 41.4646 92.4923 42.4785C93.2518 43.2396 94.4583 44.7935 95.44 44.9076L95.2192 45.9091C94.9256 46.1714 94.4162 46.4041 94.0432 46.162C91.8743 44.7373 89.6655 43.8113 87.1387 43.1919C84.5287 42.5521 81.8381 42.4546 79.2159 41.9767C70.6988 40.4243 62.2071 41.5268 53.6509 41.8642C53.3394 41.8763 52.6567 41.6603 52.3433 41.5548Z" fill="#84CB46"/>
<path d="M154.495 26.2196C158.337 25.857 160.311 27.424 161.105 31.1582C170.059 27.3272 174.056 36.7846 163.829 42.242C161.37 43.4262 157.768 44.2945 155.067 44.9545C154.376 43.7678 153.735 42.5536 153.143 41.3144C150.758 36.3068 147.941 29.2909 154.495 26.2196Z" fill="#FB4D6C"/>
<path d="M98.4629 44.7271C98.6374 44.5431 98.8383 43.2004 98.8126 42.8473C98.509 38.6703 103.723 23.8396 109.417 25.0014C110.185 25.1595 110.856 25.6252 111.272 26.2901C111.907 27.3124 111.936 28.5986 111.35 29.6489C110.864 30.5274 109.192 31.7143 108.382 32.463C104.901 35.6837 103.406 39.9556 102.39 44.4414C102.16 46.1471 102.154 48.0929 102.022 49.8419C100.593 50.1819 100.241 50.2533 98.747 50.0207C98.386 48.0346 98.4458 46.7396 98.4629 44.7271Z" fill="#4D268E"/>
<path d="M74.0437 14.0247C78.0002 13.7723 78.1148 18.3244 77.2082 21.1003C74.8538 28.3099 74.8592 28.0146 68.4815 25.337C65.6022 23.9922 60.8986 20.0794 65.9673 17.157C67.3124 16.3813 69.4198 17.2018 70.8089 17.8228C71.3913 15.9169 72.1015 14.7452 74.0437 14.0247Z" fill="#FB4D6C"/>
<path d="M164.225 58.4324C165.813 58.8911 166.175 62.0568 166.89 61.9823C169.908 61.6678 172.86 62.3901 171.464 66.1072C170.998 67.3464 168.994 68.1535 167.848 68.6228C166.161 69.1645 161.989 71.0431 161.543 68.2488C160.947 64.5186 159.361 59.8296 164.225 58.4324Z" fill="#FB4D6C"/>
<path d="M128.382 8.87646L128.913 8.97138C129.539 9.3527 130.195 12.0982 130.817 13.3234C132.057 14.3167 133.949 14.6052 134.45 15.7224C134.864 16.6428 131.726 17.5728 131.15 18.1091C130.158 19.0339 129.383 21.3187 128.844 22.5821C128.76 22.5971 128.439 22.5816 128.333 22.579C127.725 22.0817 127.881 20.3917 126.816 19.1082C125.517 17.5438 124.378 17.5022 123.051 16.1364C122.693 15.768 122.719 15.5416 122.757 15.126C123.486 14.1 124.459 13.95 125.656 13.5804C126.885 12.0909 127.443 10.5672 128.382 8.87646Z" fill="#E3DEF8"/>
</g>
<defs>
<clipPath id="clip0_90_1305">
<rect width="223.684" height="173" fill="white"/>
</clipPath>
</defs>
</svg>
