<svg width="145" height="159" viewBox="0 0 145 159" fill="none" xmlns="http://www.w3.org/2000/svg">
<g clip-path="url(#clip0_90_1022)">
<path d="M143.254 107.628C144.588 106.248 144.407 106.96 145 104.829V110.122C144.565 108.532 144.588 108.608 143.254 107.628Z" fill="#CBB7F0"/>
<path d="M82.6276 50.5771C84.693 50.8227 86.6093 50.9918 88.6485 51.4457C97.8678 53.4888 106.103 58.6428 111.97 66.0419C114.948 69.8541 117.413 74.0404 119.303 78.4939C119.113 79.0126 120.63 85.1598 120.813 86.3528C121.266 89.324 121.269 92.3499 121.723 95.3016C121.812 96.6078 121.525 98.7865 121.358 100.12C120.338 108.815 116.748 117.009 111.049 123.655C108.058 127.087 105.223 129.331 101.369 131.687C100.752 132.064 99.3346 133.018 98.6991 133.175C97.452 133.497 90.3681 135.821 89.8797 136.472C85.4714 138.051 71.8636 137.762 67.8259 135.457C67.0047 136.415 64.7484 138.957 64.456 139.968C62.8977 145.36 61.1675 148.924 55.0765 145.112C53.5943 144.129 49.8898 141.006 49.8321 139.043C49.7242 135.369 53.15 133.743 56.0404 135.879C56.8796 134.262 58.0732 132.604 58.9929 130.836C55.948 129.183 51.0042 124.458 48.7635 121.676C44.3092 116.144 41.1321 108.396 40.3433 101.353C40.2039 100.109 39.8714 98.472 39.9901 97.2497C33.6439 93.0837 30.1468 88.7089 26.8236 81.8537C26.0814 80.3225 25.6647 77.979 24.7444 76.578C23.9277 75.3348 21.8875 74.2141 20.8879 72.9425C20.3534 72.2624 19.5853 71.1545 19.6958 70.1564C19.7041 70.0447 20.1581 68.9633 20.157 68.9566C19.6717 66.1186 19.5266 64.8555 21.9288 62.8641L23.3985 64.2033C23.3444 63.5681 23.2527 62.8799 23.1809 62.2413C26.9918 58.0241 29.8602 61.4793 31.8792 65.0037C32.2858 64.302 32.6258 63.5428 33.352 63.1419C34.4369 62.5135 35.7615 62.7866 36.2974 63.9768C37.1847 65.9471 35.9386 68.7285 35.2872 70.6867C35.8541 72.9542 37.8781 76.1563 39.4582 77.852C40.2979 78.7532 41.2087 79.5906 41.9868 80.5624C42.3088 79.2063 42.9572 77.6201 43.549 76.3713C46.965 69.1617 51.0972 63.3178 57.5354 58.4822C58.6134 57.6725 60.2054 56.3876 61.4311 55.9464C61.476 55.964 61.521 55.9815 61.5661 55.9989C65.8851 57.13 70.9943 56.3808 75.2885 55.4068C76.3466 55.1667 77.4249 54.9577 78.4194 54.528C78.8119 54.3583 78.8558 54.0419 78.9879 53.6782L79.2483 55.1775C80.2939 55.2302 81.0633 55.2654 82.1054 55.2094C82.1542 54.0785 82.1721 51.4807 82.6276 50.5771Z" fill="#6735B3"/>
<path d="M89.1238 89.0692C88.9002 88.8001 88.7865 88.7456 88.8457 88.3491C89.4198 84.5083 92.3143 80.6742 96.6438 81.2219C98.5485 81.4772 100.27 82.4882 101.421 84.027C103.06 86.1863 103.884 89.9943 103.512 92.6659C102.593 99.2734 95.3486 103.414 90.311 97.5583L90.336 97.3139C90.4629 97.2737 90.6756 97.1978 90.7979 97.1773C88.2455 94.2362 88.0381 92.791 89.1238 89.0692Z" fill="#010107"/>
<path d="M89.124 89.0692C88.9004 88.8001 88.7867 88.7456 88.8459 88.3491C89.42 84.5083 92.3145 80.6742 96.644 81.2219C98.5487 81.4772 100.271 82.4882 101.421 84.027C103.06 86.1863 103.884 89.9943 103.513 92.6659C102.593 99.2734 95.3488 103.414 90.3111 97.5583L90.3362 97.3139C90.4631 97.2737 90.6758 97.1978 90.7981 97.1773C96.1982 102.584 102.244 91.1599 98.4966 87.3879C97.9262 87.5441 97.1045 87.838 96.5811 87.6499C96.6637 86.9123 97.3725 86.8443 97.977 86.9395C98.0851 86.7083 98.0589 86.5086 97.9381 86.2791C97.0011 84.4986 94.4543 83.8175 92.6852 84.5433C90.686 85.3637 89.8797 87.2717 89.124 89.0692Z" fill="#FEFEFE"/>
<path d="M67.1455 80.0188L67.2827 80.009C75.8023 79.4258 78.3826 98.7775 67.6622 99.3113C59.7665 99.2239 58.2927 89.6507 61.5661 84.0982C62.9687 81.7191 64.4821 80.7369 67.1455 80.0188Z" fill="#FEFEFE"/>
<path d="M67.162 83.8644C69.425 83.7964 69.957 84.0332 71.3981 85.7533C70.8935 86.597 70.6359 87.1131 70.2326 88.01C71.2603 88.0555 72.108 88.0987 73.1274 88.2263C73.7272 89.9825 73.7835 91.8789 73.2889 93.6676C72.697 95.784 71.4941 96.6548 69.717 97.6405C62.0419 100.16 59.2159 86.158 67.162 83.8644Z" fill="#010107"/>
<path d="M72.7872 100.583C74.2541 100.376 75.1859 100.607 76.529 101.086C79.5184 102.153 81.9 102.233 84.9774 101.402C85.9519 101.139 87.3297 100.807 88.3656 100.728C88.6266 100.893 88.8884 101.056 89.1365 101.241C89.8714 101.796 90.3499 102.625 90.463 103.539C90.7637 105.808 89.0887 108.282 87.7682 109.978C87.7364 110.021 87.7035 110.063 87.6695 110.104C86.3212 111.739 84.2497 112.767 82.1016 112.996C77.0505 113.535 72.4036 108.795 72.0395 103.945C71.9704 103.024 72.1606 101.303 72.7872 100.583Z" fill="#010107"/>
<path d="M79.2813 106.68C79.4643 106.666 79.6477 106.655 79.8312 106.647C82.7965 106.512 84.8714 107.179 87.0705 109.183C85.8201 111.074 84.7692 111.787 82.6055 112.424C79.1341 112.709 76.4806 111.864 74.873 108.538C76.1282 107.275 77.5894 106.867 79.2813 106.68Z" fill="#E52E59"/>
<path d="M67.035 70.6984C68.1434 70.6032 69.4748 70.6563 70.1572 71.6688C71.8312 74.1525 67.2256 73.2551 66.2067 73.5274C65.4019 73.7425 64.4987 74.3592 63.7969 74.811C63.2422 75.2397 62.3095 76.0444 61.5531 75.4631C60.913 74.9389 61.2829 73.8923 61.6765 73.3466C62.8964 71.6555 65.0976 71.0442 67.035 70.6984Z" fill="#010107"/>
<path d="M96.0133 72.1073C98.8421 71.8023 101.76 73.2669 103.043 76.0493C103.397 76.8179 102.322 77.544 101.58 77.6134C100.276 76.4911 99.2383 74.6795 97.302 74.6002C96.0351 74.5486 94.7437 75.1041 93.9233 74.0935C93.7808 72.8339 94.9718 72.3035 96.0133 72.1073Z" fill="#010107"/>
<path d="M42.1084 35.5934C47.0763 33.1797 57.4712 32.7535 62.7471 34.6368C68.8384 36.8112 73.0292 40.5325 76.371 46.0398C76.92 46.9445 78.5725 49.9959 78.9952 50.5664C78.8481 50.9889 78.8845 51.2299 78.9023 51.6679C78.9846 52.3683 78.9816 52.9779 78.9877 53.6782C78.8556 54.0419 78.8117 54.3583 78.4191 54.528C77.4247 54.9577 76.3464 55.1667 75.2883 55.4067C70.9941 56.3808 65.8849 57.13 61.5659 55.9989C61.5208 55.9815 61.4758 55.964 61.4309 55.9464C59.2565 55.3282 57.0573 54.7868 55.0212 53.6772C48.2147 49.9684 44.5607 44.5994 42.1394 37.3647C41.9004 36.6505 41.7778 36.2016 42.1084 35.5934Z" fill="#3DA64F"/>
<path d="M42.1084 35.5934C47.0763 33.1797 57.4712 32.7535 62.7471 34.6368C68.8384 36.8112 73.0292 40.5325 76.371 46.0398C76.92 46.9445 78.5725 49.9959 78.9952 50.5664C78.8481 50.9889 78.8844 51.2299 78.9023 51.6679C78.7373 51.7268 78.1885 51.8881 78.0472 51.786C72.2 47.5615 65.7488 43.9104 59.0519 41.1696C53.6853 38.9732 47.6262 37.5504 42.1084 35.5934Z" fill="#85CA4D"/>
<path d="M129.942 62.1306C131.213 58.7722 134.849 55.9049 137.173 59.7078C137.56 60.3405 137.723 60.392 138.304 59.9634C140.341 60.1887 141.158 63.3462 141.679 64.9943C141.328 65.1916 140.727 65.4541 140.547 65.7511C142.121 67.4225 142.421 69.0103 140.586 70.6212C139.547 71.5332 138.303 72.2215 137.361 73.2353C136.032 74.7425 135.577 77.3887 134.796 79.2338C134.226 80.5797 133.494 82.0781 132.771 83.337C130.722 86.8369 128.116 89.9797 125.056 92.6415C123.941 93.6023 122.79 94.4019 121.723 95.3016C121.269 92.3499 121.266 89.324 120.812 86.3528C120.63 85.1598 119.113 79.0126 119.302 78.4939C121.435 76.3975 125.523 71.9534 125.828 68.7792C126.016 66.8243 123.588 63.2054 125.493 61.2396C126.737 59.9567 128.068 60.2198 129.201 61.3538C129.452 61.6082 129.7 61.8671 129.942 62.1306Z" fill="#4A238D"/>
<path d="M133.207 70.2246C133.467 70.2848 133.652 70.4233 133.878 70.5646L133.927 70.8437C133.706 71.1787 133.472 71.2 133.091 71.3076C132.543 71.1396 132.55 71.2311 132.213 70.8632C132.524 70.4372 132.659 70.4789 133.207 70.2246Z" fill="#4A238D"/>
<path d="M89.8796 136.472C90.368 135.821 97.4519 133.497 98.6989 133.175C98.7586 135.185 98.8417 137.248 98.8451 139.255C100.589 139.517 102.371 140.269 103.744 141.377C105.864 148.853 98.3125 146.695 93.6513 146.97C88.0785 147.297 89.9912 139.601 89.8796 136.472Z" fill="#4A238D"/>
<path d="M78.9953 50.5665C79.5161 48.5888 79.8698 46.1927 80.5236 44.28C81.7462 40.7023 84.3754 36.3272 87.5547 34.1577C88.744 33.4599 90.8285 33.3844 91.4494 34.8377C92.0146 36.1601 92.0477 37.685 90.7801 38.5318C85.9306 41.7716 84.2347 44.821 82.6275 50.5773C82.172 51.4808 82.1541 54.0787 82.1053 55.2095C81.0632 55.2656 80.2938 55.2303 79.2482 55.1776L78.9878 53.6783C78.9817 52.978 78.9847 52.3684 78.9024 51.668C78.8846 51.2301 78.8482 50.9891 78.9953 50.5665Z" fill="#4A238D"/>
<path d="M11.9889 34.188C12.9716 35.1901 16.6091 39.2232 17.3803 40.249C17.4281 40.8678 17.4133 41.9332 17.4223 42.5799C19.7877 42.6681 20.5027 43.1313 22.582 44.2523L23.0375 44.5602C23.0021 44.7627 23.0088 44.8237 22.8974 44.9974C22.615 45.1876 20.5513 47.6219 20.1652 48.0321C18.4846 45.9157 16.7102 45.0668 14.2437 44.2342C14.1355 42.8659 14.0418 41.4965 13.9626 40.1263C12.6916 39.9281 10.729 39.7599 9.89098 38.6875C8.46921 36.8678 10.718 35.2171 11.9889 34.188Z" fill="#A086E2"/>
<path d="M113.192 17.3884C113.976 17.3409 114.426 17.4894 114.949 18.052C116.93 20.0777 113.839 20.7135 113.522 21.3217C112.008 24.2326 116.084 25.6343 113.06 29.0415C112.097 29.3998 110.135 29.735 108.99 30.0162C108.784 31.1401 108.845 32.1252 108.544 33.3197L108.269 33.4645C106.714 32.3938 106.279 31.8325 105.888 30.0245C107.458 28.0666 109.277 27.6336 111.536 26.9075C110.082 22.7604 109.027 20.239 113.192 17.3884Z" fill="#A086E2"/>
<path d="M10.4782 92.436C12.0724 92.5439 14.0437 92.6874 15.516 93.2834C16.8371 96.6021 15.2321 96.0712 12.7897 96.9635C12.6528 99.0156 12.6924 104.005 9.09238 99.4609C9.07038 99.4331 9.01797 99.2907 9.00021 99.25C8.30572 98.3414 7.96637 97.737 7.45166 96.7281C7.82468 96.2031 8.47916 95.3373 8.97872 94.9714C9.35253 94.3491 10.113 92.9512 10.4782 92.436Z" fill="#85CA4D"/>
<path d="M8.97872 94.9714C9.22798 95.0486 9.59824 95.1789 9.8434 95.2173C9.93412 95.6565 10.0826 96.2813 10.1398 96.7089C10.6173 97.6851 11.5728 97.1261 12.3988 96.8283L12.7897 96.9635C12.6528 99.0156 12.6924 104.005 9.09238 99.4609C9.07038 99.4332 9.01797 99.2907 9.00021 99.2501C8.30572 98.3414 7.96637 97.7371 7.45166 96.7281C7.82468 96.2031 8.47916 95.3373 8.97872 94.9714Z" fill="#CBB7F0"/>
<path d="M8.97872 94.9714C9.22798 95.0486 9.59824 95.1789 9.8434 95.2173C9.93412 95.6565 10.0826 96.2813 10.1398 96.7089C9.88871 97.3343 9.50233 98.787 9.26944 99.1715L9.00021 99.2501C8.30572 98.3414 7.96637 97.7371 7.45166 96.7281C7.82468 96.2031 8.47916 95.3373 8.97872 94.9714Z" fill="#9AA8C2"/>
<path d="M9.84326 95.2172C11.2756 94.2023 12.1372 95.546 12.3986 96.8282C11.5726 97.126 10.6172 97.685 10.1397 96.7088C10.0825 96.2812 9.93399 95.6564 9.84326 95.2172Z" fill="#ECF1C9"/>
<path d="M26.1034 10.6213C29.5004 10.4692 28.95 12.9799 28.8731 15.4445C29.3998 15.6048 29.924 15.7728 30.4458 15.9484C34.9481 17.509 33.647 22.7234 30.7637 21.6069C30.4942 21.0078 30.004 18.6925 29.9628 18.6469C29.0776 17.6627 27.5184 17.3941 26.3226 16.1547C26.2646 15.6235 26.2504 14.9988 25.9629 14.5645C25.3616 14.57 23.8497 14.8396 23.5942 14.1402C22.911 12.2698 24.6891 11.2397 26.1034 10.6213Z" fill="#85CA4D"/>
<path d="M124.394 38.042C125.965 38.245 126.715 39.4913 127.816 40.6622C126.716 41.8927 126.169 43.6886 124.674 44.7897C123.952 45.4512 122.751 45.4487 122.03 46.0336C121.425 46.5256 120.848 47.6579 120.458 48.3279C119.096 49.7949 118.181 47.9683 117.702 46.8166C118.869 44.4119 120.566 43.6447 122.922 42.902C124.994 42.2484 123.373 40.1604 124.335 38.1616L124.394 38.042Z" fill="#85CA4D"/>
<path d="M66.5502 4.22713C66.7412 4.21653 66.9822 4.22187 67.1074 4.40152C68.0435 5.74492 68.8959 6.63202 70.1948 7.6451C70.173 8.62923 69.9017 10.766 69.4786 11.6403C69.0213 12.5854 68.8219 12.6212 67.8782 12.9805C65.8192 12.6436 66.3876 10.6394 66.4856 8.98035C65.8058 8.81499 64.8998 8.47757 64.2195 8.24684C63.641 5.71445 64.4441 5.35651 66.5502 4.22713Z" fill="#835ADB"/>
<path d="M79.9408 19.0579C80.8038 19.6037 81.9761 22.8749 82.7227 24.0926C81.7504 25.0528 80.5795 26.2228 79.8664 27.3911C78.5594 25.4835 79.5063 25.328 76.8757 23.7287C78.0488 22.2193 78.6657 20.5651 79.9408 19.0579Z" fill="#A086E2"/>
<path d="M52.8971 17.8962C54.5632 18.5946 57.0214 21.585 56.0089 23.4176C55.8043 23.788 55.3298 23.8306 54.9681 23.9295C54.2011 23.9612 53.3093 23.9191 52.5327 23.9016C52.0479 22.5147 51.6809 20.9006 51.3184 19.4633C51.8518 18.8528 52.3043 18.442 52.8971 17.8962Z" fill="#CBB7F0"/>
<path d="M26.1612 41.4957C26.9562 41.4784 27.7455 41.3323 28.4106 41.8917C29.6839 42.9629 28.5215 46.2584 26.9428 46.3037C25.5106 46.3448 24.3101 45.0286 22.8974 44.9975C23.0088 44.8237 23.0022 44.7627 23.0376 44.5602L22.582 44.2524C23.9074 43.9816 24.7991 42.4203 26.1612 41.4957Z" fill="#F5F0FD"/>
<path d="M4.98951 68.3459L5.29387 68.42C6.07684 69.0878 6.91513 69.9418 6.35275 71.0463C6.05607 71.6288 5.27693 71.7687 4.68269 71.9497C4.44339 71.9782 4.2015 71.9843 3.96032 71.9956C3.38504 71.8005 3.02299 71.2399 2.6333 70.7586C3.41214 69.6953 3.91695 69.1153 4.98951 68.3459Z" fill="#A086E2"/>
</g>
<defs>
<clipPath id="clip0_90_1022">
<rect width="145" height="158.594" fill="white"/>
</clipPath>
</defs>
</svg>
