<svg width="145" height="159" viewBox="0 0 145 159" fill="none" xmlns="http://www.w3.org/2000/svg">
<g clip-path="url(#clip0_90_1130)">
<path d="M61.4455 37.4067C75.2255 38.3795 86.3351 44.8714 94.5399 55.8972C95.1211 55.3846 95.6466 54.8603 96.1972 54.3169C98.0088 52.227 101.18 48.8922 103.471 47.4977C105.042 46.1434 108.398 42.5557 110.018 41.8373C115.567 39.3757 124.829 48.8869 124.649 54.1001C124.548 57.0205 120.292 60.7189 118.153 62.853C115.907 65.3916 113.264 67.7197 110.867 70.1351C109.61 71.5408 108.274 72.8743 106.865 74.129C106.124 74.7934 104.491 76.1471 103.932 76.7931C104.378 79.6063 104.793 82.7359 104.768 85.5926C104.664 95.7954 101.132 106.02 95.0823 114.223C90.5687 120.344 84.0755 125.084 77.2442 128.324C76.6606 128.601 74.3258 129.561 73.7731 129.615C73.7533 131.214 73.637 132.753 73.6098 134.314C74.9516 134.431 75.818 134.525 77.0761 135.059L77.1851 135.041C80.3566 134.552 88.2409 135.816 91.6804 136.217C97.8463 136.937 104.046 137.194 110.079 138.848C111.435 139.22 112.648 139.764 113.781 140.609C114.177 140.904 114.698 141.305 114.778 141.825C114.812 142.049 114.737 142.246 114.602 142.427C112.131 145.756 95.2344 147.508 90.5406 147.965C77.8266 149.203 64.9105 149.323 52.1474 148.952C41.0412 148.631 29.9002 148.032 18.968 145.891C16.6459 145.436 12.6402 144.892 10.8409 143.449C10.2369 142.965 9.73449 142.315 9.29932 141.679C10.4201 140.564 12.1615 139.319 13.7206 138.972C16.7457 138.301 24.3796 136.076 27.0974 137.126C27.5456 134.611 29.5335 130.567 30.4596 128.104C30.7003 126.943 31.7838 123.73 32.2935 122.636C31.2571 121.586 29.8569 120.668 28.7704 119.549C15.6784 106.069 12.3907 85.9921 18.199 68.6489C22.1028 57.0496 30.4206 47.4561 41.3496 41.948C45.9178 42.821 51.3482 42.4571 55.8967 41.749C57.2999 41.6586 60.3801 42.6616 61.1203 42.1667C61.6194 41.4928 61.4276 38.5272 61.4455 37.4067Z" fill="#6435B2"/>
<path d="M61.4455 37.4067C75.2255 38.3795 86.3351 44.8714 94.54 55.8972C93.532 56.9506 92.2456 58.0486 91.1662 59.0681C89.0222 61.0702 86.9147 63.1111 84.8448 65.1898C84.1093 65.9236 82.575 68.0909 82.2216 68.4086L81.5091 68.7223C80.942 68.9076 80.3809 69.111 79.827 69.3324C78.4956 69.7039 77.0564 70.1576 76.0595 71.1736C74.2351 72.6794 74.1275 76.0774 71.8118 77.6727C71.349 77.9916 70.8404 78.3184 70.4401 78.7067C67.6627 81.6919 64.499 84.649 61.5893 87.5403C59.3544 89.8029 55.8453 93.397 53.5922 95.4461C52.1742 96.807 49.5802 99.2124 48.4091 100.746C48.7858 101.169 49.4845 101.968 49.9373 102.254C54.9923 105.448 48.3021 112.588 44.1016 112.155C42.3609 111.976 40.338 111.156 38.6416 110.473C37.6815 111.129 37.227 111.506 36.4592 112.431C34.8681 114.666 34.0883 116.848 33.3218 119.47C33.0479 120.406 32.7001 121.786 32.2935 122.636C31.2571 121.586 29.8569 120.668 28.7704 119.549C15.6784 106.069 12.3907 85.9921 18.199 68.6489C22.1028 57.0496 30.4206 47.4561 41.3496 41.948C45.9178 42.821 51.3482 42.4571 55.8967 41.749C57.2999 41.6586 60.3801 42.6616 61.1203 42.1667C61.6194 41.4928 61.4276 38.5272 61.4455 37.4067Z" fill="#6B39B7"/>
<path d="M70.4401 78.7067C70.3229 75.1266 70.8775 71.9689 73.3755 69.275C74.9198 67.6093 76.1734 66.9831 78.4889 66.8877C79.4052 66.8499 80.6012 66.8823 81.3236 67.5386C81.5716 67.9497 81.521 68.2406 81.5091 68.7224C80.942 68.9076 80.381 69.1111 79.827 69.3324C78.4957 69.704 77.0565 70.1577 76.0596 71.1737C74.2352 72.6795 74.1276 76.0775 71.8118 77.6728C71.3491 77.9917 70.8404 78.3185 70.4401 78.7067Z" fill="white"/>
<path d="M53.5923 95.4463C53.7176 94.3077 53.4291 92.783 53.4759 91.5641C53.7367 84.751 57.1667 87.3393 61.5894 87.5405C59.3545 89.803 55.8454 93.3972 53.5923 95.4463Z" fill="#000001"/>
<path d="M51.4217 85.6265L51.4804 85.6749L51.5015 85.9054C50.0184 87.2869 47.0686 86.9377 45.3958 86.0813C38.1906 82.3922 39.2169 69.1872 47.0264 66.8766C48.5759 66.4073 50.2503 66.5993 51.6536 67.4069C53.5845 68.506 55.8405 71.0782 56.3154 73.2557C56.4371 73.8139 56.7051 74.937 56.4179 75.4397L55.8777 75.5235C56.1517 75.5847 56.4555 75.5732 56.5714 75.8509C57.1909 77.3339 56.8964 79.548 56.4543 81.0219C55.8978 82.8774 53.3639 85.2864 51.4217 85.6265Z" fill="white"/>
<path d="M51.4215 85.6263C46.9656 84.5905 45.0811 80.7031 45.7308 76.3971C46.1819 73.4078 48.5683 69.8288 52.0389 70.6918C55.1408 71.4633 54.4485 73.0447 53.8458 75.4481C54.5125 75.4529 55.2092 75.4941 55.8775 75.5233C56.1515 75.5845 56.4553 75.573 56.5712 75.8507C57.1908 77.3337 56.8962 79.5478 56.4541 81.0217C55.8976 82.8772 53.3637 85.2861 51.4215 85.6263Z" fill="#060815"/>
<path d="M47.3063 57.6722C48.7711 57.6211 51.3796 57.9812 50.7759 60.1038C49.1791 61.0183 48.3189 58.5819 44.2604 61.4426C43.4068 62.131 42.8562 62.8327 41.7607 62.1986C41.2813 61.5184 41.5545 60.6552 42.0298 60.0484C43.2814 58.4503 45.3941 57.9404 47.3063 57.6722Z" fill="#000001"/>
<path d="M78.2112 57.806C78.6692 57.7654 79.1301 57.7716 79.5867 57.8243C81.342 58.0402 84.309 59.7513 84.3695 61.9759C84.3788 62.3164 84.1797 62.4277 83.9336 62.6039C83.1208 62.6932 82.668 62.2315 82.0306 61.7488C81.0692 61.008 80.4846 60.5668 79.3752 60.0789C78.2021 60.2243 76.3945 61.1257 75.6848 60.8739C75.5349 60.7284 75.3902 60.5811 75.3385 60.3724C74.8465 58.3842 76.8177 58.1259 78.2112 57.806Z" fill="#000001"/>
<path d="M103.471 47.4978C105.043 46.1435 108.398 42.5557 110.018 41.8374C115.567 39.3758 124.83 48.887 124.649 54.1002C124.548 57.0206 120.293 60.719 118.153 62.8531C115.907 65.3917 113.264 67.7198 110.867 70.1352C109.61 71.5409 108.274 72.8743 106.866 74.1291C106.124 74.7935 104.491 76.1472 103.932 76.7932C101.982 78.7953 99.3499 81.6099 96.9926 83.0755C96.4507 80.4734 96.5789 79.1616 93.1731 80.2522C91.7112 80.7202 89.6711 81.7705 88.8549 83.1281C88.4938 83.8176 88.1442 85.0774 87.7966 85.7507C86.8558 88.0748 87.5328 89.9257 89.0203 91.8337C88.4102 92.7749 87.8578 93.5752 87.0794 94.3882C85.4629 96.0763 83.706 97.6239 82.0184 99.2406C75.4971 105.488 69.3238 112.069 62.9758 118.487C61.5144 119.964 59.9362 121.309 58.4205 122.728C56.6249 124.39 54.3121 127.249 52.1378 128.27C50.2223 129.271 41.8844 132.859 40.8172 134.112C39.9892 134.236 39.162 134.365 38.3357 134.499C38.0292 134.192 37.133 132.951 36.7764 132.49C35.3863 130.691 32.7583 128.505 30.4597 128.104C30.7004 126.943 31.784 123.731 32.2936 122.636C32.7003 121.786 33.0481 120.407 33.3219 119.47C34.0884 116.848 34.8682 114.666 36.4594 112.432C37.2271 111.507 37.6817 111.13 38.6417 110.473C40.3381 111.156 42.361 111.976 44.1018 112.155C48.3022 112.588 54.9925 105.448 49.9374 102.254C49.4846 101.968 48.7859 101.169 48.4093 100.746C49.5803 99.2125 52.1743 96.8071 53.5923 95.4462C55.8455 93.3971 59.3545 89.803 61.5894 87.5404C64.4992 84.6491 67.6628 81.692 70.4402 78.7068C70.8405 78.3185 71.3492 77.9917 71.8119 77.6728C74.1277 76.0775 74.2353 72.6795 76.0597 71.1737C77.0565 70.1577 78.4958 69.704 79.8271 69.3325C80.3811 69.1111 80.9421 68.9077 81.5092 68.7224L82.2217 68.4087C82.5752 68.091 84.1094 65.9237 84.8449 65.1899C86.9148 63.1112 89.0223 61.0703 91.1663 59.0682C92.2457 58.0487 93.5322 56.9507 94.5401 55.8973C95.1212 55.3847 95.6467 54.8604 96.1974 54.317C98.0089 52.2271 101.18 48.8923 103.471 47.4978Z" fill="#FBB128"/>
<path d="M50.3068 121.691C51.0342 121.304 51.2571 121.045 51.788 120.419C58.2742 112.78 65.9359 106.305 73.021 99.255C75.0478 97.2382 77.033 95.176 79.0957 93.195C81.9564 90.4475 84.1824 87.5613 87.7965 85.7507C86.8557 88.0748 87.5327 89.9257 89.0202 91.8336C88.4101 92.7749 87.8577 93.5752 87.0793 94.3881C85.4628 96.0763 83.7059 97.6239 82.0183 99.2405C75.497 105.488 69.3237 112.069 62.9757 118.487C61.5143 119.964 59.9361 121.309 58.4204 122.728C56.6248 124.39 54.312 127.249 52.1377 128.27C51.1891 127.861 50.4328 125.764 50.2844 124.798C50.3385 124.302 50.2966 122.32 50.3068 121.691Z" fill="#FAA520"/>
<path d="M36.4594 112.431C39.0637 115.04 39.9857 114.286 42.6362 116.019C43.3969 117.891 43.6391 119.191 43.8804 121.216C45.9295 121.312 47.9804 121.364 50.0317 121.375C49.9859 122.639 49.9074 123.569 50.2845 124.798C50.4329 125.764 51.1892 127.861 52.1378 128.27C50.2223 129.271 41.8844 132.859 40.8172 134.112C39.9892 134.235 39.162 134.364 38.3357 134.499C38.0292 134.192 37.133 132.951 36.7764 132.49C35.3863 130.691 32.7583 128.505 30.4597 128.104C30.7004 126.943 31.784 123.73 32.2936 122.636C32.7003 121.786 33.0481 120.406 33.3219 119.47C34.0884 116.848 34.8682 114.666 36.4594 112.431Z" fill="#FBC18C"/>
<path d="M103.471 47.4978C105.042 46.1435 108.398 42.5557 110.018 41.8374C115.567 39.3758 124.829 48.887 124.649 54.1002C124.548 57.0206 120.293 60.719 118.153 62.8531C117.428 62.2487 115.292 59.6524 114.662 58.8636C112.589 56.2696 110.583 53.9683 108.364 51.5234C106.851 49.856 104.561 48.715 103.471 47.4978Z" fill="#FB4B67"/>
<path d="M96.1973 54.3168C98.0088 52.2269 101.18 48.8921 103.471 47.4976C104.561 48.7148 106.851 49.8558 108.364 51.5231C110.583 53.968 112.589 56.2693 114.662 58.8633C115.292 59.6522 117.428 62.2485 118.153 62.8528C115.907 65.3915 113.264 67.7195 110.867 70.135L110.538 69.6837C107.946 65.5797 104.035 61.9818 100.735 58.3982C99.5309 57.0904 97.98 56.0029 96.8376 54.5408L96.1973 54.3168Z" fill="#F3D16D"/>
<path d="M99.0847 53.1418C104.521 54.9931 109.857 60.7457 111.979 65.9994C111.805 66.6805 111.058 69.352 110.538 69.6839C107.946 65.5798 104.035 61.982 100.735 58.3984C99.5309 57.0905 97.9801 56.003 96.8376 54.541C97.1404 53.5896 98.2184 53.3898 99.0847 53.1418Z" fill="#F6E6C3"/>
<path d="M81.5091 68.7225L82.2216 68.4087C81.9184 69.0472 81.8925 68.8726 81.9603 69.4989C82.5954 70.5231 84.1332 71.4548 85.157 72.2142C83.349 75.6808 80.1786 79.3143 76.3439 80.5415C76.2242 80.5801 76.1033 80.6147 75.9814 80.6456C74.076 79.3168 74.1911 77.5935 71.8118 77.6728C74.1275 76.0776 74.2351 72.6795 76.0595 71.1737C77.0564 70.1578 78.4956 69.7041 79.827 69.3325C80.3809 69.1112 80.9419 68.9077 81.5091 68.7225Z" fill="#6B3E64"/>
<path d="M76.0596 71.1735C77.0564 70.1575 78.4957 69.7038 79.827 69.3323L79.8283 69.5498C79.2712 70.0527 76.8054 71.5526 76.0596 71.1735Z" fill="#2C2A57"/>
<path d="M30.4596 128.104C32.7582 128.505 35.3862 130.691 36.7763 132.49C37.1328 132.951 38.029 134.192 38.3356 134.499C39.1618 134.364 39.9891 134.235 40.817 134.112C37.4077 141.296 40.7285 143.474 47.7195 142.875C50.5157 142.635 56.039 144.07 56.4991 139.878C56.8773 136.434 55.0269 135.305 51.8301 135.018L51.7978 131.495C55.0582 131.907 60.2125 132.417 63.4583 131.982C64.9902 131.509 67.5514 131.446 69.2278 131.036C70.6433 130.69 72.4852 129.814 73.7731 129.615C73.7533 131.214 73.637 132.753 73.6098 134.314C74.9516 134.431 75.818 134.525 77.0761 135.059L77.1851 135.041C80.3566 134.552 88.2409 135.816 91.6804 136.217C97.8463 136.937 104.046 137.195 110.079 138.848C111.435 139.22 112.648 139.764 113.781 140.609C114.177 140.904 114.698 141.305 114.778 141.825C114.812 142.049 114.737 142.246 114.602 142.427C112.131 145.756 95.2344 147.508 90.5406 147.965C77.8266 149.203 64.9105 149.323 52.1474 148.952C41.0412 148.631 29.9002 148.032 18.968 145.891C16.6459 145.436 12.6402 144.892 10.8409 143.45C10.2369 142.965 9.73449 142.315 9.29932 141.679C10.4201 140.564 12.1615 139.319 13.7206 138.972C16.7457 138.301 24.3796 136.076 27.0974 137.126C27.5456 134.611 29.5335 130.567 30.4596 128.104Z" fill="#DDD9F2"/>
<path d="M63.4583 131.982C64.9903 131.509 67.5514 131.446 69.2278 131.036C70.6433 130.69 72.4852 129.814 73.7731 129.615C73.7533 131.214 73.637 132.753 73.6098 134.314C74.9517 134.431 75.818 134.525 77.0761 135.059C78.3453 135.881 79.3171 137.349 79.3368 138.878C79.3955 143.428 74.0032 142.591 71.0359 142.601C68.0742 142.611 65.5213 142.706 63.2813 140.559C62.7319 138.554 63.2946 134.251 63.4583 131.982Z" fill="#441D81"/>
<path d="M30.4596 128.104C32.7582 128.505 35.3862 130.691 36.7763 132.49C37.1329 132.951 38.0291 134.192 38.3356 134.499C36.987 135.55 28.3634 140.05 26.9139 139.815C26.5429 139.241 26.8865 137.765 27.0974 137.126C27.5456 134.611 29.5336 130.567 30.4596 128.104Z" fill="#2C2A57"/>
<path d="M20.3496 17.8741C23.0635 16.4439 31.5977 16.4532 34.7455 16.803C36.5293 17.0004 38.2905 17.365 40.006 17.8919C47.5527 20.2453 51.6774 24.7425 55.5624 31.5614C56.4943 33.1971 56.8831 35.5237 57.7398 36.8757C57.7949 37.5275 57.9004 38.4653 57.9182 39.0959C58.0323 40.0615 58.0178 40.5398 57.9829 41.5099C57.3058 41.5673 56.5556 41.609 55.8967 41.749C51.3482 42.4571 45.9178 42.821 41.3495 41.948C37.1791 40.9073 34.9901 40.2249 31.3743 37.6659C25.1707 33.2757 21.4966 25.2434 20.3496 17.8741Z" fill="#3BA74D"/>
<path d="M20.3496 17.8741C23.0635 16.4439 31.5977 16.4532 34.7455 16.803C36.5293 17.0004 38.2905 17.365 40.006 17.8919C47.5527 20.2453 51.6774 24.7425 55.5624 31.5614C56.4943 33.1971 56.8831 35.5237 57.7398 36.8757C57.7949 37.5275 57.9004 38.4653 57.9182 39.0959C57.3202 38.847 57.2899 38.2926 56.9015 37.9192C56.1873 37.2326 55.2521 36.5165 54.4784 35.8936C51.1683 33.1935 47.6552 30.7526 43.97 28.5923C38.8459 25.619 32.9866 23.2042 27.6473 20.5656C25.4266 19.4681 22.6423 18.9903 20.3496 17.8741Z" fill="#80C63F"/>
<path d="M57.7398 36.8757C58.0396 33.8479 58.4046 31.3518 59.6873 28.3388C60.8559 25.5936 66.5742 14.2047 70.6828 18.8218C73.4424 21.923 67.5957 25.0908 65.6971 27.4501C64.1801 29.3663 63.0097 31.5331 62.2386 33.8524C61.9901 34.6029 61.438 36.6564 61.4455 37.4067C61.4275 38.5272 61.6194 41.4928 61.1203 42.1667C60.3801 42.6616 57.2999 41.6586 55.8967 41.7489C56.5556 41.609 57.3058 41.5673 57.9829 41.5099C58.0178 40.5398 58.0324 40.0615 57.9182 39.0959C57.9004 38.4653 57.7949 37.5275 57.7398 36.8757Z" fill="#441D81"/>
</g>
<defs>
<clipPath id="clip0_90_1130">
<rect width="145" height="158.594" fill="white"/>
</clipPath>
</defs>
</svg>
