<svg width="224" height="173" viewBox="0 0 224 173" fill="none" xmlns="http://www.w3.org/2000/svg">
<g clip-path="url(#clip0_90_1201)">
<path d="M34.9783 56.3036C34.9396 49.7655 34.9971 43.0651 35.1461 36.5352C35.2518 31.9017 34.1819 23.0861 35.5103 18.9228C36.352 16.3139 38.1918 14.1442 40.628 12.8876C43.0677 11.6156 45.964 11.8078 48.6489 11.8114C55.2864 11.8204 61.9226 11.8331 68.5601 11.8197L119.367 11.7925L163.379 11.8101L176.134 11.8012C179.783 11.7999 184.841 11.4806 188.156 12.3837C192.954 13.6909 195.804 19.2881 195.458 23.9834C195.357 25.3515 195.429 27.0372 195.024 28.328C194.615 35.4708 194.899 43.0467 194.941 50.2368C194.954 52.7607 194.759 59.6542 195.068 61.8288L195.951 62.32C196.531 62.6555 196.453 62.4973 196.695 63.0268C196.637 64.4492 194.877 66.8624 194.167 68.24L193.865 68.6939C189.984 74.1603 186.695 77.1969 180.091 79.5586C178.869 79.9948 177.33 80.0545 176.08 80.4316C180.177 82.8384 182.412 85.0858 185.576 88.5453C196.668 100.668 198.431 118.785 192.427 133.717C194.307 136.407 194.779 139.579 196.022 142.477C196.894 144.509 198.918 144.84 198.213 147.736C196.713 153.908 193.402 154.824 188.93 150.704C186.418 154.771 183.811 150.644 185.632 147.511C186.387 146.209 185.512 145.436 185.154 144.194C182.451 147.042 177.354 150.959 173.814 152.523C173.912 153.867 174.019 155.088 174.291 156.408C174.941 159.568 176.011 161.306 175.478 164.572C174.754 165.695 174.135 166.255 172.745 166.464C170.114 166.86 164.438 167.004 161.975 166.493C158.615 162.939 161.148 160.16 165.282 159.541C164.976 158.147 164.801 156.93 164.65 155.505C162.385 155.885 160.098 156.114 157.802 156.191C157.089 156.209 152.951 156.098 152.652 156.247L152.494 155.818C151.999 155.44 144.34 153.662 143.574 153.702C143.568 154.923 143.892 158.061 143.45 158.846C143.079 159.067 142.863 159.052 142.436 159.096C141.815 159.296 141.47 159.435 140.876 159.707C140.846 159.662 140.582 159.374 140.554 159.375C138.075 159.474 135.596 159.503 133.114 159.471C129.555 159.425 125.998 159.617 122.44 159.624C97.4077 159.434 72.3742 159.439 47.3419 159.639C43.5057 159.682 40.7282 159.19 37.9144 156.429C34.4933 153.072 35.1228 146.562 35.1027 142.181L35.04 131.52C34.9967 131.124 35.0589 131.045 34.8509 130.797C34.7207 130.81 34.5902 130.821 34.4596 130.829C31.4742 130.997 25.3224 126.681 23.1771 124.684C5.44812 108.182 8.08527 82.0624 22.551 64.4809C25.3037 61.1356 30.632 56.5527 34.9783 56.3036Z" fill="#FCFBFD"/>
<path d="M156.227 74.667C156.896 76.1125 157.094 77.7268 157.031 79.3111C158.316 78.9749 158.871 78.9173 159.842 77.9886C160.807 78.0864 163.214 78.7068 164.231 78.9737C168.609 80.1217 171.507 80.7137 176.08 80.4314C180.177 82.8382 182.412 85.0857 185.576 88.5452C196.668 100.668 198.431 118.785 192.427 133.717C194.307 136.407 194.779 139.579 196.022 142.476C196.894 144.509 198.918 144.84 198.213 147.736C196.713 153.908 193.402 154.824 188.93 150.704C186.418 154.77 183.811 150.644 185.632 147.51C186.387 146.209 185.512 145.436 185.154 144.193C182.451 147.042 177.354 150.959 173.814 152.523C173.912 153.866 174.019 155.088 174.291 156.408C174.941 159.568 176.011 161.305 175.479 164.572C174.754 165.695 174.135 166.255 172.745 166.464C170.115 166.86 164.438 167.004 161.975 166.493C158.615 162.939 161.148 160.16 165.282 159.541C164.976 158.146 164.801 156.93 164.65 155.505C162.385 155.885 160.098 156.114 157.802 156.191C157.089 156.209 152.951 156.097 152.652 156.247L152.494 155.818C152 155.439 144.341 153.662 143.574 153.702C133.911 149.675 127.872 143.428 123.171 134.168C122.702 133.245 121.327 129.67 120.979 129.359C121.023 128.584 119.438 118.368 119.113 117.273C119.101 113.415 119.76 108.371 120.721 104.66C123.98 92.0851 134.436 80.1792 147.001 76.4509C148.881 75.8969 150.798 75.4759 152.738 75.1909C153.65 75.0552 155.488 74.9525 156.227 74.667Z" fill="#5F2EB0"/>
<path d="M154.811 108.322C158.629 101.88 165.389 101.732 167.679 109.561C169.03 114.183 166.735 120.214 161.976 121.384C158.87 122.453 153.641 118.367 154.814 116.583C153.953 113.564 154.202 113.98 154.303 111.009L154.119 110.83C154.286 109.835 154.49 109.267 154.811 108.322Z" fill="#FCFBFD"/>
<path d="M155.743 109.104C157.816 105.613 162.174 106.901 162.97 110.856C163.372 112.811 162.955 114.845 161.815 116.483C159.782 119.441 156.805 119.757 154.814 116.583C153.953 113.564 154.202 113.98 154.303 111.009L154.119 110.83C154.286 109.835 154.49 109.268 154.811 108.322C154.9 108.818 154.901 109.144 155.296 109.464L155.583 109.441L155.743 109.104Z" fill="#010206"/>
<path d="M154.811 108.323C154.9 108.819 154.901 109.144 155.296 109.464L155.583 109.441L155.743 109.104C156.254 109.88 156.601 110.279 157.203 110.966C156.462 110.92 154.909 110.74 154.303 111.009L154.119 110.83C154.286 109.835 154.49 109.268 154.811 108.323Z" fill="#E5EADB"/>
<path d="M130.845 110.839C130.477 110.566 130.229 110.425 130.191 109.901C129.954 106.634 132.889 103.281 136.089 102.853C140.194 102.303 142.416 107.23 142.747 110.642C143.03 113.386 142.2 116.129 140.443 118.255C138.248 120.876 135.294 121.264 132.631 119.018C131.748 118.274 130.515 116.573 130.354 115.387C130.445 115.107 130.43 115.061 130.666 114.883C130.462 114.074 129.843 111.845 130.237 111.129C130.366 110.896 130.543 110.921 130.845 110.839Z" fill="#FCFBFD"/>
<path d="M130.845 110.839C132.102 109.126 130.553 109.188 131.691 107.655C135.031 103.16 138.125 108.577 138.962 111.663C138.25 113.875 137.659 115.986 135.801 117.504C133.148 117.97 131.667 117.614 130.666 114.883C130.462 114.074 129.843 111.844 130.237 111.129C130.366 110.896 130.543 110.921 130.845 110.839Z" fill="#010206"/>
<path d="M140.764 123.021C143.621 122.73 145.202 125.422 148.841 124.935C150.387 124.727 153.718 122.74 154.316 123.177C154.507 123.777 154.294 124.472 154.164 125.102C154.057 125.318 153.944 125.534 153.787 125.718C152.774 126.911 144.847 126.81 142.851 126.958C141.482 125.88 140.114 124.942 140.764 123.021Z" fill="#010206"/>
<path d="M136.165 94.1222C136.81 94.0526 137.318 94.0183 137.956 94.1922C139.069 94.4955 140.022 95.9514 139.665 97.0673C138.816 97.6617 137.003 96.846 136.18 96.4562C135.753 96.254 135.204 96.6422 134.802 96.8308C134.493 97.0641 134.18 97.2927 133.864 97.5162C133.164 98.008 132.058 98.7003 131.481 97.7215C131.543 95.6368 134.461 94.5708 136.165 94.1222Z" fill="#010206"/>
<path d="M161.006 95.1394C163.592 94.9431 165.896 95.84 167.206 98.2786C167.492 98.8104 167.432 99.1377 167.24 99.6751C166.712 99.8928 166.816 99.8075 166.15 99.6362C165.85 99.3269 165.535 99.0331 165.205 98.7555C162.616 96.6075 161.92 98.5239 159.327 97.3512C159.158 97.2749 159.224 96.9691 159.23 96.754C159.848 95.6682 159.86 95.5766 161.006 95.1394Z" fill="#010206"/>
<path d="M34.9783 56.3036C34.9396 49.7655 34.9971 43.0651 35.1461 36.5352C35.2518 31.9017 34.1819 23.0861 35.5103 18.9228C36.352 16.3139 38.1918 14.1442 40.628 12.8876C43.0677 11.6156 45.964 11.8078 48.6489 11.8114C55.2864 11.8204 61.9226 11.8331 68.5601 11.8197L119.367 11.7925L163.379 11.8101L176.134 11.8012C179.783 11.7999 184.841 11.4806 188.156 12.3837C192.954 13.6909 195.804 19.2881 195.458 23.9834C195.357 25.3515 195.429 27.0372 195.024 28.328L194.846 28.0729L194.024 28.0134C193.228 27.6186 182.985 27.8532 181.363 27.858L158.35 27.8609L72.9736 27.9806L46.4027 27.8609C43.1117 27.8674 39.6633 28.0759 36.4544 28.0538L36.6504 113.063C36.6368 121.556 36.2826 130.08 36.3387 138.577C36.3469 141.581 36.3189 144.51 36.411 147.516C36.5149 150.917 37.0416 152.83 39.4324 155.291C43.0162 158.98 47.6671 158.2 52.3359 158.311C53.5221 158.339 54.7704 158.31 55.9802 158.309L75.0937 158.298L114.398 158.306C119.443 158.317 124.493 158.544 129.536 158.47C131.472 158.441 140.783 157.721 141.608 158.459C141.775 158.609 141.918 158.796 142.056 158.972L142.436 159.096C141.815 159.296 141.47 159.435 140.876 159.707C140.846 159.662 140.582 159.374 140.554 159.375C138.075 159.474 135.596 159.503 133.114 159.471C129.555 159.425 125.998 159.617 122.44 159.624C97.4077 159.434 72.3742 159.439 47.3419 159.639C43.5057 159.682 40.7282 159.19 37.9144 156.429C34.4933 153.072 35.1228 146.562 35.1027 142.181L35.04 131.52C34.9967 131.124 35.0589 131.045 34.8509 130.797C34.7207 130.81 34.5902 130.821 34.4596 130.829C31.4742 130.997 25.3224 126.681 23.1771 124.684C5.44812 108.182 8.08527 82.0624 22.551 64.4809C25.3037 61.1356 30.632 56.5527 34.9783 56.3036Z" fill="#B7A4F2"/>
<path d="M34.9783 56.3035C35.3757 61.1647 35.155 69.1741 35.1483 74.2698L35.0716 107.06L35.1493 124.487C35.1466 125.991 35.2246 130.326 35.04 131.52C34.9967 131.124 35.0589 131.045 34.8509 130.797C34.7207 130.81 34.5902 130.821 34.4596 130.828C31.4742 130.997 25.3224 126.681 23.1771 124.684C5.44812 108.182 8.08527 82.0622 22.551 64.4808C25.3037 61.1355 30.632 56.5525 34.9783 56.3035Z" fill="#EFECF9"/>
<path d="M55.311 18.1766C56.131 17.8812 57.0467 18.0516 57.7053 18.6225C58.364 19.1933 58.6628 20.0756 58.4868 20.9293C58.3108 21.7828 57.6874 22.4748 56.8566 22.7387C55.6058 23.1357 54.2674 22.4586 53.8462 21.2156C53.4252 19.9727 54.0765 18.6215 55.311 18.1766Z" fill="#FCFBFD"/>
<path d="M46.8468 18.0693C49.8186 18.0265 51.0524 21.3745 47.8249 22.9915C44.3221 22.5401 43.8285 20.043 46.8468 18.0693Z" fill="#FCFBFD"/>
<path d="M64.5386 18.0677C65.0273 18.0503 65.5132 18.0268 65.9797 18.1847C66.6286 18.3996 67.1593 18.874 67.4453 19.4949C68.1124 20.9397 67.3377 22.1832 65.9668 22.7782C62.522 22.9477 61.8405 19.7448 64.5386 18.0677Z" fill="#FCFBFD"/>
<path d="M195.951 62.3198C196.531 62.6553 196.453 62.4972 196.695 63.0267C196.637 64.449 194.877 66.8623 194.167 68.2398L193.865 68.6938C189.984 74.1602 186.695 77.1968 180.091 79.5585C178.869 79.9947 177.33 80.0543 176.08 80.4314C171.507 80.7137 168.609 80.1218 164.231 78.9738C163.214 78.7068 160.807 78.0865 159.842 77.9887C158.987 77.6107 159.784 76.0302 159.716 75.1962C159.928 75.2266 160.672 76.0645 160.973 76.3129C165.911 72.1739 172.214 69.6355 178.129 67.1204C181.006 65.8962 194.682 63.7332 195.951 62.3198Z" fill="#3BA550"/>
<path d="M95.3064 110.927C95.8345 109.647 98.5926 104.599 100.198 104.336C101.335 104.15 103.625 106.388 104.629 107.275C105.321 106.116 106.897 104.579 108.171 106.021C109.387 107.396 109.216 109.287 109.126 110.988C111.577 115.402 114.348 116.555 119.113 117.273C119.437 118.368 121.023 128.584 120.979 129.359C119.192 129.43 116.403 128.946 114.641 128.508C109.309 127.183 105.984 123.114 103.33 118.502C99.9429 117.82 97.7166 117.47 95.8094 114.282C95.9702 112.66 96.1008 112.365 95.3064 110.927Z" fill="#4B248D"/>
<path d="M159.646 75.0702C160.619 74.6415 162.496 71.175 163.309 70.1674C163.902 69.4311 164.446 68.768 165.117 68.0486C166.861 66.2027 168.846 64.6013 171.02 63.2879C178.131 59.0276 186.22 59.5956 194.01 61.5527L195.068 61.8286L195.951 62.3197C194.683 63.7331 181.006 65.8961 178.129 67.1203C172.215 69.6354 165.911 72.1738 160.973 76.3128C160.672 76.0644 159.928 75.2264 159.716 75.196L159.646 75.0702Z" fill="#80CB3F"/>
<path d="M156.227 74.6669C154.724 70.0711 153.321 66.322 149.268 63.3983C148.075 62.5377 147.652 61.2949 148.31 59.9366C148.929 58.6604 150.392 57.6425 151.765 58.5494C155.165 60.7948 157.2 65.1643 158.511 68.8885C159.058 70.4828 159.215 73.9864 159.646 75.0702L159.716 75.1961C159.784 76.0302 158.987 77.6106 159.842 77.9886C158.871 78.9173 158.316 78.9749 157.031 79.3111C157.094 77.7267 156.896 76.1124 156.227 74.6669Z" fill="#4B248D"/>
<path d="M194.024 28.0134L194.846 28.0729L195.024 28.328C194.615 35.4708 194.899 43.0467 194.941 50.2368C194.955 52.7607 194.759 59.6542 195.068 61.8288L194.01 61.553C193.562 55.0764 193.892 47.6939 193.78 41.1153C193.738 38.6414 193.617 30.1217 194.024 28.0134Z" fill="#BDAAF5"/>
<path d="M73.6386 42.0724C73.9366 42.0682 74.2348 42.0692 74.533 42.0754C88.5017 42.3687 99.5663 53.9692 99.199 67.936C95.0178 67.9144 90.2969 67.9825 86.1551 67.7543C85.0015 71.1423 85.5252 72.3315 82.9159 75.4217C84.0346 76.4727 90.8816 84.3229 91.5071 85.4087C84.2904 92.374 73.6308 94.3976 64.3636 90.5614C55.0967 86.7253 48.9861 77.7595 48.804 67.7316C50.5052 67.2924 59.7886 67.1584 62.1425 67.0477C62.8198 61.8368 64.8384 57.6204 70.234 55.9423C71.1879 55.6456 72.8172 55.4858 73.6327 55.0464C73.5722 53.7027 73.634 51.8574 73.6365 50.4734C73.5468 49.6697 73.5965 49.0407 73.6362 48.2407L73.6386 42.0724Z" fill="#FCFBFD"/>
<path d="M48.804 67.7317C50.5052 67.2925 59.7886 67.1585 62.1425 67.0479C62.2718 78.8269 74.6041 83.4856 82.9159 75.4218C84.0346 76.4728 90.8816 84.323 91.5071 85.4088C84.2904 92.3741 73.6308 94.3977 64.3636 90.5615C55.0967 86.7254 48.9861 77.7597 48.804 67.7317Z" fill="#916CE1"/>
<path d="M73.6386 42.0724C73.9366 42.0682 74.2348 42.0692 74.533 42.0754C88.5017 42.3687 99.5663 53.9692 99.199 67.936C95.0177 67.9144 90.2969 67.9825 86.155 67.7543C86.2603 65.7869 84.7329 61.6085 83.3793 59.9632C80.691 56.6951 78.8076 55.9141 74.782 55.3339L74.5735 55.3665C74.2283 55.2221 73.9923 55.1525 73.6326 55.0464C73.5722 53.7027 73.634 51.8574 73.6365 50.4734C73.5468 49.6697 73.5965 49.0407 73.6362 48.2407L73.6386 42.0724Z" fill="#B4CDB1"/>
<path d="M73.6386 42.0724C73.9366 42.0682 74.2348 42.0692 74.533 42.0754C73.9821 44.2609 74.2482 45.8584 73.6362 48.2407L73.6386 42.0724Z" fill="#E5EADB"/>
<path d="M73.6365 50.4734C74.6193 51.9897 73.8307 54.6455 74.782 55.3339L74.5735 55.3665C74.2283 55.2221 73.9923 55.1525 73.6326 55.0464C73.5722 53.7028 73.634 51.8574 73.6365 50.4734Z" fill="#E5EADB"/>
<path d="M48.8038 67.7318C48.5502 53.7781 59.6839 42.2747 73.6384 42.0725L73.6361 48.2409C73.5964 49.0408 73.5467 49.6698 73.6364 50.4735C73.6339 51.8575 73.572 53.7029 73.6325 55.0465C72.817 55.4859 71.1877 55.6457 70.2338 55.9424C64.8382 57.6205 62.8197 61.8369 62.1424 67.0479C59.7885 67.1585 50.5051 67.2925 48.8038 67.7318Z" fill="#5F2EB0"/>
<path d="M64.5627 117.911C67.5265 117.919 70.4902 117.956 73.4531 118.022C73.6641 127.652 73.963 136.992 73.7511 146.673C70.8113 146.797 67.4875 146.752 64.5213 146.767C64.1191 143.07 64.4309 135.881 64.371 131.972C64.327 129.115 64.1569 120.437 64.5627 117.911Z" fill="#BDAAF5"/>
<path d="M83.3762 123.903C83.5525 123.879 83.7298 123.862 83.9075 123.852C85.0687 123.794 87.2148 123.671 88.1087 124.516C89.2727 125.617 88.8437 143.474 88.8333 146.622C87.6022 146.634 86.3398 146.681 85.1063 146.713C82.9489 146.854 81.6029 146.821 79.4615 146.589C79.1829 143.276 79.2554 128.27 79.9831 125.282C80.9827 124.04 81.9089 124.033 83.3762 123.903Z" fill="#EFECF9"/>
<path d="M86.155 67.7544C90.2968 67.9826 95.0177 67.9146 99.1989 67.9362C99.0252 74.5438 96.263 80.8186 91.507 85.4088C90.8815 84.323 84.0345 76.4728 82.9158 75.4218C85.5251 72.3316 85.0014 71.1424 86.155 67.7544Z" fill="#5F2EB0"/>
<path d="M49.7088 133.224C52.1294 132.989 56.3887 133.116 58.9423 133.124C59.2293 137.688 59.1188 142.236 59.0535 146.806C55.9303 146.847 52.8067 146.835 49.6839 146.771C49.6326 142.5 49.4547 137.437 49.7088 133.224Z" fill="#BDAAF5"/>
<path d="M143.574 153.702C144.341 153.662 152 155.439 152.494 155.818L152.652 156.247C152.902 158.813 153.349 161.852 152.813 164.359C150.192 166.888 146.753 166.259 143.413 166.365C139.127 166.5 136.964 163.122 140.51 160.008C140.628 159.903 140.75 159.803 140.876 159.707C141.47 159.435 141.815 159.296 142.436 159.096C142.863 159.052 143.079 159.067 143.45 158.845C143.892 158.061 143.568 154.923 143.574 153.702Z" fill="#4B248D"/>
<path d="M208.581 125.128C209.392 125.587 209.772 127.607 210.038 128.545C210.788 128.859 211.545 129.289 212.266 129.678C212.528 130.039 213.001 130.945 213.239 131.37C212.486 132.254 211.44 133.203 210.79 134.078C210.202 134.868 209.57 137.69 208.74 138.17L208.117 137.925C207.733 136.88 207.054 134.819 206.338 134.048C205.953 133.635 203.233 132.686 203.123 131.808C202.792 129.179 205.179 128.959 207.145 128.664C207.483 127.272 207.622 126.208 208.581 125.128Z" fill="#EFECF9"/>
<path d="M16.0241 42.1602C16.6882 42.5396 20.4801 47.3274 21.1209 48.1445C17.9363 50.6652 18.4659 50.936 16.5147 54.1254C16.2354 53.8145 15.0786 50.9054 14.7554 50.2153C13.6401 49.5995 12.5273 49.1156 11.7086 48.1613C11.5609 47.437 11.9175 47.2103 12.513 46.8082C14.4909 45.4722 15.0256 44.2313 16.0241 42.1602Z" fill="#EFECF9"/>
<path d="M208.073 42.2866C208.261 42.4162 209.654 44.2234 209.913 44.5371C210.868 45.6949 211.488 46.1627 212.704 47.0113L209.984 48.8182C209.41 50.0752 209.007 52.3238 208.245 53.0814C207.627 51.8841 207.725 50.9751 207.445 49.7846C207.075 48.2085 203.802 49.7505 203.378 47.9186C203.686 46.6868 206.781 44.1063 208.073 42.2866Z" fill="#EFECF9"/>
<path d="M194.167 68.24C194.368 68.5078 194.469 68.5936 194.76 68.7571C194.888 69.1344 195.16 99.0554 195.051 101.433C194.821 100.991 194.797 92.7487 194.856 91.8379L194.65 91.4379L194.309 91.363C193.481 92.3985 194.301 98.2609 194.703 99.6449L194.512 99.738C192.652 93.8023 194.476 80.9349 193.778 74.3688C193.648 73.1462 194.238 69.5189 193.865 68.6939L194.167 68.24Z" fill="#BDAAF5"/>
</g>
<defs>
<clipPath id="clip0_90_1201">
<rect width="223.684" height="173" fill="white"/>
</clipPath>
</defs>
</svg>
