<svg width="145" height="159" viewBox="0 0 145 159" fill="none" xmlns="http://www.w3.org/2000/svg">
<g clip-path="url(#clip0_90_845)">
<path d="M69.1091 38.0364C81.8145 38.4016 91.9676 42.7606 100.631 52.1713C105.784 57.7683 108.949 63.6076 111.36 70.8429C111.808 72.1863 112.725 76.7262 113.124 77.5058C113.062 81.4813 114.009 85.6125 113.568 89.6305C113.493 90.3194 113.459 90.7874 113.719 91.4474C113.027 91.9237 112.35 95.1645 112.115 96.1055C109.576 106.279 104.072 115.923 95.6528 122.345C94.5206 123.209 91.5284 124.996 90.7633 125.86C89.1166 126.04 86.9667 127.32 85.3398 127.903C84.7021 128.132 80.7157 129.399 80.4916 129.699C79.8907 129.987 77.9123 130.257 77.1439 130.426C71.2774 131.717 65.8053 131.719 59.8965 130.479C59.9201 132.983 60.7704 139.766 59.5556 141.596C58.9126 142.566 58.0151 143.192 56.8726 143.401C55.0649 143.734 49.1547 143.836 47.3925 143.495C46.8598 143.391 46.3845 143.179 45.9425 142.865C45.0283 142.216 44.3711 141.198 44.2001 140.086C44.0274 138.963 44.3578 138.11 45.031 137.223C46.3259 135.515 47.7731 134.911 49.8263 134.62C49.8566 132.156 50.0968 129.628 50.1255 127.096C40.9959 123.307 34.7598 115.913 30.1763 107.409C26.822 109.399 23.5386 111.036 20.0448 112.724C18.7131 113.367 17.4429 116.119 15.5611 116.205C14.5388 116.252 14.1644 115.356 13.3184 115.008C11.8334 115.628 10.8533 116.082 9.24675 116.227C7.70638 115.399 5.42056 113.216 4.60791 111.604C4.80508 110.467 5.19534 109.497 5.45697 108.413C5.62152 107.731 5.3207 105.469 5.84707 105.047C8.06072 103.271 13.7476 103.403 16.1067 102.379C17.7523 101.665 20.3915 98.9776 21.7331 97.8109C22.8524 96.8377 24.5203 95.4855 25.4733 94.4924C25.584 92.2814 24.921 88.4637 24.8961 85.9711C24.8186 78.2024 26.5081 70.3346 29.8545 63.3406C32.9837 56.6999 37.5907 50.8634 43.323 46.2776C44.4239 45.4032 46.1533 44.0618 47.4638 43.6017C51.6145 45.1975 60.4037 42.9453 64.7047 41.9055L65.2814 41.9854C66.1286 43.0193 67.3407 42.8034 68.556 42.7679C68.5697 41.6825 68.6105 38.865 69.1091 38.0364Z" fill="#6836B4"/>
<path d="M62.1545 88.7052L62.4157 88.7304L62.5586 88.9048C62.1521 90.0855 59.8544 91.0005 58.7114 91.2175C53.7554 92.1144 49.7673 88.3497 49.11 83.5684C48.3823 78.2749 50.3115 72.2681 56.2738 71.2662C60.8496 70.4975 63.6829 74.2652 64.3874 78.3193C64.4488 78.6728 64.4095 78.7116 64.1981 78.9627C64.7438 79.4136 64.9311 80.4378 64.9885 81.1098C65.2104 83.7103 64.6799 85.7485 62.9964 87.7597C62.724 88.082 62.4432 88.3973 62.1545 88.7052Z" fill="#010206"/>
<path d="M62.1545 88.7052L62.4157 88.7304L62.5586 88.9048C62.1521 90.0855 59.8544 91.0005 58.7114 91.2175C53.7554 92.1144 49.7673 88.3497 49.11 83.5684C48.3823 78.2749 50.3115 72.2681 56.2738 71.2662C60.8496 70.4975 63.6829 74.2652 64.3874 78.3193C64.4488 78.6728 64.4095 78.7116 64.1981 78.9627C63.5182 78.7524 62.325 78.4749 61.8731 78.0312C61.5031 77.0872 63.287 74.9983 61.5466 74.4116C52.8141 71.4676 51.5059 86.3491 58.2021 89.0602C59.3256 89.5038 60.5809 89.4731 61.6812 88.9749C61.8489 88.901 62.0027 88.807 62.1545 88.7052Z" fill="#FCFBFC"/>
<path d="M93.2755 87.8719L93.3079 87.9146C93.3905 88.9258 90.5463 90.18 89.5944 90.2455C86.8329 90.5069 84.0138 88.7769 82.3873 86.5952C78.8368 81.8329 80.575 70.7535 87.5117 70.2273C89.4135 70.0891 91.2902 70.7256 92.7156 71.9923C94.5482 73.5936 95.4142 76.0174 95.5628 78.396C96.3296 80.0909 96.123 82.8452 95.4947 84.6203C94.7811 86.6364 94.0748 86.7379 93.2755 87.8719Z" fill="#FCFBFC"/>
<path d="M93.2756 87.8721C91.2172 88.6736 89.1625 88.0979 87.6177 86.5725C84.4373 83.4322 84.5292 77.7888 87.5573 74.5891C88.8783 73.1933 90.8668 72.7684 92.5441 73.791C92.9354 74.0296 93.3599 74.4775 93.6856 74.8073C93.6279 75.7806 93.0625 76.9014 93.444 77.6757C93.9539 78.1729 94.8296 78.2462 95.5629 78.3963C96.3297 80.0911 96.1231 82.8454 95.4948 84.6205C94.7813 86.6367 94.075 86.7382 93.2756 87.8721Z" fill="#010206"/>
<path d="M69.3498 103.426C66.892 102.3 64.4474 100.485 63.4218 97.8903C63.0117 96.8528 63.0194 95.9351 62.9119 94.8176C62.7874 93.5212 63.0109 91.5127 64.461 90.985C65.5959 90.5719 67.3568 91.2418 68.5111 91.3831C70.2692 91.6325 71.9948 91.8721 73.7673 91.7911C76.5978 91.7367 79.7467 90.2087 82.3587 89.9373C85.7583 92.1377 84.3331 96.2411 82.602 99.0955C81.4142 101.054 79.0041 102.793 76.8976 103.65C73.8302 104.903 72.2616 104.424 69.3498 103.426Z" fill="#010206"/>
<path d="M70.2355 103.164C62.5117 100.289 66.8001 97.7711 72.1833 97.2708C76.2159 96.8961 77.6249 97.5471 80.5181 100.228C78.8953 101.893 77.9449 102.796 75.5895 103.427C76.0473 103.695 76.3653 103.65 76.8972 103.65C73.8298 104.903 72.2611 104.424 69.3494 103.426C69.7007 103.394 69.9097 103.29 70.2355 103.164Z" fill="#E5385C"/>
<path d="M70.2358 103.164C73.0855 103.93 73.0208 103.629 75.5897 103.427C76.0475 103.695 76.3655 103.65 76.8974 103.65C73.83 104.903 72.2614 104.424 69.3496 103.426C69.7009 103.394 69.9099 103.291 70.2358 103.164Z" fill="#02003D"/>
<path d="M55.4467 60.6301C57.3627 60.3707 59.7944 60.7744 59.4761 63.2711C58.7689 64.2797 56.5095 63.3987 54.9137 63.9679C53.2635 64.5564 53.3351 64.5745 51.8902 65.586C51.1261 66.2252 50.493 67.0496 49.4562 66.6459C49.2812 66.4508 49.1044 66.3266 49.0733 66.0608C48.6926 62.8088 53.0233 61.2005 55.4467 60.6301Z" fill="#010206"/>
<path d="M86.9249 59.7856C89.6537 59.5778 93.9899 60.769 95.1247 64.004C95.463 64.9683 94.0355 65.3783 93.2277 65.4393C92.0219 64.7149 91.7501 64.2011 90.7497 63.2116C89.2804 62.9104 85.635 63.4909 85.0798 62.1873C84.9672 61.9189 84.9655 61.617 85.0753 61.3474C85.3504 60.6806 86.2859 60.0761 86.9249 59.7856Z" fill="#010206"/>
<path d="M26.6134 21.6043L26.7143 21.5819C28.8456 21.0973 31.0078 20.1065 33.474 19.7389C40.436 18.701 47.8542 19.0081 53.9275 22.7726C57.8498 25.1946 61.0934 28.5723 63.3543 32.5897C63.7802 33.3382 65.1739 36.1068 65.5487 36.5878C65.5818 37.5848 65.7047 38.8764 65.7016 39.8094C65.6844 40.7625 65.6688 41.4327 64.7049 41.9054C60.4039 42.9452 51.6147 45.1973 47.4641 43.6016C44.6806 42.7979 41.8666 42.0838 39.4099 40.5925C34.0058 37.3655 29.9029 32.4737 27.8844 26.4947C27.5699 25.563 26.1224 22.4417 26.6134 21.6043Z" fill="#3BA64B"/>
<path d="M26.6133 21.6043L26.7142 21.5819C28.8455 21.0973 31.0077 20.1065 33.4739 19.7389C40.4359 18.701 47.8541 19.0081 53.9274 22.7726C57.8497 25.1946 61.0933 28.5723 63.3542 32.5897C63.7801 33.3382 65.1738 36.1068 65.5486 36.5878C65.5817 37.5848 65.7047 38.8764 65.7015 39.8094C64.2939 37.6959 51.5504 30.8673 48.7942 29.4525C44.9156 27.462 38.3457 25.4727 34.0472 23.9269C32.7717 23.4683 27.9094 21.727 26.6133 21.6043Z" fill="#7CC73E"/>
<path d="M126.996 65.2996C131.305 59.798 135.027 63.1113 137.478 68.015C137.443 69.4621 136.909 72.037 136.76 73.6218C136.654 74.7566 131.31 76.9357 130.377 77.7863C128.843 79.1841 128.018 80.7537 126.663 82.2735C123.302 86.1466 118.444 89.3896 113.72 91.4472C113.459 90.7872 113.493 90.3192 113.568 89.6303C114.009 85.6124 113.062 81.4811 113.124 77.5057C116.219 75.4812 120.5 73.539 121.326 69.4655C121.845 66.9086 121.4 62.4683 125.389 62.9823C126.451 63.1191 126.751 64.4458 126.996 65.2996Z" fill="#4B248D"/>
<path d="M80.4917 129.699C80.7159 129.399 84.7022 128.132 85.34 127.903C86.9668 127.32 89.1168 126.04 90.7635 125.859C91.2121 128.118 91.5617 132.186 91.707 134.512C96.202 135.65 100.199 139.778 95.3107 143.189C94.3262 143.877 85.9065 143.734 84.2865 143.367C80.0867 142.417 81.2276 137.424 81.006 134.357C80.8777 132.581 80.8045 131.272 80.4917 129.699Z" fill="#4B248D"/>
<path d="M65.5489 36.5878C66.4064 31.4675 67.5289 27.916 70.4972 23.5728C72.0682 21.2737 75.4962 17.3137 78.2896 20.1324C79.548 21.4023 78.2161 24.255 76.8402 25.2434C72.3704 28.4545 70.6205 32.9448 69.1095 38.0362C68.6109 38.8649 68.5701 41.6823 68.5564 42.7677C67.3411 42.8033 66.129 43.0192 65.2818 41.9852L64.7051 41.9054C65.669 41.4327 65.6845 40.7625 65.7018 39.8094C65.7049 38.8764 65.582 37.5848 65.5489 36.5878Z" fill="#4B248D"/>
</g>
<defs>
<clipPath id="clip0_90_845">
<rect width="145" height="158.594" fill="white"/>
</clipPath>
</defs>
</svg>
