<svg width="145" height="159" viewBox="0 0 145 159" fill="none" xmlns="http://www.w3.org/2000/svg">
<g clip-path="url(#clip0_90_998)">
<path d="M34.4994 51.325C37.4688 50.7246 40.4146 49.6994 43.2686 49.1767C50.803 47.797 59.6858 47.9141 67.0193 50.1338C71.2434 51.4123 75.0638 53.7049 79.4136 54.4919C81.8284 53.5795 83.6459 52.4957 84.7221 55.8654C84.8106 56.1425 84.8882 56.3782 85.0398 56.6284C83.8892 57.7588 82.4632 58.5843 81.0434 59.3551C77.8343 61.097 76.2912 64.3331 75.5491 67.8306C92.6541 69.3118 105.38 80.2838 108.708 97.2697C108.904 98.2704 109.311 105.532 109.266 105.456C114.278 108.628 115.393 114.505 116.59 119.914C116.604 119.977 116.617 120.04 116.629 120.103C115.778 122.719 113.987 126.546 110.383 125.645C109.255 125.364 108.378 124.266 107.779 123.307C106.006 125.201 104.779 124.185 103.985 122.101C103.682 122.283 102.624 124.569 102.312 125.063C98.2968 131.42 90.8038 137.485 83.4287 139.155C83.9816 141.286 84.4792 143.672 84.4131 145.867C84.1272 146.376 83.2977 147.79 82.4469 147.972C79.7405 148.553 74.6209 148.682 71.8631 148.176C71.5024 147.989 71.0163 147.169 70.9291 146.848C70.1476 143.969 72.3407 142.505 74.866 142.053C75.1741 141.998 75.3737 141.73 75.4743 141.467C75.1598 140.893 73.7053 141.082 73.0425 141.105C67.9261 141.283 63.189 141.144 58.389 139.127C57.3193 139.955 55.9413 140.677 54.9469 141.607C53.0911 143.345 52.7758 146.004 50.0469 146.786C48.6979 147.159 47.2561 146.987 46.0333 146.306C43.9179 145.133 40.0902 140.136 41.2102 137.308C41.5898 136.349 43.4067 135.577 44.4528 135.317C45.6371 135.688 46.5624 136.301 47.5876 136.975C48.6509 135.95 49.2249 135.217 50.0237 133.995C43.7872 128.998 38.8855 121.841 37.6254 113.957C37.5199 113.297 37.4859 112.823 36.962 112.404C37.5808 112.008 37.4699 101.66 37.3289 100.528C35.971 99.3804 35.4085 99.1465 34.2622 97.7213C30.8775 93.5127 34.4531 90.4971 33.0671 86.7558C32.6961 85.7547 31.11 85.595 30.2532 85.4056C30.831 82.84 31.3999 76.8739 31.7527 74.0323C32.7226 66.4698 33.6382 58.9005 34.4994 51.325Z" fill="#6732BE"/>
<path d="M34.4994 51.325C37.4688 50.7246 40.4146 49.6994 43.2686 49.1767C50.803 47.797 59.6858 47.9141 67.0193 50.1338C71.2434 51.4123 75.0638 53.7049 79.4136 54.4919C81.8284 53.5795 83.6459 52.4957 84.7221 55.8654C84.8106 56.1425 84.8882 56.3782 85.0398 56.6284C83.8892 57.7588 82.4632 58.5843 81.0434 59.3551C77.8343 61.097 76.2912 64.3331 75.5491 67.8306C75.4585 68.9214 75.6351 70.8902 75.0063 71.5086C74.3976 71.8158 74.147 71.4912 73.6031 71.4114C72.1984 71.2053 72.3587 69.6576 71.6705 69.0999C71.4167 69.8041 71.2201 70.1795 70.5417 70.5363C65.9804 72.9348 59.7717 73.6805 54.716 73.616C48.4098 77.2624 42.6936 84.2082 39.9083 90.9394C38.7573 93.7209 37.8468 96.5136 37.5124 99.5157C37.4754 99.8473 37.4569 100.225 37.3289 100.528C35.971 99.3804 35.4085 99.1465 34.2622 97.7213C30.8775 93.5127 34.4531 90.4971 33.0671 86.7558C32.6961 85.7547 31.11 85.595 30.2532 85.4056C30.831 82.84 31.3999 76.8739 31.7527 74.0323C32.7226 66.4698 33.6382 58.9005 34.4994 51.325Z" fill="#FEFEFE"/>
<path d="M38.521 64.1767C39.5941 62.9799 49.0458 63.0772 51.1738 63.2706C55.3147 63.6471 60.0856 65.0221 64.2184 65.8004C65.5747 66.0559 70.0254 68.4123 70.8518 68.0448C71.0099 67.6229 71.0293 67.446 71.094 67.0143C71.3905 67.3609 71.818 67.8321 72.0763 68.1881C71.8251 68.4777 71.6245 68.6308 71.6065 68.9994L71.6705 69.0998C71.4167 69.804 71.2201 70.1793 70.5416 70.5362C65.9804 72.9346 59.7717 73.6803 54.716 73.6159C50.6704 73.1619 46.3109 71.3376 43.0321 68.893C41.6028 67.8273 39.6395 65.5665 38.521 64.1767Z" fill="#42A853"/>
<path d="M37.7 63.0816C40.5165 60.511 46.4219 58.9909 50.1371 58.3261C58.1741 56.8878 64.7968 59.9842 70.2005 65.9567C70.5085 66.3005 70.8064 66.6533 71.094 67.0143C71.0293 67.4461 71.0099 67.6229 70.8517 68.0449C70.0253 68.4124 65.5746 66.056 64.2184 65.8005C60.0856 65.0221 55.3146 63.6472 51.1738 63.2707C49.0458 63.0773 39.594 62.98 38.521 64.1768C38.1494 63.7605 38.0055 63.5512 37.7 63.0816Z" fill="#88D04A"/>
<path d="M79.4135 54.4919C81.8284 53.5796 83.6458 52.4957 84.722 55.8654C84.8105 56.1425 84.8881 56.3782 85.0398 56.6284C83.8891 57.7588 82.4632 58.5843 81.0433 59.3551C77.8342 61.097 76.2912 64.3331 75.5491 67.8306C75.4584 68.9214 75.635 70.8902 75.0063 71.5086C74.3976 71.8159 74.1469 71.4912 73.603 71.4114C72.1983 71.2053 72.3586 69.6576 71.6704 69.0999L71.6064 68.9995C71.6244 68.631 71.8251 68.4779 72.0763 68.1883C72.4852 67.2843 73.058 65.4734 73.3581 64.4693C74.6704 60.0784 75.9451 57.5901 79.4135 54.4919Z" fill="#4D2391"/>
<path d="M109.265 105.456C114.278 108.628 115.393 114.505 116.59 119.914C116.604 119.977 116.616 120.04 116.629 120.103C115.778 122.719 113.987 126.545 110.383 125.645C109.255 125.363 108.378 124.266 107.779 123.307C106.006 125.201 104.779 124.185 103.985 122.101C104.627 121.421 104.507 121.008 104.946 120.173C106.533 117.117 107.654 113.841 108.272 110.454C108.664 108.334 108.501 107.522 109.265 105.456Z" fill="#4D2391"/>
<path d="M69.7842 103.453L69.5142 103.791L69.3512 103.713C68.7424 100.386 71.3475 95.3675 74.9231 94.9042C78.2765 94.4698 81.8086 98.2157 82.183 101.379C82.746 105.48 80.7032 110.262 76.2558 111.023C74.816 111.269 72.39 110.636 71.381 109.505C70.907 108.838 70.3261 108.305 70.6699 107.496C69.964 105.988 69.8149 105.08 69.7842 103.453Z" fill="#FEFEFE"/>
<path d="M71.0079 101.54C71.4093 99.2319 71.8798 97.2245 74.7791 97.8104C80.9622 99.0596 78.6953 109.939 72.4492 108.989C71.6912 109.153 71.8403 109.006 71.3813 109.505C70.9072 108.838 70.3263 108.305 70.6701 107.496C69.9643 105.988 69.8152 105.08 69.7844 103.453C70.0901 102.412 70.187 102.236 71.0079 101.54Z" fill="black"/>
<path d="M70.67 107.496C71.1983 108.154 71.6373 108.683 72.4491 108.989C71.6911 109.153 71.8402 109.006 71.3811 109.505C70.907 108.838 70.3262 108.305 70.67 107.496Z" fill="#DBD4DD"/>
<path d="M47.3194 100.811C46.995 100.455 46.8603 99.9424 46.9256 99.4947C47.5642 95.1136 53.2587 92.1557 56.4171 96.1805C58.9113 99.3587 59.3293 104.921 56.0868 107.649C54.2499 109.032 52.0061 109.776 49.8429 108.533C49.2766 108.047 47.9063 107.12 48.1601 106.385C47.1254 104.651 46.1744 102.828 47.3194 100.811Z" fill="black"/>
<path d="M47.3197 100.811C46.9953 100.455 46.8607 99.9424 46.9259 99.4947C47.5646 95.1136 53.2591 92.1557 56.4175 96.1805C58.9117 99.3587 59.3297 104.921 56.0871 107.649C54.2503 109.032 52.0065 109.776 49.8432 108.533L50.0257 108.096C50.5079 107.725 50.5453 107.827 51.2391 107.733C52.4679 107.432 53.5366 106.676 54.2283 105.616C56.2044 102.647 55.6142 96.0046 50.669 96.3644C48.7057 96.5071 48.2154 99.3651 47.3197 100.811Z" fill="#FEFEFE"/>
<path d="M49.843 108.533C49.2767 108.047 47.9064 107.12 48.1602 106.385C49.1226 107.125 50.0109 107.593 51.2389 107.733C50.545 107.827 50.5076 107.724 50.0255 108.096L49.843 108.533Z" fill="#F5F0E4"/>
<path d="M56.0702 110.22C58.8739 110.441 61.5052 112.01 64.4291 111.696C66.0867 111.558 67.5653 110.817 69.1702 110.468C70.6487 110.145 71.4388 110.989 71.6137 112.383C71.8926 114.608 71.2506 115.946 69.9773 117.66C69.3318 118.662 68.117 119.708 67.0691 120.273C60.6078 122.566 54.384 116.682 56.0702 110.22Z" fill="black"/>
<path d="M58.9739 117.731C61.8594 115.667 66.9199 114.182 69.6693 117.188C69.7598 117.392 69.7945 117.535 69.9773 117.659C69.3317 118.662 68.1169 119.708 67.0691 120.273L66.4107 120.257C63.1119 121.017 61.0718 120.419 58.9739 117.731Z" fill="#F03A5E"/>
<path d="M69.6693 117.188C69.7598 117.392 69.7945 117.535 69.9773 117.66C69.3317 118.662 68.1169 119.708 67.0691 120.273L66.4106 120.257C67.9173 119.758 68.9559 118.554 69.6693 117.188Z" fill="#1F0007"/>
<path d="M75.452 87.8125C78.0053 87.6244 79.8711 88.619 81.3899 90.7611C81.6519 91.1306 81.686 91.5549 81.5666 91.9907C81.1751 92.3354 81.3711 92.2465 80.7976 92.2868C80.4063 92.0753 79.5747 91.4559 79.1437 91.1799C77.485 90.118 76.171 90.0705 74.2876 89.8756C74.5262 88.7193 74.5289 88.4973 75.452 87.8125Z" fill="black"/>
<path d="M52.9897 86.8445C54.1598 86.6948 55.5406 87.5598 55.56 88.7778C55.0047 89.7681 53.8367 89.1616 52.9556 88.8837C52.217 89.1723 51.4823 89.471 50.7519 89.7797C50.041 90.1361 49.4279 90.5485 48.6546 90.2997C48.5718 90.2139 48.3788 90.0542 48.3778 89.9572C48.3574 87.9052 51.61 87.0281 52.9897 86.8445Z" fill="black"/>
<path d="M39.6768 9.85812L39.8674 9.93221L39.9196 9.898C41.4805 8.89515 43.7376 8.53194 45.5482 8.10312C53.7467 6.16131 62.6827 5.84386 70.9438 7.57822C74.2328 8.26869 77.2457 9.60271 80.322 10.8911C86.329 13.4068 91.9013 15.9737 98.4838 16.6194C103.83 17.1438 108.991 16.8321 114.269 15.8369C115.318 15.6394 118.443 14.8816 119.274 15.3078C119.909 16.4099 118.128 19.1416 117.545 20.1874C115.668 23.5633 113.549 26.799 111.205 29.8694C109.776 31.7343 108.124 33.4924 106.864 35.4676C110.309 40.8104 115.109 47.2146 116.281 53.5048C116.415 54.2278 111.187 55.0638 110.523 55.2607C104.831 56.9481 99.3548 57.4457 93.4501 57.2311C91.4908 57.1597 86.6923 56.3972 85.0397 56.6283C84.888 56.378 84.8104 56.1424 84.7219 55.8653C83.6458 52.4956 81.8283 53.5794 79.4134 54.4918C75.0637 53.7047 71.2433 51.4122 67.0192 50.1337C59.6857 47.914 50.8028 47.7968 43.2685 49.1766C40.4145 49.6993 37.4687 50.7245 34.4993 51.3248C35.6134 44.7487 35.9064 37.4262 36.9182 30.91C37.4039 27.7816 38.6304 11.1649 39.6768 9.85812Z" fill="#6732BE"/>
<path d="M63.3471 17.2943C67.1599 17.0849 70.0256 19.8712 71.387 23.1938C73.2197 20.9986 76.0809 19.5694 79.0373 20.0006C82.9026 20.5644 84.9759 24.9061 84.3036 28.5142C83.4739 32.9668 79.4788 35.4905 75.9603 37.9037C73.8609 39.2869 69.5869 41.6529 67.9024 43.1095C64.4113 37.9667 58.9685 33.2667 57.205 27.14C55.799 22.2557 58.7051 18.5119 63.3471 17.2943Z" fill="#FEFEFE"/>
<path d="M26.4124 84.683C26.5639 82.8395 27.2287 79.5657 27.5168 77.5429C28.0694 73.3979 28.5882 69.2486 29.073 65.0951L35.4724 13.938C35.797 11.2654 35.8388 9.31118 35.2374 6.70835C34.9067 5.27722 35.9411 3.33418 37.4911 2.90694C38.2324 2.70823 39.0227 2.82031 39.6796 3.2173C42.2712 4.77601 40.8855 7.92983 39.6769 9.85823C38.6304 11.1651 37.404 27.7817 36.9183 30.9101C35.9065 37.4263 35.6135 44.7488 34.4994 51.325C33.6381 58.9005 32.7225 66.4698 31.7527 74.0323C31.3998 76.8738 30.831 82.8399 30.2532 85.4056C29.37 85.5889 27.4417 85.3569 26.5807 85.1097L26.4124 84.683Z" fill="#291F5D"/>
<path d="M24.397 99.2804C22.7911 97.9896 21.8639 97.0776 21.1372 94.9696C20.3771 92.765 20.9955 89.2765 21.9407 87.1763C22.3612 86.2416 24.0323 85.2695 25.0292 85.1375C25.4751 85.0786 25.751 85.2025 26.2786 85.0415L26.4123 84.6831L26.5807 85.1098C27.4416 85.357 29.37 85.5889 30.2531 85.4057C31.11 85.595 32.696 85.7547 33.067 86.7559C34.453 90.4971 30.8774 93.5128 34.2621 97.7214C35.4084 99.1466 35.971 99.3805 37.3288 100.528C37.4698 101.66 37.5807 112.008 36.9619 112.404C32.1408 110.668 30.3127 109.527 27.0297 105.601C26.5416 104.124 29.2071 97.0378 27.6175 95.9695C26.0919 95.9467 25.4016 98.3967 24.397 99.2804Z" fill="#4D2391"/>
<path d="M24.397 99.2803C25.4016 98.3966 26.0919 95.9466 27.6175 95.9694C29.2071 97.0378 26.5416 104.124 27.0297 105.601C27.0543 105.928 27.0546 106.255 27.0304 106.581C26.8908 108.615 26.4037 110.873 26.1301 112.933L24.3469 126.765L23.1762 135.862C22.9676 137.482 22.7876 139.241 22.4315 140.828C22.2467 141.651 21.6773 142.133 21.0705 142.665C20.2954 142.322 19.3607 141.981 19.0425 141.117C18.6902 140.16 22.9778 110.256 23.5117 106.25C23.7174 104.706 23.8701 100.433 24.397 99.2803Z" fill="#291F5D"/>
</g>
<defs>
<clipPath id="clip0_90_998">
<rect width="145" height="158.594" fill="white"/>
</clipPath>
</defs>
</svg>
