<svg width="736" height="586" viewBox="0 0 736 586" fill="none" xmlns="http://www.w3.org/2000/svg">
<path d="M334.536 68.1626C334.688 69.3641 334.814 71.2221 335.231 72.2691C368.669 67.5926 402.069 77.4241 428.909 97.6691C461.709 122.537 483.194 159.497 488.574 200.306C496.464 257.008 478.094 316.772 427.934 347.149C426.169 348.219 423.209 350.267 421.314 350.827L418.269 352.914C427.019 354.046 468.174 359.186 468.329 368.883C464.184 377.054 425.019 383.819 415.584 384.963C365.969 390.963 313.816 389.813 264.552 381.254C256.595 379.872 232.644 374.797 228.501 368.737C226.762 358.724 268.328 353.286 276.77 352.014C247.997 336.22 225.204 311.418 211.89 281.417C194.597 242.143 193.506 197.631 208.855 157.557C222.569 122.507 251.72 97.5856 285.595 82.8801C286.821 82.7641 294.296 80.6636 295.639 80.2156C303.687 77.5326 311.608 76.9521 319.724 75.2806C320.407 74.1576 320.225 72.1066 320.276 70.5801C321.102 71.6781 320.782 72.4821 320.869 74.2201C329.618 74.6206 330.098 75.5316 334.536 68.1626Z" fill="#803EBC"/>
<path d="M334.536 68.1626C334.688 69.3641 334.814 71.2221 335.231 72.2691L335.307 74.2461C334.621 73.4141 334.256 73.2131 333.944 72.1911C331.737 78.1836 325.308 73.8911 321.326 76.3836C320.386 78.2496 321.898 81.5541 321.809 83.0661C318.836 84.6471 315.287 84.9411 312.08 86.0366C278.592 97.4741 247.509 120.896 235.157 155.201C223.591 187.323 230.193 228.459 244.173 258.995C264.42 301.786 296.437 334.882 341.734 350.789C359.339 356.972 378.619 358.756 397.069 355.363C409.054 353.159 407.374 351.097 421.314 350.827L418.269 352.914C427.019 354.046 468.174 359.186 468.329 368.883C464.184 377.054 425.019 383.819 415.584 384.963C365.969 390.963 313.816 389.813 264.552 381.254C256.595 379.872 232.644 374.797 228.501 368.737C226.762 358.724 268.328 353.286 276.77 352.014C247.997 336.22 225.204 311.418 211.89 281.417C194.597 242.143 193.506 197.631 208.855 157.557C222.569 122.507 251.72 97.5856 285.595 82.8801C286.821 82.7641 294.296 80.6636 295.639 80.2156C303.687 77.5326 311.608 76.9521 319.724 75.2806C320.407 74.1576 320.225 72.1066 320.276 70.5801C321.102 71.6781 320.782 72.4821 320.869 74.2201C329.618 74.6206 330.098 75.5316 334.536 68.1626Z" fill="#5A2C93"/>
<path d="M276.77 352.014L277.266 352.217C281.215 353.866 284.721 356.045 288.493 357.682C292.653 359.487 297.959 361.342 302.297 362.788C329.105 371.915 358.014 372.913 385.384 365.658C386.204 365.445 393.494 363.381 393.699 363.381C396.674 363.387 417.319 352.733 418.269 352.914C427.019 354.046 468.174 359.186 468.329 368.883C464.184 377.054 425.019 383.819 415.584 384.963C365.969 390.963 313.816 389.813 264.552 381.254C256.595 379.872 232.644 374.797 228.501 368.737C226.762 358.724 268.328 353.286 276.77 352.014Z" fill="#C1B1DE"/>
<path d="M321.809 83.0662C321.898 81.5542 320.386 78.2497 321.326 76.3837C325.308 73.8912 331.738 78.1837 333.945 72.1912C334.257 73.2132 334.622 73.4142 335.308 74.2462C344.139 83.9177 328.315 91.5362 321.809 83.0662Z" fill="#2F2465"/>
<path d="M347.994 209.21C348.383 209.273 348.123 209.193 348.573 209.786C347.699 216.069 345.623 222.24 341.268 226.995C336.44 232.286 329.685 235.412 322.526 235.667C304.247 236.485 290.188 220.393 289.84 202.792C289.511 186.163 300.413 171.164 318.114 170.922C326.137 170.805 333.86 173.973 339.491 179.689C343.037 183.238 347.621 190.533 347.099 195.67C348.397 201.468 348.507 203.287 347.994 209.21Z" fill="#191526"/>
<path d="M347.994 209.21C348.383 209.273 348.123 209.193 348.573 209.786C347.699 216.069 345.623 222.24 341.268 226.995C336.44 232.286 329.685 235.412 322.526 235.667C304.247 236.485 290.188 220.393 289.84 202.792C289.511 186.163 300.413 171.164 318.114 170.922C326.137 170.805 333.86 173.973 339.491 179.689C343.037 183.238 347.621 190.533 347.099 195.67C343.918 189.15 340.867 183.31 333.543 180.826C321.924 176.884 312.206 182.948 308.613 194.017C306.388 201.103 307.128 208.787 310.664 215.318C313.6 220.728 318.646 225.383 324.702 226.938C329.246 228.145 334.087 227.407 338.064 224.9C343.795 221.268 346.362 215.461 347.994 209.21Z" fill="#FBFAFA"/>
<path d="M335.102 185.463C342.317 185.103 345.529 192.153 339.896 197.628C332.069 197.802 330.078 191.02 335.102 185.463Z" fill="#FBFAFA"/>
<path d="M414.47 160.195C447.1 158.229 458.095 217.438 421.41 221.377C416.065 221.928 410.435 219.743 406.11 216.732C385.495 202.397 385.56 164.833 414.47 160.195Z" fill="#F7F6F8"/>
<path d="M419.319 167.648C422.854 167.655 426.329 168.542 429.434 170.229C445.064 178.858 446.769 209.517 426.404 214.659C400.309 215.176 393.809 172.82 419.319 167.648Z" fill="#191526"/>
<path d="M430.285 174.325C435.9 174.808 440.435 182.174 434.4 186.335C432.12 186.125 430.935 185.699 429.26 184.085C427.955 182.817 427.27 181.04 427.385 179.222C427.53 176.834 428.605 175.821 430.285 174.325Z" fill="#FBFAFA"/>
<path d="M399.025 219.608C403.245 219.288 405.92 220.384 407.345 224.487C414.68 245.629 398.145 267.76 375.91 267.671C368.56 267.642 365.08 266.682 358.47 264.161C357.905 263.899 357.345 263.619 356.795 263.323C347.484 258.246 341.391 242.38 345.869 231.997C347.942 227.19 357.66 226.984 362.42 227.309C376.075 228.241 386.415 222.807 399.025 219.608Z" fill="#191526"/>
<path d="M374.6 242.262C405.685 243.513 398 264.797 374.07 265.118C348.805 264.342 343.891 244.905 374.6 242.262Z" fill="#DF2A66"/>
<path d="M372.65 88.7006C377.215 88.3171 383.35 89.2561 387.79 90.5546C391.78 91.7211 400.79 95.9396 398.6 101.294C395.805 103.66 393.905 103.223 390.235 103.169C384.67 102.867 365.455 102.375 363.23 95.3141C361.71 90.4826 369.1 89.2111 372.65 88.7006Z" fill="#A266D2"/>
<path d="M306.256 138.184C310.148 137.924 322.435 138.442 320.746 144.863C317.602 148.307 310.016 147.911 305.446 149.185C302.302 150.061 301.359 150.406 298.386 151.714C294.774 153.391 291.704 156.523 288.029 156.446C287.277 156.062 286.23 155.688 286.315 154.742C287.211 144.774 298.9 139.581 306.256 138.184Z" fill="#191526"/>
<path d="M405.71 126.674C413.805 126.286 426.985 129.181 428.275 138.652C427.705 140.464 428.21 139.726 426.63 140.893C424.545 141.281 423.12 140.379 421.085 139.53C411.96 135.856 408.11 136.942 398.75 136.109C397.525 135.999 396.48 135.379 395.735 134.348C395.655 129.742 402.08 127.692 405.71 126.674Z" fill="#191526"/>
<path d="M412.38 104.987C417.715 104.967 425.09 109.732 422.18 115.165C420.72 116.348 419.845 116.151 417.945 116.2C413.75 115.708 408.315 115.432 407.505 110.435C408.385 107.415 409.715 106.697 412.38 104.987Z" fill="#A266D2"/>
<path d="M459.585 454.713L460.6 454.658C479.355 453.738 490.475 456.163 504.505 469.008C522.41 450.673 560.33 449.048 579.035 466.918C591.08 478.433 592.04 500.033 592.165 515.728L592.23 545.678C592.245 555.853 593.99 570.838 586.335 578.288C577.47 586.918 559.04 584.628 554.845 572.058C552.675 565.558 553.225 559.908 553.26 553.293L553.435 523.748C553.465 516.498 554.005 508.748 552.54 501.613C551.765 497.848 550.35 494.083 547.665 491.253C543.975 487.373 538.725 486.193 533.56 486.028C528.13 485.858 523.965 487.373 520.12 491.183C518.165 493.123 516.465 495.403 515.58 498.033C511.53 510.018 513.25 547.483 513.305 561.183C513.3 566.623 513 571.013 509.9 575.823C507.32 579.853 503.16 582.608 498.445 583.413C492.785 584.413 486.245 582.733 481.58 579.418C473.19 573.458 474.23 562.228 474.29 553.093L474.51 523.818C474.625 509.963 476.73 486.873 456.135 486.243C435.84 485.623 435.69 504.558 435.72 519.548L435.79 546.443C435.82 559.233 437.675 580.208 421.225 582.923C392.4 587.408 394.695 563.678 394.835 543.753C395.275 523.423 393.92 502.738 395.645 482.478C397.31 462.923 418.65 452.378 434.525 464.238C441.255 458.398 450.965 455.953 459.585 454.713Z" fill="#472378"/>
<path d="M490.665 2.83118C505.305 2.03918 534.99 4.29618 546.735 13.3967C555.65 20.3032 559.62 30.4377 561.005 41.4552C563.165 58.6442 563.315 83.1377 552.67 97.6717C541.765 112.555 521.89 111.414 505.05 113.634C502.64 116.064 500.935 117.517 498.29 119.697C496.01 121.608 489.885 127.149 487.245 127.932C481.785 129.554 483.15 116.198 479.12 114.026C470.19 109.212 460.03 109.649 451.81 102.209C441.36 92.7552 438.525 74.8907 437.525 61.6277C436.37 46.3152 437.185 27.7292 447.83 15.6392C457.01 5.21368 477.49 3.28618 490.665 2.83118Z" fill="#88D029"/>
<path d="M513.275 34.1446C514.12 34.0826 514.965 34.0416 515.81 34.0206C531.84 33.7201 537.575 51.9506 529.41 63.0711C521.645 73.6441 509.265 83.2626 499.77 92.4916C495.35 88.5156 489.92 84.2406 485.26 80.4231C476.225 73.0011 463.79 64.1216 463.86 51.2581C463.875 46.4951 465.925 41.9651 469.495 38.8126C473.035 35.6031 477.765 34.0331 482.525 34.4886C490.115 35.1866 494.075 39.5156 498.58 44.8221C503.085 38.6456 505.72 35.9111 513.275 34.1446Z" fill="#FBFAFA"/>
<path d="M735.175 526.768C736.05 536.493 731.47 553.188 726.31 561.548C708.535 590.313 655.235 591.743 630.555 572.888C603.96 552.573 612.669 508.843 610.829 479.788C610.514 474.758 611.609 467.013 614.969 463.043C620.949 456.288 635.51 455.553 642.25 461.613C649.63 468.268 648.079 480.758 648.284 489.738C648.399 501.913 647.859 514.128 648.399 526.298C649.174 543.823 661.079 552.938 678.149 550.633C699.224 547.783 697.86 525.493 697.86 509.558C697.82 501.203 697.845 492.843 697.94 484.488C698.065 477.518 697.665 469.878 702.36 463.978C707.945 456.363 724.334 457.063 730.779 462.843C736.379 467.868 735.385 481.913 735.36 488.998L735.185 517.573C735.205 520.393 735.32 524.028 735.175 526.768Z" fill="#472378"/>
<path d="M734.08 510.603C734.57 512.693 734.875 515.403 735.185 517.573C735.205 520.393 735.32 524.028 735.175 526.768L734.325 526.073C733.16 523.493 733.92 513.923 734.08 510.603Z" fill="#2F2465"/>
<path d="M16.3089 385.243C24.7814 383.992 36.2784 387.048 37.9694 396.183C40.5594 410.183 39.6929 427.773 39.7159 442.058L39.9404 500.218C40.0014 507.513 39.6124 522.268 41.7479 528.353C50.0169 551.923 89.8379 543.308 108.114 551.983C111.754 553.908 115.217 557.543 116.22 561.593C119.177 573.533 107.918 578.173 98.6874 580.413C62.0929 587.663 9.09044 586.638 2.16844 539.998C0.0624418 525.808 0.363941 513.168 0.398941 498.883L0.361938 455.883L0.301437 419.958C0.285937 404.668 -3.51356 387.548 16.3089 385.243Z" fill="#472378"/>
<path d="M292.193 516.298C292.433 534.848 295.369 552.933 320.676 550.088C338.69 548.068 338.325 529.328 338.397 515.093C338.495 506.348 338.489 497.603 338.378 488.863C338.293 482.488 337.866 475.518 338.576 469.368C339.603 460.478 346.295 455.888 354.598 454.903C359.435 454.328 365.21 455.963 369.085 458.898C373.375 462.148 374.42 468.018 374.72 473.048C374.96 482.743 374.96 492.613 374.905 502.383C374.78 524.498 377.12 549.718 361.535 567.688C351.516 579.243 333.976 584.663 319.229 585.208C303.315 585.798 285.941 582.848 273.881 571.658C259.98 558.758 257.312 542.903 256.737 524.763C256.429 515.053 256.566 505.178 256.563 495.418C256.56 486.038 255.814 475.383 257.289 466.223C257.665 463.858 258.788 462.058 260.436 460.368C269.02 451.578 289.572 452.998 291.554 467.308C293.109 478.533 292.329 491.303 292.227 502.748C292.326 507.268 292.315 511.783 292.193 516.298Z" fill="#472378"/>
<path d="M292.193 516.297L291.179 515.422C290.603 512.712 290.532 501.122 290.915 498.407L291.415 498.342L291.211 497.958C291.816 499.803 291.93 500.812 292.227 502.747C292.326 507.267 292.315 511.782 292.193 516.297Z" fill="#2F2465"/>
<path d="M133.803 455.213C154.155 452.803 154.29 469.752 154.202 484.107L154.129 508.347C154.117 519.847 152.429 535.693 161.411 544.398C168.194 550.973 180.728 551.738 188.478 546.433C200.54 538.173 198.761 521.273 198.705 508.583L198.574 483.152C198.5 468.307 197.7 455.903 217.075 455.068C227.754 454.498 234.498 461.258 234.752 471.873C235.017 482.928 234.845 494.143 234.795 505.213C234.866 524.328 236.759 548.768 224.707 564.763C206.591 588.833 162.132 591.323 138.962 574.078C114.15 555.613 117.935 520.293 117.747 493.063C117.693 485.278 117.282 476.352 118.15 468.662C119.111 460.147 125.933 456.258 133.803 455.213Z" fill="#472378"/>
<path d="M191.254 10.7881C241.542 -10.0674 296.549 -2.96243 319.078 52.2796C319.242 52.6816 319.404 53.0851 319.564 53.4891C319.398 58.4021 319.547 62.5416 319.739 67.4281L320.276 70.5801C320.225 72.1066 320.407 74.1576 319.724 75.2806C311.608 76.9521 303.687 77.5326 295.639 80.2156C294.296 80.6636 286.821 82.7641 285.595 82.8801C282.232 82.4391 278.14 82.3411 274.662 82.0346C233.679 78.4276 200.246 51.4516 184.637 13.5156C186.76 12.5821 189.093 11.6766 191.254 10.7881Z" fill="#4E9E2D"/>
<path d="M191.255 10.7881C241.543 -10.0674 296.55 -2.96243 319.079 52.2796C319.243 52.6816 319.405 53.0851 319.564 53.4891C319.398 58.4021 319.547 62.5416 319.739 67.4281C319.879 67.4556 303.423 52.1716 301.107 50.4161C270.808 27.4546 236.279 17.4806 198.868 13.7086C196.206 13.4401 192.959 13.0671 191.255 10.7881Z" fill="#88D029"/>
<path d="M679.36 457.223C678.24 457.683 678.329 457.678 677.149 457.423C676.389 455.828 675.849 451.453 675.789 449.648C674.904 422.503 705.139 411.698 727.599 410.948C729.519 410.888 729.44 410.748 730.695 411.928C724.32 441.623 710.915 455.718 679.36 457.223Z" fill="#88D029"/>
<path d="M679.36 457.223C678.24 457.683 678.329 457.678 677.149 457.423C676.389 455.828 675.849 451.453 675.789 449.648C674.904 422.503 705.139 411.698 727.599 410.948C729.519 410.888 729.44 410.748 730.695 411.928C717.715 415.988 684.395 444.888 679.125 456.743L679.36 457.223Z" fill="#469C2B"/>
<path d="M319.564 53.4891L319.674 53.0541C320.954 47.8271 321.36 42.4096 322.795 37.1711C326.149 24.8776 332.755 11.2966 343.17 3.53713C346.741 0.875631 356.015 6.29013 357.655 9.81063C359.135 12.9856 354.82 18.0516 352.879 20.2361C341.851 32.6496 333.29 51.2476 334.536 68.1626C330.099 75.5316 329.619 74.6206 320.87 74.2201C320.783 72.4821 321.102 71.6781 320.276 70.5801L319.739 67.4281C319.547 62.5416 319.398 58.4021 319.564 53.4891Z" fill="#472378"/>
</svg>
