<svg width="224" height="173" viewBox="0 0 224 173" fill="none" xmlns="http://www.w3.org/2000/svg">
<g clip-path="url(#clip0_90_1238)">
<path d="M123.872 86.7064L144.988 86.636C149.039 86.6153 153.111 86.5658 157.157 86.7593C159.093 86.8517 160.475 88.2298 160.655 90.1424C160.901 92.7518 160.822 95.4627 160.816 98.0896L160.79 111.474L160.82 156.872L160.786 162.608C160.695 163.487 160.729 165.055 159.742 165.373C146.811 165.778 132.942 165.403 119.916 165.411L52.3203 165.565C51.8928 165.496 51.8296 165.489 51.4811 165.237C51.0647 164.566 51.0783 163.652 51.0157 162.847L50.9814 148.446C50.9734 145.975 50.8881 143.225 51.125 140.776C51.264 139.34 51.8747 138.73 52.9876 137.909C55.1008 137.712 57.7779 137.812 59.963 137.801C64.6004 137.758 69.2383 137.757 73.8758 137.797C76.8138 137.798 83.6077 137.446 86.1321 137.865C86.208 133.399 86.2301 128.933 86.1983 124.466C86.1786 122.126 86.0063 116.779 86.3708 114.679C86.9621 113.812 87.0965 113.655 87.9716 113.057C91.1702 112.785 94.4138 112.991 97.6216 112.882C98.2021 112.862 98.0918 112.916 98.3832 112.586C99.2744 113.377 107.761 113.075 109.145 112.613C110.015 113.08 120.002 112.857 121.614 112.848C121.615 108.827 121.586 104.806 121.528 100.786C121.468 97.1352 121.338 93.2159 121.712 89.5878C121.839 88.358 122.899 87.381 123.872 86.7064Z" fill="#A388EA"/>
<path d="M71.9376 30.919C73.5081 30.5456 75.8117 30.5409 77.4305 30.5424C83.7288 30.5424 90.2552 31.7535 95.6138 35.2342C102.087 39.4384 108.584 45.4314 111.858 52.5174C119.237 68.4915 116.479 87.1448 102.308 98.4646C103.944 99.618 105.684 100.551 106.473 102.354C106.387 104.255 106.116 105.736 105.682 107.593C107.463 107.577 109.53 107.399 110.925 108.714C112.521 110.218 110.288 111.869 109.145 112.613C107.761 113.075 99.2743 113.378 98.3831 112.586C98.1346 110.733 98.3586 109.007 98.7942 107.21C97.1856 106.242 95.9334 104.986 94.5913 103.696C89.5236 105.579 84.2836 106.689 78.8617 106.429C77.8052 106.378 76.8301 106.203 75.7585 106.236L75.6167 106.564C75.513 106.369 75.4402 106.217 75.1928 106.19C73.6296 106.018 68.0248 103.579 66.8404 104.084C61.5769 101.5 56.0154 98.6037 52.3073 93.8847C52.1737 94.812 52.0578 95.7419 51.9598 96.6738C52.4591 97.3506 53.2725 98.0188 53.7229 98.7253C54.584 100.105 54.0531 104.017 51.7679 103.399C51.1056 103.22 50.7238 102.274 50.4119 101.685C48.7563 104.764 47.996 104.833 44.5597 104.604C42.869 103.373 41.6984 101.461 41.1311 99.466C41.4116 98.2915 42.7756 95.4998 42.8131 95.0437C43.2019 90.3196 44.1576 87.8785 46.2812 83.6421C41.7292 71.778 42.7036 57.9488 49.3099 47.0526C50.0884 45.7687 50.814 44.7671 51.8235 43.6601C56.3622 41.5306 63.5336 38.9545 66.7304 34.689C66.9716 34.367 66.8894 33.9613 66.8733 33.564C67.1085 33.0828 67.2178 32.7674 67.6631 32.4542C68.3359 32.3041 68.1784 32.2431 68.7743 32.4329C69.2529 33.0769 68.7162 34.0666 69.1558 35.0434C69.9479 35.7334 70.8812 35.5018 71.9978 35.4496C71.9567 33.9753 71.8815 32.383 71.9376 30.919Z" fill="#6835BA"/>
<path d="M80.5396 70.9921L80.6429 71.3241C79.8808 73.046 77.8342 73.6621 76.0938 73.7726C71.3997 73.9366 68.4736 69.8122 68.2381 65.4593C67.8691 58.6346 73.8018 54.7382 79.208 59.7125C80.1465 60.5759 81.4144 62.7367 81.4226 64.1094C82.3724 64.7994 82.1815 67.2028 81.9182 68.2212C81.5949 69.4721 81.2894 69.983 80.5396 70.9921Z" fill="#FBFAFD"/>
<path d="M80.5397 70.9922C79.6242 71.6424 78.3362 72.0873 77.2199 71.7367C73.9238 70.7014 72.8652 66.2465 73.7498 63.2337C74.3795 61.0889 75.6624 59.7882 78.014 60.3782C79.4225 60.7269 79.435 62.4817 80.0601 63.5234C80.3542 64.0174 80.9013 64.0025 81.4226 64.1095C82.3724 64.7995 82.1815 67.2029 81.9183 68.2213C81.595 69.4722 81.2895 69.983 80.5397 70.9922Z" fill="#000001"/>
<path d="M95.1656 69.1423C95.6575 69.0545 95.8408 69.0763 96.3232 69.1055C100.423 71.1168 96.0905 87.0127 85.7281 81.6113C81.812 79.0954 81.2867 76.7866 81.8189 72.4717C83.5014 72.3231 85.4336 72.4087 87.1554 72.3052C90.2241 72.1203 92.4243 70.453 95.1656 69.1423Z" fill="#000001"/>
<path d="M89.0128 76.909C91.5993 76.583 93.2302 77.0352 95.1648 78.7708C94.9875 79.0766 94.7992 79.376 94.6001 79.6682C93.5221 81.2198 91.9286 81.879 90.1417 82.2017C87.4166 82.456 85.6753 81.7054 83.9841 79.6103C85.5832 77.9092 86.8351 77.4022 89.0128 76.909Z" fill="#EE3356"/>
<path d="M101.855 65.4205C102.064 65.512 102.075 65.5401 102.263 65.6786C101.476 67.4233 96.6895 67.5617 95.1205 66.2032C92.9149 64.2938 92.3746 62.3997 91.8256 59.6079C91.1957 56.4054 92.4356 52.5744 95.9811 51.8388C99.3364 51.3504 102.518 54.8808 102.914 57.9367C103.789 60.9946 103.757 62.8451 101.855 65.4205Z" fill="#FBFAFD"/>
<path d="M101.855 65.4205C94.6297 69.5347 92.501 52.8454 99.5502 54.6815C100.703 54.9817 100.434 56.9185 100.834 57.8318C101.348 58.1042 102.244 57.96 102.914 57.9367C103.789 60.9946 103.757 62.8451 101.855 65.4205Z" fill="#000001"/>
<path d="M93.9774 44.1527C95.7541 43.9766 99.9375 44.9072 98.937 47.305C97.9586 48.0202 97.1729 47.1675 96.3868 46.5143C94.154 44.535 92.943 48.3727 91.1621 46.2486C91.039 44.5093 92.6615 44.3747 93.9774 44.1527Z" fill="#000001"/>
<path d="M72.2508 50.0748C72.5304 50.0424 72.6233 50.0914 72.9041 50.15C73.3646 50.5369 73.5812 51.3777 73.7931 51.9754C69.7847 52.0477 69.5721 52.0194 67.2268 55.3075C66.7717 55.5589 66.9706 55.5321 66.4821 55.4228C66.3833 55.279 66.1763 55.0421 66.1765 54.8855C66.1828 51.4821 69.6612 50.3411 72.2508 50.0748Z" fill="#000001"/>
<path d="M148.689 6.38883C149.453 6.6124 150.277 5.92178 151.033 5.65262C154.161 4.53951 157.503 4.14129 160.794 4.02588C167.164 3.8025 172.346 8.03181 178.648 8.08734C181.974 8.12534 185.172 7.32286 188.389 6.63527C189.043 6.49566 189.851 6.40184 190.239 6.97191C190.408 8.85841 185.313 17.4998 184 19.315C185.674 21.3764 187.767 27.4052 188.665 30.1329C181.079 32.8436 174.38 33.9603 166.63 31.3668C163.507 30.3219 161.271 29.5417 157.952 29.3184C153.077 28.9905 149.417 30.759 145.089 31.5207C145.174 33.0995 144.468 38.7242 144.156 40.3328L144.034 40.6962C143.671 40.4948 144.797 37.8136 142.599 37.6136C142.377 37.7574 141.974 39.4549 141.724 40.0684L141.539 39.9259C141.602 38.9452 142.006 36.7258 142.147 35.6461C142.615 31.8951 143.123 28.1493 143.671 24.4092C144.429 19.1156 145.02 13.1426 145.958 7.95854C147.084 8.32866 146.945 10.227 146.981 11.204C147.38 9.4234 147.349 7.75612 148.689 6.38883Z" fill="#6835BA"/>
<path d="M145.958 7.9585C147.084 8.32862 146.945 10.227 146.981 11.204C146.813 13.5291 146.622 15.9216 146.336 18.2078C145.984 21.024 144.161 29.1474 145.089 31.5207C145.174 33.0995 144.468 38.7242 144.156 40.3327L144.034 40.6961C143.671 40.4947 144.797 37.8136 142.599 37.6135C142.377 37.7573 141.974 39.4549 141.724 40.0683L141.539 39.9259C141.602 38.9452 142.006 36.7257 142.147 35.646C142.615 31.8951 143.123 28.1492 143.671 24.4091C144.429 19.1156 145.02 13.1425 145.958 7.9585Z" fill="#1B0A53"/>
<path d="M29.3128 36.3481C29.5596 36.0776 29.8201 35.8202 30.0936 35.5767C37.1167 29.3644 45.0622 24.8162 54.7355 27.419C57.4488 28.149 63.2911 30.8326 65.1538 32.9611C65.8469 32.806 65.5892 32.9388 66.1207 32.4342C66.3057 32.7242 66.6662 33.327 66.8734 33.5639C66.8894 33.9613 66.9717 34.3669 66.7304 34.6889C63.5337 38.9544 56.3623 41.5305 51.8236 43.6601C48.8334 44.2468 44.4143 44.4899 41.03 43.7486C38.3657 43.165 31.3496 39.8699 29.2864 37.5545C29.0219 37.2579 29.2155 36.7081 29.3128 36.3481Z" fill="#3AA84E"/>
<path d="M29.3127 36.3481C29.5596 36.0776 29.8201 35.8202 30.0936 35.5767C37.1167 29.3644 45.0622 24.8162 54.7355 27.419C57.4487 28.149 63.291 30.8326 65.1538 32.9611C58.3849 33.5379 51.4437 32.4661 44.7192 33.5808C41.9745 34.0358 31.3257 36.8041 29.3127 36.3481Z" fill="#8ACB4F"/>
<path d="M141.539 39.9259L141.724 40.0683C141.974 39.4549 142.377 37.7573 142.599 37.6135C144.798 37.8136 143.672 40.4947 144.035 40.6961L144.156 40.3327C144.431 41.1833 144.715 41.2094 145.582 41.6682C147.726 45.7717 146.533 48.8626 143.033 51.5931C141.395 53.4224 141.678 61.2518 140.707 63.8065C140.515 64.3111 139.101 64.2611 138.651 63.9825C138.301 63.0584 139.788 54.4592 139.977 52.6728L139.82 52.2841C139.138 52.0661 136.807 52.3628 136.003 52.4402C132.472 55.1386 131.142 57.6364 126.421 59.6097C126.064 59.4816 125.71 59.3419 125.362 59.1911C122.985 58.1419 119.231 54.2475 120.801 51.5267C122.79 48.0799 127.861 46.6075 130.706 44.0833C131.905 43.0191 132.122 40.2379 134.26 39.7902C136.515 39.1639 136.38 40.4667 137.483 41.0024C138.794 40.5089 140.783 40.6904 141.539 39.9259Z" fill="#552B9C"/>
<path d="M139.977 52.6729C140.92 50.9527 140.481 48.6893 139.464 47.205C139.261 46.9093 139.153 46.4003 139.293 46.0653C140.785 45.6252 141.452 46.9083 142.083 48.118C142.625 49.1563 142.074 50.5645 143.033 51.5932C141.394 53.4225 141.677 61.2519 140.706 63.8066C140.515 64.3112 139.101 64.2612 138.65 63.9826C138.301 63.0585 139.787 54.4593 139.977 52.6729Z" fill="#371975"/>
<path d="M66.8404 104.084C68.0248 103.579 73.6296 106.018 75.1929 106.19C75.4402 106.217 75.513 106.369 75.6167 106.564C74.9893 111.004 73.4417 114.164 68.5964 115.021C68.9121 116.944 69.2423 118.662 68.1782 120.458C67.2137 122.086 65.045 122.218 63.6056 121.164C60.8116 119.117 59.8487 114.855 59.2412 111.661C61.6835 107.976 63.1862 109.082 65.812 106.264C65.9901 106.073 66.6832 104.45 66.8404 104.084Z" fill="#552B9C"/>
<path d="M68.8763 31.8859C68.3657 26.4187 69.0895 20.2983 72.9419 16.043C73.9097 14.974 75.2633 15.1559 76.1585 16.2322C78.4004 18.9276 73.8865 21.6927 73.1308 24.2235C72.3397 26.6303 72.09 28.4387 71.9376 30.9188C71.8815 32.3829 71.9567 33.9752 71.9977 35.4495C70.8811 35.5017 69.9479 35.7333 69.1557 35.0433C68.7161 34.0665 69.2529 33.0768 68.7742 32.4328C68.1784 32.243 68.3358 32.304 67.6631 32.4541C67.2177 32.7673 67.1084 33.0827 66.8733 33.5639C66.6661 33.327 66.3056 32.7242 66.1206 32.4341C66.9562 31.8932 67.9047 31.9269 68.8763 31.8859Z" fill="#371975"/>
<path d="M16.0194 30.9907C16.8531 31.3889 17.8361 34.4257 18.8614 35.0392C19.4049 35.4703 20.4456 35.5431 20.9978 35.8856C24.9894 38.3606 20.0635 39.2716 18.6297 40.8732C17.6381 41.9804 17.1627 43.1291 16.576 44.3511L16.3341 44.5021C15.3395 44.0938 13.7101 40.5238 12.6222 39.6585C11.628 38.8678 10.7783 39.2537 10.4368 38.0084C10.6592 36.6536 12.8309 36.0907 13.6443 35.2115C14.7434 34.0233 15.0712 32.4136 16.0194 30.9907Z" fill="#E3DDF9"/>
<path d="M166.281 58.5618C167.087 59.3186 167.661 61.9307 168.908 63.0486C169.918 63.9545 171.721 64.3247 172.177 64.9597C171.888 66.1814 169.084 66.708 168.245 67.7815C167.347 68.931 167.731 70.3259 166.939 71.7321C164.955 71.4918 165.491 69.4417 164.523 68.0281C163.679 66.7946 161.653 66.5421 160.829 65.4253C160.786 64.3387 162.426 64.3365 163.41 63.1775L163.485 63.0876C164.525 61.8665 165.291 59.9872 166.281 58.5618Z" fill="#E3DDF9"/>
<path d="M32.6837 111.568C33.7315 112.033 34.2708 115.5 35.2255 116.31C35.9903 116.958 37.727 116.692 38.0844 117.711C37.5431 119.403 34.6767 120.556 33.2405 123.091L32.8737 123.231C32.3618 123.087 28.6929 118.693 27.9463 117.924C31.6453 115.445 30.779 114.742 32.6837 111.568Z" fill="#E3DDF9"/>
<path d="M51.0157 162.847C51.0784 163.652 51.0647 164.566 51.4811 165.237C51.8297 165.489 51.8929 165.496 52.3203 165.565C50.5851 165.757 41.4485 165.844 40.5879 164.499L40.78 164.223C42.7026 163.212 48.6756 162.899 51.0157 162.847Z" fill="#E3DDF9"/>
<path d="M160.786 162.608C162.718 163.088 169.148 163.6 169.68 164.16L169.834 164.492C169.162 166.048 161.404 165.905 159.742 165.373C160.729 165.055 160.695 163.488 160.786 162.608Z" fill="#E3DDF9"/>
<path d="M145.958 7.95842C146.137 6.09056 145.187 5.83291 145.215 4.21872C145.229 3.40217 145.998 2.3231 146.87 2.07904C147.368 1.93954 147.902 2.00739 148.35 2.2672C150.052 3.23493 149.471 5.04907 148.689 6.38872C147.349 7.75601 147.38 9.42328 146.981 11.2039C146.945 10.2269 147.084 8.32855 145.958 7.95842Z" fill="#371975"/>
</g>
<defs>
<clipPath id="clip0_90_1238">
<rect width="223.684" height="173" fill="white"/>
</clipPath>
</defs>
</svg>
