<svg width="165" height="173" viewBox="0 0 165 173" fill="none" xmlns="http://www.w3.org/2000/svg">
<g clip-path="url(#clip0_90_1181)">
<path d="M46.7361 96.9209C46.9669 96.5132 47.6438 91.5638 47.8557 90.6884C51.9333 73.8379 66.4135 58.4141 83.9024 55.7579C86.4363 55.3729 89.0074 55.2161 91.6448 55.0698C91.9659 56.7553 91.6292 59.485 92.3925 60.5939C93.8684 61.3331 94.6685 59.2163 95.047 58.1981L95.5445 58.2377C100.064 59.1159 108.948 62.7365 113.38 60.9984C115.785 62.782 119.024 64.8374 121.079 66.8295C129.141 74.645 134.142 84.1773 135.745 95.2663C137.35 106.37 135.875 113.195 132.692 123.502C135.071 127.012 135.143 130.947 136.628 134.148C138.063 137.243 140.016 136.082 141.168 140.96C139.067 145.08 138.544 147.91 133.239 148.373C131.24 147.507 130.399 146.781 129.396 144.737C128.806 145.579 128.681 145.834 127.8 146.449C125.939 147.749 124.528 146.817 124.237 144.684C124.017 143.067 124.801 141.098 125.489 139.552C125.032 138.396 124.69 137.439 124.407 136.221C119.921 140.9 116.918 143.618 111.126 146.721C111.442 148.582 111.557 150.541 111.991 152.442C112.794 155.959 116.063 163.97 109.697 164.47C106.549 164.716 101.746 164.747 98.5223 164.481C94.3594 161.107 96.9399 156.428 101.429 156.032C101.054 154.183 100.966 152.258 100.853 150.372C95.1984 151.312 90.906 151.365 85.2037 150.95C85.261 153.781 86.2456 159.481 84.5582 161.721C82.8205 164.027 71.9528 164.483 70.2415 162.34C67.5999 159.033 70.1344 155.344 74.599 155.088C74.5542 153.975 74.502 148.779 74.3559 148.157C71.9107 147.075 69.3548 146.059 67.0957 144.487C59.8667 139.455 53.2688 132.014 50.0733 123.759C48.7988 120.466 47.8221 116.581 47.0685 113.139C46.9773 112.723 46.7638 111.155 46.5537 110.937C46.9071 109.931 46.6166 99.115 46.7361 96.9209Z" fill="#5D2DAA"/>
<path d="M87.9123 98.8469L87.7163 98.9497C87.6428 97.3234 89.2381 94.6744 90.3157 93.5021C93.0295 90.5505 96.705 89.3386 99.8711 92.4778C102.265 94.7258 103.442 97.1995 103.605 100.465C103.981 108.006 96.3962 115.623 89.5353 109.054C89.0453 108.585 88.0505 107.439 88.4774 106.716C87.4587 103.416 88.0773 101.994 87.919 98.9681L87.9123 98.8469Z" fill="#FBFAFC"/>
<path d="M89.7402 96.3973C91.7716 93.9755 93.6873 93.466 96.3776 95.6121C99.3327 97.9698 98.781 104.052 96.4022 106.606C94.012 109.296 90.8375 109.548 88.4777 106.716C87.459 103.416 88.0776 101.994 87.9194 98.968L87.9126 98.8468C88.7268 98.7609 89.7508 98.846 90.3572 98.5222C90.7827 97.7742 90.1435 97.0839 89.7402 96.3973Z" fill="#030513"/>
<path d="M60.1216 96.9679C58.4299 95.3444 62.1432 88.3854 66.773 88.6337C74.7093 89.0592 75.9576 102.866 71.0741 107.388C69.8015 108.582 68.094 109.2 66.352 109.097C63.8156 108.964 60.5336 107.267 60.1426 104.506L60.3145 104.1C60.3113 104.073 59.9302 102.865 59.8706 102.63C59.4948 101.148 59.3095 98.2979 60.1216 96.9679Z" fill="#FBFAFC"/>
<path d="M60.1216 96.9681C60.8925 96.7101 60.8601 96.8568 61.2594 96.3091C61.3206 95.8945 61.43 95.2219 61.412 94.8063C61.3129 92.5229 63.6851 92.4332 65.4482 92.6368C69.1857 93.0687 70.0044 97.4863 69.5099 100.558C68.8099 105.306 63.7076 109.281 60.3145 104.1C60.3113 104.073 59.9302 102.866 59.8706 102.63C59.4948 101.148 59.3095 98.2981 60.1216 96.9681Z" fill="#030513"/>
<path d="M75.9304 121.915L75.7949 122.028C73.1581 120.085 69.8312 115.576 70.6132 112.08C70.7511 111.463 70.8994 110.84 71.4604 110.483C73.1419 110.111 78.7449 113.076 81.4107 112.645C83.2346 112.462 85.5775 110.412 87.3931 110.981C89.7361 111.715 88.5592 118.176 86.8456 118.89L86.7308 118.695C84.1028 122.621 80.4141 124.665 75.9304 121.915Z" fill="#04030B"/>
<path d="M73.8975 119.356C74.0198 119.235 74.1438 119.116 74.2694 118.999C76.7453 116.691 81.4478 116.389 84.6171 117.226C85.5279 117.467 86.1007 118.022 86.7307 118.695C84.1026 122.621 80.414 124.665 75.9303 121.915C74.9579 121.04 74.5747 120.431 73.8975 119.356Z" fill="#E1457A"/>
<path d="M95.2925 80.7684C98.6606 80.5364 101.443 81.862 103.546 84.6317C104.352 85.6923 103.631 86.9437 102.554 87.5465C101.753 87.2545 100.106 85.1693 99.4893 84.4559C97.8456 84.366 94.9493 84.618 94.2456 82.9754C94.2572 82.0937 94.7532 81.4406 95.2925 80.7684Z" fill="#0A0422"/>
<path d="M95.5824 81.7627C96.1233 81.7825 96.6196 81.7424 97.0693 82.0299C97.2623 82.5531 97.2171 82.3764 97.0551 82.9844C96.5704 83.0572 96.0951 83.1921 95.6753 82.9564C95.4108 82.4199 95.5152 82.4565 95.5824 81.7627Z" fill="#181436"/>
<path d="M66.9324 78.6777C68.0146 78.6387 68.7197 78.6579 69.7674 79.2443C70.9743 79.9197 71.2199 82.1026 69.6954 82.5096C69.0259 82.6885 67.5816 81.2078 67.0125 80.7049L65.4383 81.5072C64.4993 82.1962 63.1099 83.5837 61.9879 83.3915C61.7422 83.2154 61.4671 83.0807 61.4613 82.7291C61.418 80.098 64.8698 79.0163 66.9324 78.6777Z" fill="#030513"/>
<path d="M27.322 17.4678C32.3224 16.8953 42.9415 17.2967 47.1278 19.9789C50.5129 22.1479 53.1881 25.6176 54.0782 29.5476C54.9311 33.3131 54.9795 41.8682 54.1674 45.5273C53.7246 47.4575 52.9827 49.3067 51.9689 51.0079C49.7256 54.7198 46.8655 55.9882 42.866 56.9892C42.9264 58.8119 43.0943 61.0836 42.817 62.8357C41.3637 64.3346 40.9014 64.6211 38.9426 63.6635C36.4832 62.1694 34.7668 59.6132 32.3053 58.3393C31.4942 57.9194 29.1096 57.9047 28.1191 57.8807C23.2108 57.7617 19.0952 56.6258 15.2282 53.5364C12.171 51.0938 10.7207 46.0281 10.4952 42.2737C10.1401 36.3626 9.98638 27.8933 14.126 23.2375C18.0025 18.8774 21.846 17.9119 27.322 17.4678Z" fill="#7CCA43"/>
<path d="M26.8276 29.0559C29.9641 28.6155 30.7183 30.511 32.4254 32.5657C33.289 31.8677 34.0209 30.7419 34.8064 30.1847C37.2473 28.4531 40.4891 28.8205 42.3038 31.0562C43.5123 32.5304 44.0725 34.431 43.8573 36.3251C43.4317 39.9158 40.4551 42.7972 37.7983 44.9351C36.0965 46.3677 34.1595 47.4961 32.387 49.0203C28.6286 44.8262 22.3211 42.4921 21.3891 36.6632C21.115 34.9495 21.5616 32.4866 22.6797 31.1349C23.9947 29.545 24.9773 29.3028 26.8276 29.0559Z" fill="#FBFAFC"/>
<path d="M96.0166 54.4277C96.9068 53.5992 98.8082 49.3774 100.212 47.6779C104.395 42.613 111.426 38.5813 117.966 37.9687C122.873 37.509 127.945 37.9908 132.631 39.4798C133.369 39.7141 134.917 40.1071 135.463 40.5584L135.494 41.0703C134.332 44.9538 131.567 50.0901 128.82 53.1732C127.137 55.0616 124.418 56.775 122.241 58.0268C120.59 58.9269 118.779 59.7184 116.954 60.1623C116.275 60.3378 113.834 60.7757 113.38 60.9983C108.947 62.7364 100.063 59.1157 95.5444 58.2376C95.7557 57.0023 95.8963 57.4574 96.8032 56.3644L96.8772 56.2745C96.5907 55.8881 96.2201 54.9121 96.0166 54.4277Z" fill="#37A54E"/>
<path d="M96.0166 54.4277C96.9069 53.5992 98.8082 49.3774 100.212 47.6779C104.395 42.613 111.426 38.5813 117.966 37.9687C122.873 37.509 127.945 37.9908 132.631 39.4798C133.369 39.7141 134.917 40.1071 135.464 40.5584L135.494 41.0703C132.535 41.2518 129.606 42.1622 126.764 42.9917C119.488 45.1156 112.216 47.4094 105.616 51.212C102.699 52.8923 99.6276 54.2895 96.8772 56.2745C96.5907 55.8881 96.2201 54.9121 96.0166 54.4277Z" fill="#7CCA43"/>
<path d="M28.2547 91.5902C27.3483 89.8543 27.4638 88.7994 27.9545 86.9333C28.3794 85.3171 28.6221 83.7227 29.3792 82.2063C30.2917 80.3376 31.9296 78.924 33.9116 78.2946C34.4257 78.1272 36.3265 77.6972 36.7391 78.0099C37.4702 78.5642 37.3173 79.0763 38.3677 78.1043C38.9734 77.5438 39.5266 77.2676 40.3422 76.9534C45.5122 78.9783 44.8593 84.0616 41.7225 87.6316C41.7075 91.8709 41.9572 95.5652 46.7363 96.9209C46.6167 99.1151 46.9073 109.931 46.5539 110.937C43.8643 110.733 39.4919 108.408 37.5625 106.493C35.7441 107.47 33.6747 108.516 31.6717 107.369C24.4785 103.25 25.036 98.1125 28.2547 91.5902Z" fill="#4C2591"/>
<path d="M91.6446 55.0698C91.2139 51.739 90.5554 49.0861 88.6885 46.1539C87.2641 43.8331 83.6081 42.2805 82.8642 39.6684C82.41 38.0737 83.5711 35.8225 85.4112 35.7695C89.9171 35.6396 92.8124 43.1344 94.1195 46.5346C94.9255 48.6314 95.1654 52.3629 95.3863 54.5943L96.0165 54.4279C96.22 54.9122 96.5906 55.8882 96.8771 56.2746L96.8032 56.3645C95.8963 57.4575 95.7556 57.0024 95.5444 58.2377L95.0468 58.198C94.6683 59.2162 93.8683 61.333 92.3923 60.5939C91.629 59.485 91.9658 56.7553 91.6446 55.0698Z" fill="#4C2591"/>
<path d="M96.0166 54.428C96.2201 54.9123 96.5907 55.8883 96.8772 56.2747L96.8032 56.3646C95.8964 57.4576 95.7557 57.0026 95.5445 58.2378L95.0469 58.1982C95.252 57.0475 95.3076 55.7694 95.3864 54.5944L96.0166 54.428Z" fill="#5FB153"/>
<path d="M153.1 122.228C154.384 125.886 157.952 127.236 158.334 129.763C158.021 130.81 155.688 132.17 154.577 133.195C154.404 135.33 155.39 137.715 152.975 138.424C152.351 137.654 152.593 134.504 152.611 133.42C151.933 132.954 146.833 129.916 148.11 128.867C150.748 126.699 151.87 125.449 153.1 122.228Z" fill="#EAE5FA"/>
</g>
<defs>
<clipPath id="clip0_90_1181">
<rect width="165" height="172.734" fill="white"/>
</clipPath>
</defs>
</svg>
