<svg width="145" height="159" viewBox="0 0 145 159" fill="none" xmlns="http://www.w3.org/2000/svg">
<g clip-path="url(#clip0_90_904)">
<path d="M69.0097 39.4067C69.3597 39.7079 70.0279 39.7025 70.5097 39.7129C87.999 40.089 103.521 52.444 109.999 68.393C111.905 73.2087 113.055 78.29 113.41 83.4569C113.821 89.1631 113.204 94.8969 111.589 100.385C111.06 102.194 110.108 104.523 109.722 106.206C108.998 109.361 110.306 112.81 107.854 115.737C106.049 117.892 103.513 117.77 101.425 119.049C100.309 119.733 98.1395 121.899 97.0877 122.851C95.784 124.031 89.4085 128.072 87.9446 128.438C87.8961 130.746 87.809 133.157 87.8057 135.457C89.8166 135.633 90.9857 136.344 92.4748 137.671L92.589 137.659C95.8089 137.337 112.496 139.005 113.361 142.396C112.387 144.713 104.71 145.902 102.339 146.248C86.1752 148.602 69.6656 149.097 53.3798 147.829C47.9802 147.409 42.7185 147.305 37.4165 146.301C34.1666 145.701 30.742 145.455 27.6448 144.177C26.8569 143.867 24.8704 142.834 25.6043 141.866C26.6612 140.473 29.6126 139.824 31.2482 139.356C34.0534 138.704 44.4755 136.968 46.8709 137.898C48.1196 136.338 49.4537 135.713 51.3154 135.291C51.5043 133.252 51.3426 131.112 51.5124 129.011C49.9378 128.396 48.7223 127.599 47.2741 126.807C41.4714 123.631 36.4687 118.798 32.8728 113.205C25.8998 102.346 23.5341 89.158 26.2974 76.5517C28.5861 66.0409 33.3935 57.0409 41.6527 50.0904C42.9165 49.027 44.3901 47.6311 45.739 46.7641C47.6045 46.9054 49.3643 47.0299 51.2363 46.917C52.407 46.852 53.5721 46.7086 54.7238 46.4879C56.6384 46.1014 58.6122 45.4303 60.4812 44.842C61.8428 44.4133 63.9889 44.1047 64.931 43.0462C64.9456 43.345 64.9096 43.9112 65.1097 44.1048C65.8568 44.828 67.6754 45.2409 68.5329 44.6182C68.701 44.3098 68.9672 39.989 69.0097 39.4067Z" fill="#6836B3"/>
<path d="M78.0149 131.983C78.6814 131.155 81.9212 130.565 83.0764 130.143C84.6107 129.583 86.3881 128.831 87.9448 128.438C87.8963 130.747 87.8092 133.157 87.8059 135.458C89.8168 135.633 90.9859 136.344 92.4749 137.672L92.5892 137.659C95.8091 137.337 112.496 139.005 113.361 142.396C112.388 144.713 104.71 145.902 102.339 146.248C86.1754 148.602 69.6658 149.097 53.38 147.829C47.9803 147.409 42.7187 147.305 37.4167 146.301C34.1668 145.701 30.7422 145.455 27.6449 144.177C26.8571 143.867 24.8705 142.834 25.6045 141.866C26.6614 140.473 29.6128 139.824 31.2484 139.356C34.0535 138.704 44.4757 136.968 46.871 137.898C46.3651 139.817 46.3239 140.81 47.1647 142.552C49.3951 144.091 52.5078 143.573 55.0822 143.605C62.0931 143.693 61.9697 141.661 61.7124 135.783C63.3968 136.532 66.8782 136.245 68.8491 136.29C71.0499 136.349 73.2514 136.383 75.4529 136.392C75.9381 136.397 77.4268 136.47 77.7829 136.422C77.9398 135.469 78.0101 132.918 78.0149 131.983Z" fill="#E0DCF3"/>
<path d="M78.0149 131.983C78.6814 131.155 81.9213 130.565 83.0765 130.143C84.6107 129.583 86.3881 128.831 87.9449 128.438C87.8963 130.747 87.8092 133.157 87.806 135.458C89.8168 135.633 90.9859 136.344 92.475 137.672C94.0823 140.291 92.8191 143.23 89.7298 143.407C86.8732 143.571 83.3721 143.516 80.517 143.312C79.3737 143.232 78.3778 142.114 77.7738 141.209C77.5414 139.557 77.6868 138.075 77.783 136.422C77.9399 135.469 78.0101 132.918 78.0149 131.983Z" fill="#421E7D"/>
<path d="M61.457 132.232C65.7328 132.987 73.7551 132.98 78.0146 131.983C78.0098 132.918 77.9396 135.469 77.7827 136.422C77.4266 136.47 75.9379 136.396 75.4526 136.392C73.2512 136.383 71.0497 136.349 68.8489 136.29C66.878 136.245 63.3965 136.532 61.7122 135.783C61.6463 134.598 61.5614 133.414 61.457 132.232Z" fill="white"/>
<path d="M63.0137 90.8357L63.2982 90.8037L63.3638 90.9448C63.1352 91.4781 62.3109 92.1501 61.8447 92.503C60.3719 93.6177 57.8029 93.8166 55.9993 93.5265C54.0277 93.2278 52.2647 92.1341 51.1216 90.5003C47.7246 85.6722 48.3669 77.5647 53.4104 74.1064C55.7402 72.5087 58.039 72.1603 60.4571 73.8729C61.2464 74.4319 63.1873 75.5333 62.9769 76.5895C63.2233 76.95 63.559 77.3316 63.5773 77.7393L63.3537 77.8597C64.7785 78.6444 64.2241 79.1543 64.7823 79.8065C65.572 80.5415 65.5068 82.5591 65.5893 83.6976C65.8145 86.8015 64.6992 88.4016 63.0137 90.8357Z" fill="#03040E"/>
<path d="M63.0137 90.8357L63.2982 90.8037L63.3638 90.9448C63.1352 91.4781 62.3109 92.1501 61.8447 92.503C60.3719 93.6177 57.8029 93.8166 55.9993 93.5265C54.0277 93.2278 52.2647 92.1341 51.1216 90.5003C47.7246 85.6722 48.3669 77.5647 53.4104 74.1064C55.7402 72.5087 58.039 72.1603 60.4571 73.8729C61.2464 74.4319 63.1873 75.5333 62.9769 76.5895C60.4854 74.5397 58.0429 75.0795 56.1943 77.5137C53.5084 81.0507 53.6512 87.6497 57.3444 90.4523C58.936 91.66 61.3025 91.6929 63.0137 90.8357Z" fill="white"/>
<path d="M63.3537 77.8596C64.7785 78.6444 64.2241 79.1543 64.7823 79.8065C64.5785 82.1588 61.4918 80.14 63.3537 77.8596Z" fill="white"/>
<path d="M92.5978 90.2627L92.7829 90.4314C92.6891 90.8077 92.6202 90.8189 92.3198 91.0647C89.2567 93.5715 84.4441 93.0344 81.9358 89.9176C79.7919 87.2249 79.2782 84.5174 79.6413 81.156C80.4467 73.7006 87.852 68.1692 93.5947 75.3454C94.6949 76.7202 95.6247 79.23 95.3915 81.0115C95.8944 83.356 95.7875 85.9912 94.4795 88.0861C94.0815 88.7236 92.7003 90.0673 92.5978 90.2627Z" fill="white"/>
<path d="M92.5977 90.2627C86.7582 93.114 84.4461 85.2973 85.4252 80.9977C86.1818 77.675 86.9824 74.8642 91.291 75.4112C92.9482 75.6215 93.9026 77.0258 94.737 78.2535C94.4034 78.5973 93.9523 78.9994 93.5966 79.3361C94.1473 79.9126 94.7964 80.4742 95.3914 81.0114C95.8944 83.3559 95.7874 85.9911 94.4795 88.0861C94.0814 88.7236 92.7002 90.0673 92.5977 90.2627Z" fill="#050712"/>
<path d="M69.1223 104.857C68.3913 104.414 67.2758 102.798 67.1467 101.979C66.6611 98.8969 70.7912 94.9893 73.5432 94.3832C76.3056 93.7749 79.8385 95.8391 80.0552 98.8228C80.1547 100.193 80.2598 102.1 79.5671 103.352C79.3252 103.785 78.6487 103.838 78.2117 103.883C76.9443 103.992 75.6832 104.165 74.4329 104.399C72.952 104.692 70.4179 105.514 69.1223 104.857Z" fill="#020110"/>
<path d="M69.1225 104.857C67.5035 100.993 72.5273 100.575 75.1073 101.128C76.6826 101.466 77.4694 102.591 78.2119 103.882C76.9445 103.992 75.6834 104.164 74.4331 104.399C72.9522 104.691 70.4181 105.514 69.1225 104.857Z" fill="#DD2864"/>
<path d="M56.6084 62.226C57.2991 62.2001 58.965 62.354 59.2341 63.1371C60.4374 66.6402 56.1109 64.9915 54.4706 65.6876L54.38 65.7267C53.4226 66.1333 52.3362 66.9443 51.464 67.5541C48.0807 69.8877 48.0116 62.8104 56.6084 62.226Z" fill="#050712"/>
<path d="M86.6804 61.3401C89.533 61.2946 94.5726 62.5288 94.4916 66.5462C94.4848 66.8841 94.1785 67.0625 93.922 67.2215C93.4376 67.2627 93.2671 67.1082 92.8613 66.8577C91.5069 65.7593 89.6198 64.2725 87.8015 64.2724C86.6846 64.2722 84.9805 64.7995 84.2311 63.6225C84.1263 62.5326 85.7651 61.5986 86.6804 61.3401Z" fill="#050712"/>
<path d="M23.8869 26.9156C23.9141 26.9093 23.9411 26.903 23.9683 26.8966C33.3726 22.7348 43.7966 21.4325 53.1613 26.6414C57.8101 29.2272 61.299 33.8446 64.1938 38.2458C64.4774 38.6754 64.7828 39.1635 65.1014 39.5644C64.7885 40.1831 65.2869 41.4854 65.1303 42.5573L64.9312 43.0461C63.9891 44.1046 61.843 44.4133 60.4814 44.8419C58.6124 45.4303 56.6386 46.1013 54.724 46.4879C53.5724 46.7085 52.4073 46.8519 51.2365 46.9169C49.3645 47.0298 47.6047 46.9053 45.7392 46.764C40.5401 46.3947 33.4212 42.5978 29.9624 38.4632C28.1164 36.2565 23.8588 30.6166 23.4342 27.4464C23.4071 27.2437 23.6912 27.0795 23.8869 26.9156Z" fill="#3CA84D"/>
<path d="M23.8867 26.9156C23.9139 26.9093 23.941 26.903 23.9681 26.8966C33.3725 22.7348 43.7965 21.4325 53.1611 26.6414C57.8099 29.2272 61.2988 33.8446 64.1936 38.2458C64.4772 38.6754 64.7827 39.1635 65.1013 39.5644C64.7883 40.1831 65.2868 41.4854 65.1302 42.5573C63.747 41.6843 62.0328 39.8053 60.5113 38.9431C53.8978 35.1953 44.9716 31.4535 37.5945 29.8072C34.8817 29.1877 32.1567 28.6233 29.4211 28.1141C28.0001 27.8425 25.1477 27.3875 23.8867 26.9156Z" fill="#83CB42"/>
<path d="M65.1014 39.5645C65.6418 37.868 65.816 34.9367 66.3228 32.9428C67.223 29.4015 70.5097 23.6995 73.5326 21.5661C74.6844 20.7533 76.3948 21.1245 77.6541 21.468C78.1051 23.1287 78.0881 23.6025 77.9722 25.353C77.6276 25.7697 75.3485 27.6397 74.7259 28.2265C71.4835 31.2823 70.1194 35.1851 69.0098 39.4068C68.9674 39.9891 68.7011 44.3099 68.5331 44.6183C67.6755 45.2409 65.8569 44.828 65.1099 44.1049C64.9098 43.9113 64.9457 43.345 64.9312 43.0462L65.1302 42.5574C65.2869 41.4855 64.7884 40.1832 65.1014 39.5645Z" fill="#421E7D"/>
</g>
<defs>
<clipPath id="clip0_90_904">
<rect width="145" height="158.594" fill="white"/>
</clipPath>
</defs>
</svg>
