<svg width="145" height="159" viewBox="0 0 145 159" fill="none" xmlns="http://www.w3.org/2000/svg">
<g clip-path="url(#clip0_90_885)">
<path d="M66.4721 38.3827C69.7116 38.319 72.0836 38.8399 75.1457 39.6153C83.5631 41.7469 89.569 45.4478 95.7357 51.3792C104.825 60.2754 110.031 72.4018 110.223 85.1186C110.283 88.1988 110.02 92.8462 109.345 95.8096C107.395 104.372 103.015 112.884 96.9886 119.28C94.5198 121.9 88.2784 126.633 84.6931 127.846L84.6104 127.876C83.2977 128.362 81.8432 129.157 80.5633 129.602C78.6133 130.281 76.4316 130.817 74.4345 131.387C74.3863 132.807 74.3444 135.396 74.0691 136.737C72.2549 136.684 59.4982 136.88 58.3264 136.409L58.0679 135.8C58.0843 134.706 57.9598 133.129 57.9057 132.002C57.6312 131.572 57.5352 131.704 57.1003 131.612C54.029 130.961 50.8827 129.974 47.8701 129.085C47.8932 129.118 44.0459 127.107 43.6057 126.868C22.6365 115.453 15.7893 88.8342 24.3881 67.3582C27.2154 60.2967 34.0413 49.6305 41.2906 46.2297C42.3878 46.0635 44.3321 45.9781 45.5298 45.9757C48.1991 45.9701 60.7137 42.938 61.5792 40.9019C62.1003 41.4523 62.1822 43.1181 62.7273 43.5677C63.3839 44.1096 64.7226 43.9294 65.5323 43.8695C65.9154 42.2912 66.0257 39.796 66.4721 38.3827Z" fill="#6A36B6"/>
<path d="M57.9055 132.002C61.9338 132.941 70.318 132.243 74.4342 131.387C74.3861 132.807 74.3442 135.397 74.0689 136.737C72.2547 136.684 59.498 136.88 58.3262 136.409L58.0677 135.8C58.0841 134.706 57.9596 133.129 57.9055 132.002Z" fill="white"/>
<path d="M58.7473 89.8181L59.0418 90.0174L58.9945 90.3525C55.9494 94.6979 48.5269 94.4605 45.9073 89.801C44.1851 86.7377 43.5254 84.2338 44.2626 80.7769C45.2126 76.3212 48.7767 72.0299 53.7041 72.8347C55.1236 73.0796 57.3613 74.5868 58.2494 75.6928C58.317 75.7769 58.2258 75.9943 58.1963 76.111C58.5704 76.6129 59.1914 77.0076 59.2959 77.5985L59.1803 78.0186C60.493 78.7719 59.9862 79.2554 60.4459 80.4706L60.6704 80.3863C61.3974 82.0687 61.3689 85.0385 60.6514 86.7557C60.0567 88.1795 59.6305 88.6184 58.7473 89.8181Z" fill="black"/>
<path d="M58.7473 89.8181L59.0418 90.0174L58.9945 90.3525C55.9494 94.6979 48.5269 94.4605 45.9073 89.801C44.1851 86.7377 43.5254 84.2338 44.2626 80.7769C45.2126 76.3212 48.7767 72.0299 53.7041 72.8347C55.1236 73.0796 57.3613 74.5868 58.2494 75.6928C58.317 75.7769 58.2258 75.9943 58.1963 76.111C49.1967 71.7315 46.9791 87.8425 53.9255 90.973C55.7159 91.7797 57.4556 90.9994 58.7473 89.8181Z" fill="white"/>
<path d="M60.4461 80.4705C59.28 80.6474 57.8772 79.9649 58.3293 78.5987C58.7778 78.1177 58.5892 78.1967 59.1805 78.0186C60.4931 78.7719 59.9863 79.2553 60.4461 80.4705Z" fill="white"/>
<path d="M76.9665 93.2015C77.5874 93.1548 78.5272 93.0333 79.0616 93.3866C81.7707 95.1031 80.1669 100.198 78.7979 102.42C75.2937 108.108 68.2057 108.639 62.9223 105.536C60.5363 103.945 59.1339 102.479 58.4223 99.61C57.7799 97.5369 57.9444 93.8175 60.8277 93.7136C62.2624 93.6619 64.8675 94.3273 66.4113 94.5803C70.4027 95.2344 73.1773 94.0099 76.9665 93.2015Z" fill="black"/>
<path d="M68.8437 100.315C69.6912 100.318 70.5353 100.421 71.3587 100.622C73.765 101.213 74.8497 102.138 76.086 104.176C76.0533 104.213 76.0199 104.249 75.9856 104.284C73.9416 106.406 71.7642 106.978 68.9325 107.031C65.9502 106.747 63.0331 105.765 61.3057 103.16C63.333 101.096 66.063 100.48 68.8437 100.315Z" fill="#EE335C"/>
<path d="M83.5848 80.6009C84.4782 80.4838 85.7533 80.4544 86.8608 80.6563C89.0776 81.0607 93.1111 83.1291 93.0573 85.7643C93.0523 86.0094 92.8084 86.1132 92.6047 86.2391C92.3717 86.2555 91.9661 86.2765 91.7754 86.1656C89.9367 85.0962 89.2649 84.4668 87.192 83.7625C83.5319 83.2924 81.4356 83.8545 78.9383 86.2831C78.7194 86.496 78.3714 86.3828 78.1107 86.2865C77.5465 85.6594 77.5295 84.1005 78.0124 83.477C79.2357 81.8977 81.6821 80.9718 83.5848 80.6009Z" fill="black"/>
<path d="M51.8399 62.2087C52.258 62.1703 52.6788 62.1735 53.0961 62.2184C55.8128 62.5207 56.2313 66.039 52.3625 65.5306C50.4743 65.2825 48.2446 66.4346 46.6846 67.5595C46.3685 67.7909 45.7793 68.417 45.4787 68.7191C43.2764 66.5596 44.8585 65.2314 46.9375 63.8481C48.3838 62.8859 50.1287 62.4215 51.8399 62.2087Z" fill="black"/>
<path d="M84.29 63.071C88.5977 62.8091 93.5338 68.0287 90.9014 69.1509C90.3926 69.1159 90.1362 68.923 89.6948 68.6677C87.7278 67.2299 86.5001 66.1958 84.0176 66.2036C83.4873 66.2053 82.2018 66.0904 81.7127 65.9396C81.3505 65.415 81.396 65.1325 81.5505 64.5274C81.9025 63.1494 83.1331 63.1661 84.29 63.071Z" fill="black"/>
<path d="M74.4344 131.387C76.4316 130.817 78.6132 130.281 80.5632 129.603C81.8432 129.157 83.2977 128.362 84.6103 127.876L84.693 127.846L84.5328 135.205C86.92 135.621 87.7393 136.151 89.3486 137.966C91.3131 137.442 96.1136 138.426 98.3824 138.645C102.434 139.037 107.501 139.283 110.554 142.301C109.481 143.297 108.374 143.99 106.996 144.49C105.436 145.055 103.742 145.36 102.118 145.695C95.8218 146.994 89.6427 147.325 83.2522 147.751C75.8589 148.244 68.5615 148.784 61.1427 148.51C57.8103 148.387 54.4727 148.122 51.1432 147.923C45.3403 147.574 25.6989 146.759 22.2684 143.06C22.0639 142.841 21.9669 142.624 21.9119 142.328C22.3402 139.06 40.9996 136.979 42.534 137.916L42.7597 138.5C43.2212 136.671 46.1134 135.329 47.8295 135.007C47.8687 133.033 47.8087 131.082 47.8701 129.085C50.8827 129.974 54.0289 130.962 57.1003 131.612C57.5351 131.704 57.6311 131.572 57.9057 132.002C57.9598 133.129 58.0843 134.706 58.0678 135.801L58.3264 136.409C59.4982 136.88 72.2549 136.684 74.0691 136.737C74.3444 135.397 74.3863 132.807 74.4344 131.387Z" fill="#E3DFF5"/>
<path d="M74.4345 131.387C76.4317 130.817 78.6133 130.281 80.5633 129.603C81.8432 129.157 83.2978 128.362 84.6104 127.876L84.6931 127.846L84.5328 135.205C86.9201 135.621 87.7394 136.151 89.3487 137.966C89.7299 138.753 89.8934 139.628 89.8223 140.499C89.6333 142.65 86.8824 143.608 85.0412 143.509C82.5062 143.375 79.1228 143.801 76.7081 143.207C73.6397 142.454 73.7644 139.284 74.0692 136.737C74.3444 135.397 74.3864 132.807 74.4345 131.387Z" fill="#442182"/>
<path d="M47.8702 129.085C50.8828 129.974 54.029 130.962 57.1004 131.612C57.5352 131.704 57.6312 131.572 57.9058 132.002C57.9599 133.129 58.0844 134.706 58.0679 135.8C58.2912 139.728 58.8626 143.483 53.2154 143.537C50.2018 143.566 46.0009 144.234 43.4668 142.482C42.4493 141.713 42.6574 139.586 42.7598 138.5C43.2213 136.671 46.1135 135.329 47.8296 135.007C47.8688 133.033 47.8088 131.082 47.8702 129.085Z" fill="#442182"/>
<path d="M17.3298 26.7387C26.7101 22.8286 36.0263 20.7561 45.8447 24.7782C50.3966 26.6428 54.668 30.2609 57.4677 34.3023C58.0651 35.1645 59.6022 37.8217 60.2112 38.3835C60.3546 38.894 60.4142 39.15 60.6629 39.623C61.0049 40.069 61.2746 40.4305 61.5791 40.9021C60.7136 42.9382 48.199 45.9703 45.5296 45.9758C44.332 45.9782 42.3877 46.0636 41.2905 46.2298C33.9424 44.8208 29.5308 43.4173 23.9007 37.8531C22.5357 36.5041 16.5733 28.8369 16.5985 27.3276C16.827 26.865 16.7637 27.0011 17.3298 26.7387Z" fill="#3BA44C"/>
<path d="M17.3298 26.7387C26.7101 22.8286 36.0263 20.7561 45.8447 24.7782C50.3966 26.6428 54.668 30.2609 57.4676 34.3023C58.0651 35.1645 59.6021 37.8217 60.2112 38.3835C60.3546 38.894 60.4142 39.15 60.6629 39.623C60.4396 39.8753 60.3474 39.8886 60.0291 40.028C59.1943 39.8229 55.3222 37.5123 53.983 36.911C49.1129 34.7459 44.1163 32.8775 39.0206 31.3159C37.3926 30.8103 35.7402 30.3867 34.0697 30.0469C31.8658 29.6006 18.3467 27.4039 17.3298 26.7387Z" fill="#82C940"/>
<path d="M62.4937 38.4562C63.4717 33.0729 64.6351 28.12 68.1471 23.6099C69.9702 21.2687 71.8613 21.1653 74.572 20.9277C75.4482 26.2081 73.7255 25.1591 70.7783 28.9101C68.5376 31.762 67.6084 35.0341 66.472 38.3827C66.0256 39.796 65.9153 42.2912 65.5321 43.8695C64.7225 43.9293 63.3838 44.1096 62.7272 43.5677C62.1821 43.1181 62.1001 41.4523 61.5791 40.9019C61.2746 40.4304 61.0049 40.0689 60.6629 39.6228C60.4142 39.1499 60.3546 38.8939 60.2112 38.3834C60.9883 38.4348 61.7168 38.4453 62.4937 38.4562Z" fill="#442182"/>
<path d="M76.014 15.1673C77.2618 15.0067 78.4846 15.1453 79.3087 16.2248C79.7098 16.7461 79.877 17.4103 79.7705 18.0594C79.5708 19.2801 78.8228 19.7148 77.8905 20.3751C75.4012 21.2336 72.2703 17.3518 76.014 15.1673Z" fill="#442182"/>
</g>
<defs>
<clipPath id="clip0_90_885">
<rect width="145" height="158.594" fill="white"/>
</clipPath>
</defs>
</svg>
