<svg width="145" height="159" viewBox="0 0 145 159" fill="none" xmlns="http://www.w3.org/2000/svg">
<g clip-path="url(#clip0_90_968)">
<path d="M68.2673 41.0705L68.5312 41.0664C68.4944 42.4919 68.1032 45.03 68.9695 46.1428C69.414 46.7139 70.7995 46.977 71.3972 46.4767C71.8151 45.3984 71.9174 42.5143 72.1057 41.2008C78.8948 41.115 87.7089 43.6458 93.5284 47.2848C106.714 55.53 114.86 70.7594 115.44 86.1683C115.75 94.3826 113.98 99.937 111.554 107.518C112.386 109.397 112.307 112.696 112.472 114.798C112.494 116.166 112.772 118.416 112.257 119.657C111.191 122.229 106.888 124.532 104.237 123.264C103.265 122.799 102.164 122.11 101.233 121.542C99.3245 123.403 93.1776 128.407 90.5016 128.726C90.498 131.011 90.4391 133.296 90.3246 135.578C92.23 135.772 93.416 136.33 94.7626 137.741C96.1393 137.548 99.9596 138.093 101.426 138.295C105.656 138.875 112.616 139.227 115.774 142.285C115.452 142.666 115.091 143.02 114.687 143.315C110.093 146.665 95.7411 147.236 89.902 147.703C86.7045 147.958 83.4965 148.366 80.2915 148.488C76.0732 148.648 71.8194 148.595 67.5995 148.519C63.2254 148.439 58.8222 147.968 54.457 147.663C50.5992 147.396 46.6437 147.322 42.8202 146.75C39.924 146.317 30.9648 145.268 29.4465 142.992C29.2548 142.705 29.1609 142.361 29.2605 142.021C29.3907 141.575 29.8746 141.25 30.2583 141.034C31.5135 140.329 33.0452 139.854 34.4394 139.516C36.8533 138.932 47.9676 137.109 50.0661 137.752C50.1036 137.764 50.1407 137.776 50.1781 137.788C50.2087 137.749 50.2396 137.71 50.2706 137.671C51.4919 136.139 52.515 135.537 54.4272 135.328C54.5366 133.505 54.52 131.355 54.54 129.521C52.1637 128.594 48.7209 125.737 45.749 124.375C44.0102 124.528 42.5614 124.943 40.8007 124.5C38.5914 123.943 36.8264 122.387 35.6899 120.453C34.1063 117.758 34.6582 115.364 35.3955 112.575C34.535 109.989 32.8975 106.948 31.8761 104.144C28.7355 95.5221 28.2835 84.182 30.5143 75.3266C32.6617 66.8026 38.0482 56.8175 45.0659 51.4615C46.1246 50.6535 47.0586 49.7835 48.2301 49.0862C49.7615 49.0363 52.0828 49.1238 53.4971 48.9496C58.7147 48.3069 63.4385 45.8048 68.0598 43.5886C67.9395 42.3659 67.8872 42.2292 68.2673 41.0705Z" fill="#6534B1"/>
<path d="M90.5016 128.726C90.498 131.011 90.4391 133.296 90.3246 135.578C92.23 135.772 93.416 136.33 94.7626 137.741C96.1393 137.548 99.9596 138.094 101.426 138.295C105.656 138.875 112.616 139.227 115.774 142.286C115.452 142.666 115.091 143.02 114.687 143.315C110.093 146.665 95.7411 147.236 89.902 147.703C86.7045 147.958 83.4965 148.366 80.2915 148.488C76.0732 148.648 71.8194 148.595 67.5995 148.519C63.2254 148.44 58.8222 147.968 54.457 147.664C50.5992 147.396 46.6437 147.322 42.8202 146.75C39.924 146.317 30.9648 145.268 29.4465 142.992C29.2548 142.705 29.1609 142.361 29.2604 142.021C29.3907 141.575 29.8746 141.25 30.2583 141.034C31.5135 140.329 33.0452 139.854 34.4394 139.516C36.8533 138.932 47.9676 137.109 50.0661 137.752C50.1036 137.764 50.1407 137.776 50.1781 137.788C48.5667 140.264 49.7794 143.047 52.6574 143.441C55.0998 143.867 57.8454 143.311 60.2474 143.475C66.0698 143.876 64.438 136.993 64.1508 132.741C70.3476 133.215 74.5231 133.399 80.7159 132.3C83.5625 131.177 87.8468 130.215 90.5016 128.726Z" fill="#E0DDF3"/>
<path d="M90.5014 128.726C90.4979 131.011 90.439 133.296 90.3244 135.578C92.2298 135.772 93.4159 136.33 94.7625 137.741C96.9163 140.799 94.4909 143.638 91.1296 143.59C88.6603 143.553 86.2565 143.703 83.7892 143.407C80.056 142.96 79.9283 140.538 80.222 137.411C80.3887 135.682 80.43 133.993 80.7158 132.3C83.5624 131.177 87.8467 130.215 90.5014 128.726Z" fill="#441F80"/>
<path d="M68.0129 96.2167C68.1901 96.3334 68.1274 96.2875 68.2477 96.4825C67.2316 97.4737 64.9325 97.9464 63.5182 97.922C61.6147 97.8892 59.6621 96.9001 58.3768 95.5019C54.8208 91.6341 54.8763 85.1651 58.8012 81.5607C61.0872 79.4685 63.9718 79.057 66.9317 79.186C68.1594 79.9339 68.5515 80.5363 69.59 81.3767C70.7354 82.3038 72.3777 86.1534 71.259 87.1797C71.5584 87.3989 71.7 87.4905 71.7229 87.9098C71.9422 91.9144 71.4111 93.9347 68.0129 96.2167Z" fill="white"/>
<path d="M68.0128 96.2167C60.9782 98.6721 59.2148 85.7669 64.3272 82.8555C66.4807 81.629 68.6071 81.9138 69.9193 84.1488C69.9774 85.0654 69.7374 86.0283 70.053 86.7243C70.3237 87.0694 70.813 87.095 71.2589 87.1797C71.5582 87.3989 71.6998 87.4905 71.7228 87.9098C71.9421 91.9144 71.411 93.9346 68.0128 96.2167Z" fill="#030210"/>
<path d="M95.1931 95.9127L95.2725 96.008L95.2114 96.2153C91.6567 97.6444 88.8658 96.3929 86.6759 93.4242C83.7167 89.4999 85.2578 82.7708 89.0095 79.9292C91.178 78.2866 96.7072 78.7325 98.1468 81.2859C99.0697 82.9228 99.9865 85.2196 99.6502 87.0927C99.2668 87.3406 99.0758 87.2555 98.5539 87.2675C99.2742 87.397 99.2777 87.2736 99.6841 87.7088C100.474 90.4227 98.043 95.1031 95.1931 95.9127Z" fill="#030210"/>
<path d="M95.1931 95.9127L95.2725 96.008L95.2114 96.2153C91.6567 97.6444 88.8658 96.3929 86.6759 93.4242C83.7167 89.4999 85.2578 82.7708 89.0095 79.9292C91.178 78.2866 96.7072 78.7325 98.1468 81.2859C99.0697 82.9228 99.9865 85.2196 99.6502 87.0927C99.2668 87.3406 99.0758 87.2555 98.5539 87.2675L98.5298 87.1569C98.2013 85.575 98.8158 83.5812 97.1158 82.5373C95.0019 81.2396 92.1474 82.3392 91.0168 84.4383C88.6125 88.9028 88.5768 95.7102 95.1931 95.9127Z" fill="white"/>
<path d="M67.4262 69.0522C67.9395 69.2979 68.4571 70.734 68.7067 71.3075C68.5477 71.5771 68.3718 71.8364 68.1804 72.0839C65.9635 74.9722 61.6122 76.5389 58.1298 76.99C57.449 76.7717 56.9197 76.1039 56.8906 75.3872C56.9321 75.3004 56.9817 75.1966 57.0396 75.0755C58.9312 74.1806 60.9156 73.815 62.7861 72.7765C65.0731 71.5066 65.7008 70.8279 67.4262 69.0522Z" fill="#030210"/>
<path d="M89.8412 68.6077C91.1619 69.3787 92.7964 71.0596 94.1749 72.0581C95.5933 73.0851 99.8272 73.8546 100.349 75.1943C100.395 75.6155 100.143 75.9091 99.9105 76.2646C98.6367 76.7853 95.9171 75.9303 94.695 75.4085C92.6756 74.5463 90.9236 73.5559 89.6409 71.7355C89.5689 70.5022 89.6701 69.8317 89.8412 68.6077Z" fill="#030210"/>
<path d="M78.5955 102.277C80.0878 102.12 81.7969 102.12 83.1993 102.7C84.2605 103.138 85.8088 104.15 85.2739 105.486C84.3122 106.294 82.4127 104.873 81.3051 104.623C80.5944 104.462 80.3165 104.451 79.5874 104.418C78.4623 104.501 77.741 104.639 76.6663 105.038C75.8726 105.333 74.6538 106.749 74.0057 106.673C71.8571 104.531 77.0309 102.531 78.5955 102.277Z" fill="#030210"/>
<path d="M25.5115 30.4925C32.7875 26.4764 41.7221 24.9183 49.8148 27.0535C55.9644 28.6761 60.2263 32.3448 64.1045 37.2113C64.9418 38.262 66.6173 39.9497 67.2305 41.1061L68.2673 41.0707C67.8873 42.2294 67.9395 42.366 68.0599 43.5888C63.4386 45.805 58.7148 48.3071 53.4972 48.9498C52.0828 49.124 49.7616 49.0365 48.2301 49.0863C43.9754 48.8273 40.1266 47.2148 36.5693 45.0291C32.036 42.2438 28.7046 38.4704 26.1516 33.8493C25.6589 32.957 24.9494 32.3854 24.7036 31.3021C24.8628 30.7648 24.9084 30.8826 25.5115 30.4925Z" fill="#3AA44C"/>
<path d="M25.5115 30.4925C32.7875 26.4764 41.7222 24.9183 49.8148 27.0535C55.9645 28.6761 60.2264 32.3448 64.1046 37.2113C64.9418 38.262 66.6173 39.9497 67.2306 41.1061C67.2474 41.1994 67.263 41.2928 67.277 41.3866C67.3506 41.9071 67.3471 41.8605 67.1001 42.1858C66.9237 42.2682 66.7446 42.3391 66.5462 42.3353C65.7483 42.3193 58.8948 38.7924 57.2107 38.1381C50.4332 35.5387 43.4031 33.653 36.2344 32.5117C32.8704 31.9518 29.5068 31.3424 26.1232 30.9059C25.9476 30.8833 25.6454 30.6174 25.5115 30.4925Z" fill="#7DC83F"/>
<path d="M68.5312 41.0663C69.0657 40.0247 69.4327 36.4986 69.7297 35.1993C70.4305 32.1331 75.6866 21.3127 79.9595 23.3403C80.6399 23.6701 81.1547 24.2654 81.3828 24.9862C81.6326 25.7634 81.5558 26.6086 81.17 27.3281C80.3851 28.769 78.4389 29.8288 77.2861 30.9692C75.3687 32.866 73.7894 35.9865 72.9047 38.526C72.5965 39.4105 72.3943 40.3835 72.1056 41.2007C71.9173 42.5142 71.815 45.3983 71.3972 46.4766C70.7995 46.9769 69.4139 46.7138 68.9694 46.1427C68.1031 45.0299 68.4943 42.4918 68.5312 41.0663Z" fill="#441F80"/>
</g>
<defs>
<clipPath id="clip0_90_968">
<rect width="145" height="158.594" fill="white"/>
</clipPath>
</defs>
</svg>
