<svg width="145" height="159" viewBox="0 0 145 159" fill="none" xmlns="http://www.w3.org/2000/svg">
<g clip-path="url(#clip0_90_983)">
<path d="M67.2391 44.76C67.2554 43.4138 67.2759 41.0821 67.5813 39.8069C68.7776 40.1823 71.3547 40.1656 72.6943 40.308C96.5346 42.8441 112.435 65.4911 111.823 88.548C111.708 92.8951 110.805 97.2767 109.647 101.415C107.402 109.225 103.013 116.25 96.9797 121.694C95.5478 123.01 93.762 124.171 92.6853 125.155C91.4858 125.267 86.296 128.997 84.6511 129.21C84.279 129.259 83.3475 129.688 83.1034 129.99C78.414 132.336 66.2416 133.389 60.8479 132.579C60.5665 132.308 57.4122 131.713 56.6954 131.557C55.7324 131.348 51.9639 129.944 51.2855 130.117C49.063 130.023 39.3924 123.68 37.5257 121.671C36.9267 121.027 34.4981 118.405 34.0819 118.155L33.9025 118.233C33.9099 120.098 37.4215 123.525 35.04 125.99C33.6566 127.422 32.1141 126.235 30.986 125.156C30.5495 126.252 30.0153 127.039 29.2564 127.925C27.3641 128.583 24.7661 128.325 22.8374 127.951C21.8085 125.671 20.254 124.184 19.6874 122.919C19.3739 122.232 19.3129 121.457 19.515 120.73C19.9592 119.125 21.5738 117.887 22.0903 116.56C22.6494 115.123 22.6912 112.872 23.1609 111.236C23.9226 108.583 25.1219 106.26 26.0482 103.707C22.9679 92.6941 22.6997 82.935 26.0074 71.9652C28.449 63.8677 34.874 54.6091 41.485 49.417C42.416 48.6857 43.7063 47.5192 44.7214 46.977C45.8179 47.1346 46.9235 47.2211 48.0311 47.2362C49.8563 47.2393 51.6778 47.0725 53.4721 46.7377C55.1192 46.4287 62.4423 44.1807 63.4929 43.1468C63.8641 43.4228 63.7404 43.8874 64.2465 44.4731C64.7831 44.7702 66.5274 44.7382 67.2391 44.76Z" fill="#6B37B6"/>
<path d="M82.3356 88.1141C84.2994 87.9245 85.5028 89.3065 85.6684 91.1916C86.5695 101.454 75.0988 109.27 66.3107 102.641C62.8957 99.4195 60.3344 93.8545 63.0268 89.186C63.6169 88.1629 65.3447 88.4773 66.3158 88.6837C69.8736 89.4406 73.2798 90.9506 76.9062 89.5324C78.2867 89.0479 80.9219 88.3108 82.3356 88.1141Z" fill="#010108"/>
<path d="M70.3367 97.1791C72.5138 96.9478 75.5404 96.9617 77.5797 98.0077C82.5812 100.573 80.1815 103.18 75.7432 104.198C72.7741 104.841 68.845 104.188 66.6457 101.994C66.075 101.424 65.5234 100.78 64.9956 100.168C66.9096 98.4276 67.7216 97.5264 70.3367 97.1791Z" fill="#E83B5F"/>
<path d="M56.51 76.7872C59.0009 76.4431 61.292 77.0086 63.325 78.4714C64.4632 79.2904 66.7648 81.2997 65.6305 82.8178C64.4364 83.2455 62.6415 80.9457 61.6252 80.4647C60.5285 79.9456 58.9801 79.864 57.7847 79.8404C51.7796 79.9184 52.303 83.4921 50.399 84.0132C50.2386 84.0571 50.1679 84.036 50.0253 83.9395C49.6592 83.6915 49.3985 83.035 49.3148 82.6192C49.2029 82.0621 49.4935 81.4617 49.7937 81.0113C51.3653 78.6532 53.7999 77.3301 56.51 76.7872Z" fill="#010108"/>
<path d="M89.1888 76.0996C90.9673 75.9303 92.8615 76.203 94.3282 77.2769C95.7116 78.2896 98.1189 80.3719 96.8427 82.2261C95.691 82.7801 94.3001 80.1957 93.0824 79.6523C91.688 79.0301 91.288 79.0117 89.826 78.9897C85.8992 78.9996 85.4559 80.4304 83.2313 82.5721C82.9743 82.6303 82.5433 82.6236 82.4 82.4792C80.6209 80.6858 85.0928 76.8294 86.6562 76.4798C87.6769 76.2516 88.3747 76.1594 89.1888 76.0996Z" fill="#010108"/>
<path d="M57.4245 62.5045C58.4769 62.458 59.4031 62.4386 59.4782 63.6509C59.5542 64.88 59.5729 65.4042 58.1371 65.4506C55.1474 65.5473 53.4417 66.76 51.1881 68.481C50.5537 68.8836 50.5332 68.7941 49.9381 68.484C47.9857 66.0293 52.9256 63.4169 54.8138 62.9383C55.7812 62.6931 56.4261 62.5835 57.4245 62.5045Z" fill="#010108"/>
<path d="M86.8367 61.6352C89.6956 61.4549 92.9283 62.8044 94.5428 65.2132C95.4226 66.5255 94.119 67.1358 93.2272 67.584C92.9256 67.4284 91.8262 66.4989 91.5321 66.2243C89.576 64.3978 87.966 64.6889 85.4014 64.6877L85.3761 64.5788C84.9629 62.7486 84.7385 61.9722 86.8367 61.6352Z" fill="#010108"/>
<path d="M83.1034 129.99C83.3476 129.688 84.279 129.259 84.6511 129.21C86.296 128.997 91.4858 125.267 92.6853 125.155C93.4898 126.476 95.0733 128.944 95.5971 130.247C97.1914 129.154 98.7143 128.007 100.772 128.327C102.806 128.644 103.971 130.614 103.55 132.571C103.083 134.738 101.498 136.38 99.8575 137.745C99.9022 137.977 99.9731 138.243 100.029 138.476C100.783 138.855 102.704 138.917 103.591 139.159C105.23 139.606 110.886 140.598 111.417 142.213C111.406 142.448 111.375 142.655 111.243 142.856C110.046 144.687 105.085 145.489 103.056 145.905C98.8597 146.766 94.6622 147.15 90.4107 147.6C87.4543 147.913 84.4766 148.321 81.508 148.471C77.1145 148.693 72.6987 148.651 68.3003 148.645C63.9108 148.639 59.4792 148.668 55.0937 148.481C51.4517 148.326 47.8221 147.909 44.1957 147.552C38.9182 147.033 27.4086 146.31 23.1669 143.466C22.6375 143.112 22.2556 142.853 22.1277 142.215C22.1707 142.1 22.2074 141.998 22.29 141.905C25.1476 138.643 44.6204 136.78 49.6665 136.407C50.9202 134.494 51.2182 132.355 51.2856 130.117C51.964 129.944 55.7324 131.348 56.6955 131.557C57.4122 131.713 60.5666 132.308 60.8479 132.579C66.2417 133.389 78.414 132.336 83.1034 129.99Z" fill="#E3DFF4"/>
<path d="M83.1033 129.99C83.3474 129.688 84.2788 129.259 84.651 129.21C86.2958 128.997 91.4857 125.267 92.6852 125.155C93.4896 126.476 95.0731 128.944 95.5969 130.247C97.1912 129.154 98.7141 128.007 100.772 128.327C102.806 128.644 103.971 130.614 103.549 132.571C103.083 134.738 101.498 136.38 99.8573 137.745L98.6187 138.661C91.5781 143.816 90.2633 141.839 87.0783 135.311C86.5496 134.228 84.0176 131.322 83.1033 129.99Z" fill="#471F84"/>
<path d="M51.2855 130.117C51.9639 129.944 55.7323 131.348 56.6954 131.557C57.4121 131.713 60.5665 132.308 60.8478 132.579C61.0074 133.686 60.9937 134.472 60.9911 135.596C62.3487 135.882 63.7818 136.304 64.595 137.521C65.231 138.473 65.4172 139.732 65.1923 140.843C65.0123 141.732 64.5738 142.642 63.7957 143.158C62.5623 143.973 54.0559 143.876 52.2866 143.476C51.1583 143.222 50.0752 142.655 49.4537 141.644C48.6973 140.415 48.8811 138.899 49.2284 137.566C49.3302 137.176 49.48 136.765 49.6664 136.407C50.9201 134.494 51.2181 132.355 51.2855 130.117Z" fill="#471F84"/>
<path d="M22.6062 25.8841C23.1877 25.794 24.3139 25.2789 24.9445 25.0645C26.5676 24.5016 28.2149 24.0108 29.8814 23.5933C37.5721 21.6621 46.3559 22.9362 52.9918 27.3916C58.0954 30.8182 60.6017 35.2203 63.6534 40.3565L63.5603 40.5689L63.6201 40.684C63.9817 41.3916 64.2785 42.474 63.5288 43.0408L63.4928 43.1469C62.4422 44.1807 55.1192 46.4288 53.4721 46.7378C51.6777 47.0725 49.8563 47.2393 48.031 47.2362C46.9234 47.2212 45.8178 47.1347 44.7214 46.9771C35.2468 45.9158 27.4066 38.2984 23.6075 29.9665C23.0858 28.8222 21.6501 26.9579 22.6062 25.8841Z" fill="#3BA84B"/>
<path d="M22.6064 25.8841C23.188 25.794 24.3142 25.2789 24.9447 25.0645C26.5679 24.5016 28.2151 24.0108 29.8816 23.5933C37.5723 21.6621 46.3561 22.9362 52.992 27.3916C58.0956 30.8182 60.602 35.2203 63.6536 40.3565L63.5606 40.5689L63.6203 40.684C63.982 41.3916 64.2788 42.474 63.529 43.0408C63.3696 42.813 62.4948 42.0527 62.2397 41.8358C56.4867 37.1107 48.8672 33.8043 41.9576 31.0898C37.6021 29.3788 32.0449 28.3723 27.491 27.1012C25.8156 26.6334 24.2516 26.6199 22.6064 25.8841Z" fill="#7EC83E"/>
<path d="M63.6535 40.3565C64.3565 39.7299 64.6524 36.3838 64.8699 35.1918C65.5677 31.3674 69.8436 20.0377 75.0102 21.1443C75.6328 21.2722 76.1766 21.6478 76.5163 22.1851C78.3131 24.9775 75.6266 26.5674 73.8977 28.0017C70.4787 30.8378 68.5005 35.5332 67.5814 39.807C67.2759 41.0822 67.2554 43.4138 67.2391 44.7601C66.5274 44.7382 64.7832 44.7702 64.2465 44.4732C63.7404 43.8875 63.8642 43.4229 63.4929 43.1469L63.5289 43.0409C64.2787 42.474 63.9819 41.3916 63.6202 40.6841L63.5605 40.5689L63.6535 40.3565Z" fill="#471F84"/>
</g>
<defs>
<clipPath id="clip0_90_983">
<rect width="145" height="158.594" fill="white"/>
</clipPath>
</defs>
</svg>
