<svg width="145" height="159" viewBox="0 0 145 159" fill="none" xmlns="http://www.w3.org/2000/svg">
<g clip-path="url(#clip0_90_922)">
<path d="M63.0663 42.5829C63.1573 42.9852 63.0747 43.8672 63.0831 44.38C63.6395 45.1847 65.3658 45.1445 66.1729 44.7712C66.3436 44.616 66.603 44.3313 66.6028 44.1016C66.6023 42.6105 66.5468 41.4802 66.878 39.9968C70.3498 40.1912 73.1529 40.3685 76.5872 41.0488C83.6109 42.4402 88.9837 45.8348 94.2966 50.35C106.113 60.392 111.886 75.2437 110.802 90.6364C110.35 97.0491 108.663 102.148 106.365 108.19C106.898 110.492 108.184 116.292 107.967 118.572C107.885 119.395 107.615 120.189 107.177 120.892C105.606 123.465 102.464 124.032 99.6728 123.899C98.82 123.231 97.5047 122.139 96.6227 121.595C94.9529 122.858 87.9903 127.901 86.2472 128.033C86.1788 130.245 86.0328 132.973 86.2158 135.133C88.2088 135.723 88.9443 136.283 90.4392 137.656C93.333 136.973 110.616 139.28 111.159 142.47C111.094 142.877 110.938 143.113 110.622 143.367C106.394 146.779 82.2498 148.263 75.8974 148.491C70.7039 148.629 65.5077 148.638 60.3136 148.517C56.0709 148.406 51.891 147.9 47.6687 147.631C40.3029 147.161 32.8388 146.502 25.7674 144.286C24.76 143.971 23.8025 143.054 23.1545 142.246C24.5245 140.99 25.6525 140.569 27.3546 139.931C29.6304 139.078 43.1657 136.726 44.9044 137.596C46.3244 135.97 47.2439 135.897 49.1843 135.394L49.326 135.024C49.1929 133.654 49.2807 130.594 49.2817 129.099C47.1309 128.191 43.7122 126.175 41.7758 124.812C39.7087 126.791 37.7147 127.16 35.4695 125.251C33.6987 125.687 32.9699 125.832 31.1244 125.152C28.5177 124.191 26.3679 121.581 25.3335 119.041C23.3106 114.073 24.2613 108.936 26.164 104.155C25.1088 102.35 24.7281 99.9828 24.2497 97.9451C20.1245 80.3785 26.4315 60.8739 40.6546 49.6022C42.0084 48.5295 43.6184 47.2203 45.1624 46.4891C50.5172 47.6801 56.6202 46.0722 61.6585 44.4091C62.6206 44.0917 63.0659 43.8883 62.9998 42.8332L63.0663 42.5829Z" fill="#6936B4"/>
<path d="M76.1169 131.817C76.6713 131.274 78.4208 130.714 79.1577 130.643C81.0915 130.458 84.6374 128.24 86.2472 128.033C86.1788 130.245 86.0329 132.973 86.2158 135.133C88.2089 135.723 88.9443 136.283 90.4392 137.656C93.333 136.973 110.616 139.28 111.159 142.47C111.094 142.877 110.938 143.112 110.622 143.367C106.394 146.779 82.2498 148.263 75.8974 148.491C70.7039 148.629 65.5077 148.638 60.3136 148.517C56.071 148.406 51.891 147.9 47.6687 147.631C40.3029 147.161 32.8388 146.502 25.7674 144.286C24.76 143.971 23.8025 143.054 23.1545 142.246C24.5245 140.99 25.6525 140.569 27.3546 139.931C29.6304 139.078 43.1657 136.726 44.9044 137.596C46.3244 135.97 47.2439 135.897 49.1843 135.394L49.326 135.024C49.6039 133.28 49.2803 130.952 49.5308 129.063L49.7996 128.915C50.2174 129.764 57.4313 131.363 58.9276 131.953C59.2726 132.088 59.2522 132.176 59.3992 132.508L59.7427 136.409C60.8785 136.605 75.5562 136.943 75.8524 136.775C75.9978 135.147 76.0466 133.454 76.1169 131.817Z" fill="#DCD7F2"/>
<path d="M76.1169 131.817C76.6712 131.274 78.4207 130.714 79.1576 130.643C81.0915 130.458 84.6373 128.24 86.2472 128.033C86.1788 130.245 86.0328 132.973 86.2157 135.133C88.2088 135.723 88.9442 136.283 90.4391 137.656C91.6132 139.775 91.4199 142.287 88.9594 143.231C87.8245 143.668 86.4518 143.662 85.2475 143.636C79.5304 143.517 74.619 144.703 75.8523 136.775C75.9978 135.147 76.0465 133.454 76.1169 131.817Z" fill="#4B228E"/>
<path d="M49.3262 135.024C49.604 133.279 49.2805 130.952 49.5309 129.063L49.7997 128.915C50.2176 129.764 57.4315 131.363 58.9278 131.952C59.2727 132.088 59.2523 132.176 59.3993 132.507L59.7428 136.409C59.8033 138.683 60.4156 142.011 57.7205 143.22C56.9524 143.513 56.0314 143.626 55.2222 143.666C53.2134 143.765 51.1319 143.67 49.1367 143.757C45.0391 143.932 42.9524 141.559 44.9045 137.596C46.3245 135.97 47.2441 135.897 49.1844 135.394L49.3262 135.024Z" fill="#4B228E"/>
<path d="M59.3992 132.508L59.4603 132.401C59.8707 132.162 63.5552 132.581 64.311 132.648C68.4775 133.017 72.1328 132.095 76.1169 131.817C76.0466 133.454 75.9978 135.147 75.8524 136.775C75.5562 136.943 60.8785 136.605 59.7427 136.409L59.3992 132.508Z" fill="white"/>
<path d="M61.7275 89.6594C62.3696 90.4413 61.1356 91.4971 60.5315 91.9463C58.6645 93.3518 56.3136 93.9535 54.001 93.6177C45.527 92.3062 44.5342 78.9176 50.8202 74.4636C53.5466 72.5317 56.5781 72.323 59.2931 74.527C59.9515 75.0616 61.2537 75.6903 61.0435 76.671C61.3173 77.1621 61.8606 77.9938 61.8647 78.51L61.6417 78.703C62.1868 79.1445 62.783 80.2595 62.4991 80.9696C62.3383 81.0153 62.1085 81.0898 61.9512 81.1186C65.115 81.6334 62.4923 88.0116 61.7275 89.6594Z" fill="#02030A"/>
<path d="M61.7275 89.6594C62.3696 90.4413 61.1356 91.4971 60.5315 91.9463C58.6645 93.3518 56.3136 93.9535 54.001 93.6177C45.527 92.3062 44.5342 78.9176 50.8202 74.4636C53.5466 72.5317 56.5781 72.323 59.2931 74.527C59.9515 75.0616 61.2537 75.6903 61.0435 76.671C60.0297 75.9344 58.4008 75.545 57.1346 75.7908C52.853 76.6219 51.6602 82.1513 52.1756 85.8163C52.8444 90.5731 58.1836 93.8822 61.7275 89.6594Z" fill="white"/>
<path d="M61.6418 78.7029C62.187 79.1444 62.7831 80.2594 62.4992 80.9695C62.3385 81.0152 62.1087 81.0897 61.9513 81.1185C61.3192 80.9467 61.4038 81.0761 61.0904 80.6389C60.9329 79.9427 61.3171 79.3271 61.6418 78.7029Z" fill="white"/>
<path d="M90.3127 90.9965L90.7964 90.7363L90.989 90.8024C90.3011 92.9704 85.6285 93.8965 83.6801 93.2934C76.0231 90.9229 75.482 77.5551 82.2393 73.7006C86.0227 71.5424 89.0455 73.2159 91.2817 76.5142C91.5387 76.8905 91.8178 77.5745 91.7031 78.0101L91.4245 78.1603L91.4015 78.2708C91.1435 79.4587 90.4949 79.8009 90.9145 80.7535C91.584 81.3441 93.2291 80.4315 93.3302 82.9778C93.4619 86.298 92.2639 88.4779 90.3127 90.9965Z" fill="white"/>
<path d="M90.3128 90.9965C88.0721 92.229 85.6908 91.1522 84.3788 89.1768C82.5838 86.6148 83.0453 83.7876 83.3642 80.9295C83.8534 76.5459 88.6267 73.7772 91.4247 78.1603L91.4016 78.2708C91.1436 79.4587 90.4951 79.8009 90.9147 80.7535C91.5841 81.3441 93.2293 80.4314 93.3304 82.9777C93.4621 86.298 92.2641 88.4778 90.3128 90.9965Z" fill="#02030A"/>
<path d="M66.3674 104.636C65.3434 103.208 65.3887 101.746 65.6578 100.061C65.9901 97.9809 66.6565 96.4488 68.4121 95.1601C71.1631 93.1407 74.83 93.4658 76.9379 96.2333C77.9996 97.6271 77.9655 100.134 77.7344 101.817C77.4665 103.616 75.8364 105.499 74.3459 106.51C73.0839 107.366 72.1943 107.436 70.7359 107.477C68.48 107.356 67.5922 106.441 66.3674 104.636Z" fill="#02030A"/>
<path d="M66.5487 103.951C67.4299 102.997 69.3299 101.925 70.6621 101.899C72.3423 101.866 73.9913 103.403 75.1923 104.471C74.0708 106.107 73.556 106.619 71.5394 106.998C71.1999 107.124 70.8787 107.148 70.5219 107.175C70.5712 107.425 70.5089 107.323 70.736 107.477C68.4801 107.355 67.5923 106.44 66.3674 104.636C66.5946 104.245 66.5415 104.422 66.5487 103.951Z" fill="#EE3661"/>
<path d="M66.3674 104.636C66.5946 104.245 66.5415 104.422 66.5487 103.951C67.8234 106.706 68.9473 106.577 71.5394 106.998C71.1999 107.124 70.8787 107.148 70.5219 107.175C70.5712 107.425 70.5089 107.323 70.736 107.477C68.4801 107.355 67.5923 106.44 66.3674 104.636Z" fill="#080013"/>
<path d="M53.4476 62.3414C54.3443 62.1956 56.5858 62.0979 56.9155 63.1045C57.6054 65.2107 56.8493 65.495 54.9866 65.5115C52.6146 65.5323 51.172 66.1927 49.3528 67.5709L47.9289 68.7508C47.3997 68.2022 46.8989 67.6332 46.3914 67.0648C48.1583 63.998 50.0713 62.9634 53.4476 62.3414Z" fill="#02030A"/>
<path d="M84.7925 62.0644C88.2273 61.7968 90.7945 63.1164 92.2352 66.2934C91.8616 66.8126 91.5212 67.3875 90.966 67.6891C90.4565 67.7512 90.6386 67.7657 90.1382 67.42C88.891 66.4871 87.8413 65.6784 86.4319 65.0032C85.1493 65.1729 82.5852 65.8213 81.9995 64.3653C82.201 62.9977 83.5621 62.2991 84.7925 62.0644Z" fill="#02030A"/>
<path d="M23.6553 23.9065L23.7497 23.8939C25.3205 23.6677 27.8021 22.7107 29.6474 22.3367C43.8978 19.4489 57.5591 26.3468 62.6375 40.3691C62.4265 40.9376 62.9326 41.7738 63.0664 42.5829L62.9998 42.8332C63.066 43.8883 62.6206 44.0917 61.6586 44.4091C56.6203 46.0722 50.5172 47.6801 45.1624 46.4891C39.6997 44.8955 35.2873 43.15 30.9993 38.8093C27.5071 35.2743 24.2469 29.5727 23.284 24.4871C23.231 24.2078 23.4553 24.0903 23.6553 23.9065Z" fill="#3DA64C"/>
<path d="M23.6553 23.9065L23.7497 23.8939C25.3205 23.6677 27.8021 22.7107 29.6474 22.3367C43.8978 19.4489 57.5591 26.3468 62.6375 40.3691C62.4265 40.9376 62.9326 41.7738 63.0664 42.5829L62.9998 42.8332C63.2111 42.8968 58.255 39.1846 57.7685 38.8657C54.139 36.4874 50.3678 34.388 46.5792 32.2699C41.7636 29.5776 36.2456 28.0081 31.0446 26.2154C28.693 25.4137 25.9535 24.8294 23.6553 23.9065Z" fill="#81C93E"/>
<path d="M62.6375 40.369C63.2523 40.1861 63.2883 39.8746 63.416 39.2704C64.4669 34.2984 65.3978 29.4912 68.6493 25.3876C70.1228 23.5278 71.5278 20.9597 74.3424 21.0499C77.0058 21.1353 77.0931 23.1149 77.0181 25.2357C76.238 26.1607 74.2115 27.7842 73.213 28.6982C69.9345 31.6988 68.0162 35.7524 66.878 39.9968C66.5468 41.4802 66.6023 42.6105 66.6029 44.1015C66.603 44.3312 66.3436 44.616 66.173 44.7712C65.3658 45.1444 63.6396 45.1846 63.0831 44.3799C63.0747 43.8672 63.1573 42.9851 63.0664 42.5828C62.9326 41.7737 62.4265 40.9376 62.6375 40.369Z" fill="#4B228E"/>
<path d="M126.463 29.9155C126.655 29.923 126.838 29.9315 127.021 29.9971C127.353 30.116 127.512 30.2681 127.657 30.5949C127.913 31.1761 128.15 32.0162 127.891 32.6346C127.357 33.9112 115.13 39.4272 112.87 40.3667C112.481 40.3914 112.399 40.3397 112.035 40.1873C111.577 39.7803 111.007 38.2501 111.424 37.8959C114.15 35.5797 123.283 30.4022 126.463 29.9155Z" fill="#4B228E"/>
<path d="M112.082 17.0145C113.089 17.0047 115 17.1963 114.618 18.5812C113.578 22.357 108.931 30.1046 106.191 32.6384C105.059 33.2246 103.803 32.2596 104.188 31.1778C105.221 28.28 109.929 18.682 112.082 17.0145Z" fill="#4B228E"/>
<path d="M114.426 46.5139C116.433 46.3749 118.435 46.7058 120.415 46.7892C123.183 46.9057 125.778 47.6738 123.557 50.8948C122.245 51.7015 116.476 49.7958 114.825 49.3822C113.828 49.1324 114.09 47.2153 114.426 46.5139Z" fill="#4B228E"/>
</g>
<defs>
<clipPath id="clip0_90_922">
<rect width="145" height="158.594" fill="white"/>
</clipPath>
</defs>
</svg>
