<svg width="145" height="159" viewBox="0 0 145 159" fill="none" xmlns="http://www.w3.org/2000/svg">
<g clip-path="url(#clip0_90_1154)">
<path d="M65.7144 41.5089C65.7604 39.7897 65.8283 37.5331 66.4654 35.9248C68.799 35.9969 70.9907 36.4169 73.2545 36.8713C99.3968 42.1196 114.177 69.5274 108.667 94.7353C108.591 95.0832 108.463 95.544 108.413 95.8873C109.229 96.9453 111.841 100.32 112.415 101.368C113.009 101.965 116.982 101.819 118.051 101.822C121.61 101.829 125.169 101.806 128.728 101.751C131.26 101.708 134.521 101.535 136.959 101.861C137.978 102.608 138.199 102.819 138.74 103.994C138.54 106.312 137.848 108.775 137.246 111.029C134.837 120.053 131.91 129.256 129.885 138.374C130.381 139.347 134.863 140.31 134.986 142.026C134.493 143.264 133.324 144.05 132.085 144.452C128.019 145.77 123.707 145.976 119.503 146.48C114.394 147.092 109.297 148.059 104.171 148.559C97.7882 149.119 91.3045 148.988 84.9181 149.295C73.7675 149.832 62.9649 149.469 51.8299 148.944C38.8115 148.329 25.5036 147.933 12.9804 143.911C12.2041 143.662 10.8352 142.211 10.2627 141.609C10.5926 141.288 10.9282 140.973 11.2692 140.664C12.0359 139.982 12.9215 139.447 13.8818 139.085C17.0429 137.9 23.2347 137.04 26.6522 136.542C31.9608 135.768 38.6862 134.704 44.0585 134.985C47.9226 134.917 52.7364 134.712 56.5261 134.858L56.8103 134.784L56.8233 134.564C54.7541 132.101 52.5306 132.464 49.8543 131.651C46.4516 130.618 42.7991 128.574 39.8687 126.566C38.0311 125.307 36.4824 123.407 34.9477 121.809C23.5263 111.612 17.562 96.2876 19.0657 81.0558C19.2254 79.4388 19.3536 76.5087 19.8454 74.942L19.8458 74.3235C20.2734 73.2624 20.4888 72.0563 20.6742 70.9331L20.7788 70.4297L20.8548 70.1621C21.8284 66.7828 24.8392 60.7294 26.7061 57.6288C28.5472 54.571 35.5283 46.0555 38.5661 44.3781C40.7999 42.7884 42.5968 42.0161 44.694 40.6629C47.0432 40.3222 49.9214 39.8375 52.1884 39.2262C54.2696 38.6651 56.489 37.776 58.5697 37.1665C59.9397 36.7653 61.4798 36.5973 62.8458 36.1805C63.033 36.9034 63.029 40.4909 63.0476 41.4776C63.9136 41.5094 64.8424 41.5016 65.7144 41.5089Z" fill="#6534B1"/>
<path d="M112.415 101.368C113.009 101.965 116.982 101.819 118.051 101.823C121.61 101.83 125.169 101.806 128.728 101.751C131.26 101.708 134.521 101.535 136.959 101.861C137.978 102.608 138.199 102.819 138.74 103.994C138.54 106.312 137.848 108.775 137.246 111.029C134.837 120.053 131.91 129.256 129.885 138.374C130.381 139.348 134.863 140.31 134.986 142.027C134.493 143.264 133.324 144.05 132.085 144.452C128.019 145.77 123.707 145.976 119.503 146.48C114.394 147.092 109.297 148.059 104.171 148.559C97.7882 149.119 91.3045 148.988 84.9181 149.295C73.7675 149.832 62.9649 149.469 51.8299 148.944C38.8115 148.329 25.5036 147.933 12.9804 143.911C12.2041 143.662 10.8352 142.211 10.2627 141.609C10.5926 141.288 10.9282 140.973 11.2692 140.664C12.0359 139.982 12.9215 139.447 13.8818 139.085C17.0429 137.9 23.2347 137.04 26.6522 136.542C31.9608 135.768 38.6862 134.704 44.0585 134.985C47.9226 134.917 52.7364 134.712 56.5261 134.858C57.1275 135.048 57.1436 134.746 57.8941 135.267C58.3086 135.554 60.25 136.523 60.6762 136.543C63.2984 136.665 66.1802 136.97 68.7674 136.456C70.0989 136.19 69.5326 134.585 70.1087 133.705C70.075 133.165 70.0672 132.982 70.1318 132.444C70.3436 131.963 70.9288 131.747 71.4131 131.498C71.5581 131.206 72.3679 130.572 72.6611 130.321C72.956 129.039 73.5112 127.377 73.873 126.04C74.7536 122.703 75.6545 119.371 76.5753 116.044C77.5144 112.656 78.6635 108.898 78.761 105.355L77.7849 104.24C78.3605 103.855 79.6953 102.47 80.2556 101.915C80.4169 102.234 80.6875 102.748 81.0449 102.781C83.2915 102.99 86.7299 102.529 88.9224 102.427C95.0805 102.14 100.52 102.422 106.712 101.997C108.137 101.951 109.562 101.895 110.987 101.829C111.75 101.79 111.957 101.876 112.415 101.368Z" fill="#4E576C"/>
<path d="M70.1087 133.705L71.0212 133.899L71.3277 133.858C71.2997 135.169 70.6185 136.466 70.6509 138.286L70.1437 138.354C70.3522 138.457 70.3974 138.486 70.5175 138.7C70.4545 139.207 70.5073 143.928 70.573 144.068C70.0845 144.328 69.6027 144.282 69.0464 144.288C71.3651 144.873 77.3156 144.636 79.985 144.604L96.0167 144.364L115.018 144.036C118.113 143.993 121.293 143.991 124.389 143.952C128.64 143.901 128.919 142.056 129.885 138.374C130.381 139.348 134.863 140.31 134.986 142.027C134.493 143.264 133.324 144.05 132.085 144.452C128.019 145.77 123.707 145.976 119.503 146.48C114.394 147.092 109.297 148.059 104.171 148.559C97.7882 149.119 91.3045 148.988 84.9181 149.295C73.7675 149.832 62.9649 149.469 51.8299 148.944C38.8115 148.329 25.5036 147.933 12.9804 143.911C12.2041 143.662 10.8352 142.211 10.2627 141.609C10.5926 141.288 10.9282 140.973 11.2692 140.664C12.0359 139.982 12.9215 139.447 13.8818 139.085C17.0429 137.9 23.2347 137.04 26.6522 136.542C31.9608 135.768 38.6862 134.704 44.0585 134.985C47.9226 134.917 52.7364 134.712 56.5261 134.858C57.1275 135.048 57.1436 134.746 57.8941 135.267C58.3086 135.554 60.25 136.523 60.6762 136.543C63.2984 136.665 66.1802 136.97 68.7674 136.456C70.0989 136.19 69.5326 134.585 70.1087 133.705Z" fill="#E0DCF2"/>
<path d="M70.1087 133.705L71.0212 133.899L71.3277 133.858C71.2997 135.169 70.6185 136.466 70.6509 138.286L70.1437 138.354C70.3522 138.457 70.3974 138.486 70.5175 138.7C70.4545 139.207 70.5073 143.928 70.573 144.068C70.0845 144.328 69.6028 144.282 69.0464 144.288C68.0245 144.217 64.0486 143.115 62.7686 142.836L43.7554 138.627C43.7574 137.476 43.9336 136.145 44.0585 134.985C47.9226 134.917 52.7364 134.712 56.5261 134.858C57.1275 135.048 57.1437 134.746 57.8941 135.267C58.3086 135.554 60.25 136.523 60.6762 136.543C63.2984 136.665 66.1802 136.97 68.7674 136.456C70.0989 136.19 69.5327 134.585 70.1087 133.705Z" fill="#41475C"/>
<path d="M71.021 133.898L71.3276 133.858C71.2995 135.169 70.6183 136.466 70.6507 138.286C70.2119 138.178 68.8325 138.136 68.315 138.11C65.72 137.979 63.6971 137.927 61.269 136.91C63.4867 137.178 66.7924 137.151 69.04 137.079C70.6565 135.968 69.649 135.867 70.2807 134.123C70.3382 133.965 70.7831 133.942 71.021 133.898Z" fill="#28343C"/>
<path d="M71.413 131.498C71.7057 131.67 71.9219 131.704 72.008 132.05C72.1545 132.64 72.0231 133.698 71.3276 133.858L71.021 133.899L70.1085 133.705C70.0748 133.165 70.0671 132.982 70.1316 132.444C70.3435 131.963 70.9287 131.747 71.413 131.498Z" fill="white"/>
<path d="M107.306 117.78C109.231 117.982 108.834 119.902 108.855 121.466C109.516 121.107 110.802 120.565 111.502 121.107C111.764 122.019 110.697 122.611 110.436 123.609C110.63 123.825 110.778 124.008 110.956 124.237C111.012 125.115 110.759 125.985 110.239 126.695C109.129 128.198 107.476 128.466 105.791 128.738L104.123 128.931C102.929 127.658 101.971 126.183 101.292 124.575C101.884 122.435 102.364 121.314 104.321 120.198L105.665 121.547C105.81 119.882 106.032 118.914 107.306 117.78Z" fill="white"/>
<path d="M20.7787 70.4297L20.8547 70.1621C21.8282 66.7828 24.8391 60.7295 26.706 57.6288C28.5471 54.5711 35.5282 46.0556 38.5659 44.3782C41.8699 46.5363 42.6422 46.5222 45.6745 49.7144C43.0193 54.02 40.4512 56.6943 38.118 61.559C36.476 64.9828 34.2611 73.59 32.5367 75.9982C30.5625 75.3096 29.6657 74.6939 27.9362 73.5029C26.6502 73.8251 25.9116 74.0613 24.5747 73.8147C23.611 73.8133 20.9626 73.7296 20.2248 74.0099C20.1218 74.2773 19.9744 74.7034 19.8452 74.942L19.8456 74.3235C20.2733 73.2625 20.4887 72.0563 20.674 70.9331L20.7787 70.4297Z" fill="#875CCE"/>
<path d="M20.7787 70.4297C22.3306 70.5019 27.1077 70.0447 27.4734 72.3052C27.0434 73.8107 25.9218 73.6429 24.5747 73.8147C23.611 73.8133 20.9626 73.7296 20.2248 74.0098C20.1218 74.2773 19.9744 74.7034 19.8452 74.942L19.8456 74.3234C20.2733 73.2624 20.4887 72.0563 20.674 70.9331L20.7787 70.4297Z" fill="#878390"/>
<path d="M63.8678 92.5894C67.1058 92.8404 70.1151 94.5368 73.8027 94.2467C76.3357 94.0473 82.5408 90.615 82.9251 94.7069C83.1986 97.6182 82.0199 99.7536 80.2555 101.915C79.6952 102.469 78.3605 103.855 77.7848 104.24C70.5892 109.036 62.2564 104.619 62.0209 95.8647C61.9869 94.6024 62.9331 93.3789 63.8678 92.5894Z" fill="#01020B"/>
<path d="M70.4245 99.1808C73.6102 98.9746 76.0707 100.428 77.9941 102.844C76.4716 104.65 74.2681 105.503 71.9681 105.734C67.0028 106.186 58.8941 99.9109 70.4245 99.1808Z" fill="#EF365E"/>
<path d="M106.711 101.997C106.808 100.947 107.649 96.3412 108.413 95.8872C109.229 96.9453 111.841 100.32 112.415 101.368C111.957 101.876 111.75 101.79 110.987 101.829C109.562 101.895 108.137 101.951 106.711 101.997Z" fill="#41197B"/>
<path d="M60.9181 91.3303C60.6893 91.4559 60.4976 91.5375 60.2543 91.6273C58.3724 92.3228 56.2904 92.2357 54.4733 91.3853C47.4127 88.1391 47.3463 75.0423 55.1057 72.4034C59.7536 70.8226 63.2497 74.6367 64.5384 78.6942C64.619 79.4954 64.9266 81.8173 64.8207 82.4218C65.2776 86.5598 63.102 90.7692 58.5593 90.9533C59.3486 91.0593 60.1351 91.1851 60.9181 91.3303Z" fill="#01020B"/>
<path d="M60.9181 91.3303C60.6893 91.4559 60.4976 91.5375 60.2543 91.6273C58.3724 92.3228 56.2904 92.2357 54.4733 91.3853C47.4127 88.1391 47.3463 75.0423 55.1057 72.4034C59.7536 70.8226 63.2497 74.6367 64.5384 78.6942C64.4307 79.2755 64.4549 79.4592 63.9583 79.8552C63.3919 80.3072 62.7689 80.8721 62.2003 80.1702C62.4505 79.642 63.1649 78.3016 62.7623 77.7551C60.0497 74.0725 55.6627 77.1492 54.4689 80.6169C53.1191 84.538 53.7512 89.7917 58.5593 90.9533C59.3486 91.0593 60.1351 91.1851 60.9181 91.3303Z" fill="white"/>
<path d="M64.5384 78.6943C64.619 79.4955 64.9265 81.8174 64.8206 82.4219C64.0026 81.7114 63.2085 81.1108 62.2157 80.5864C62.0983 80.5244 62.1704 80.3407 62.2003 80.1702C62.7688 80.8722 63.3918 80.3073 63.9582 79.8553C64.4548 79.4593 64.4306 79.2756 64.5384 78.6943Z" fill="#CABBF2"/>
<path d="M87.8827 90.6288C88.9041 91.0225 89.4143 90.5083 90.1101 91.3461C89.8672 91.8959 88.7025 91.8798 88.1567 91.8839C80.5185 91.9409 78.8791 82.5011 81.5752 76.9913C85.1102 69.7673 91.8251 71.0564 94.6308 77.7534C94.9606 78.5406 95.3367 81.7885 94.9814 82.5166C94.9487 85.8891 93.8474 90.2179 89.7696 90.6075C89.195 90.6624 88.4701 90.631 87.8827 90.6288Z" fill="#01020B"/>
<path d="M87.8827 90.6288C88.9041 91.0225 89.4143 90.5083 90.1101 91.3461C89.8672 91.8959 88.7025 91.8798 88.1567 91.8839C80.5185 91.9409 78.8791 82.5011 81.5752 76.9913C85.1102 69.7673 91.8251 71.0564 94.6308 77.7534C94.9606 78.5406 95.3367 81.7885 94.9814 82.5166C94.8178 82.2521 94.2996 81.5621 94.0433 81.4263C91.8101 80.2432 94.3219 78.255 92.4923 77.2094C84.4158 72.5938 80.7187 87.8993 87.8827 90.6288Z" fill="white"/>
<path d="M55.7069 61.629C56.9922 61.537 58.5728 61.4656 59.3976 62.6586C59.6472 63.0197 59.8503 63.3393 59.7881 63.7966C59.058 65.1596 56.4191 64.3434 54.8319 64.8618C53.4907 65.2999 53.6952 65.2032 52.4471 65.9929C51.7092 66.5291 51.0907 66.8908 50.3068 67.3513C49.109 66.1362 48.4851 65.4447 50.179 64.116C51.792 62.8506 53.7035 62.0324 55.7069 61.629Z" fill="#01020B"/>
<path d="M87.985 61.926C90.2993 61.9201 93.9443 63.4001 94.8065 66.1126C94.9698 66.6262 94.0246 67.8478 93.3172 67.8294L92.9341 67.4018C88.5623 62.7717 88.9681 66.0891 85.809 64.6854C85.3843 64.4967 85.2184 64.2788 85.0635 63.8535C85.2507 62.4316 86.7947 62.0359 87.985 61.926Z" fill="#01020B"/>
<path d="M18.8306 18.9843C20.6443 17.8734 22.5608 17.458 24.569 16.9985C37.1263 14.1251 49.4407 16.6891 57.2415 27.6418C59.0913 30.2388 60.9242 33.2046 62.8487 35.7434L62.8453 36.1805C61.4793 36.5972 59.9392 36.7653 58.5692 37.1665C56.4885 37.7759 54.269 38.6651 52.1879 39.2262C49.9209 39.8375 47.0427 40.3222 44.6935 40.6629C39.3811 40.5212 36.6541 40.2667 31.8964 37.3416C25.0804 33.1512 20.7314 26.6693 18.8306 18.9843Z" fill="#3DA651"/>
<path d="M62.8491 35.7432C64.0248 29.369 65.9932 21.6962 71.5873 17.7961C72.7461 16.9884 75.7954 15.9974 76.4201 17.427C78.4352 22.0392 73.2792 23.7528 71.1267 26.4588C69.2302 28.8431 68.4136 30.5875 67.3652 33.2476C67.0845 34.0405 66.7423 35.269 66.4653 35.9246C65.8283 37.5329 65.7603 39.7895 65.7143 41.5087C64.8423 41.5014 63.9135 41.5092 63.0475 41.4774C63.0289 40.4907 63.0329 36.9032 62.8457 36.1803L62.8491 35.7432Z" fill="#41197B"/>
<path d="M121.782 61.0957C122.148 61.3689 123.906 64.3551 124.57 65.0587C125.391 65.9303 127.417 67.0573 127.778 67.9984C128.353 69.7548 125.614 70.2248 124.768 71.3916C124.101 72.3125 124.003 74.7581 122.945 74.9591C121.497 73.2849 121.631 72.0694 119.477 70.0162C118.542 69.7793 117.668 69.7457 116.777 69.3332C116.731 69.2604 116.644 69.115 116.628 69.0335C116.029 65.8634 117.174 65.7667 119.774 65.0655C120.49 63.7732 121.003 62.3605 121.782 61.0957Z" fill="#CABBF2"/>
<path d="M19.8152 51.0251C19.4836 50.649 19.2554 50.4676 19.244 49.972C19.5194 48.9859 20.7505 47.1156 21.6217 46.6543C23.4531 45.6849 24.0539 48.8871 24.3096 49.9584C23.7591 50.5567 22.233 51.9601 21.5403 52.4138C17.9088 56.4509 16.8519 63.0427 13.7885 66.252C13.2745 65.703 13.1822 65.0646 12.4736 64.7272L12.6481 64.5944C12.6509 64.3044 12.65 64.0103 12.6624 63.7207C12.7604 61.4427 15.7453 53.8989 17.3229 52.2759C18.098 51.4785 19.046 51.7328 19.8152 51.0251Z" fill="#CABBF2"/>
<path d="M100.432 26.1162C100.715 26.3085 100.889 26.6492 101.074 26.9398C102.268 28.8211 103.909 30.2896 105.311 32.0056C104.359 33.3397 101.939 35.777 100.776 36.9882C100.653 37.1371 100.659 37.1014 100.472 37.1988C100.271 36.8645 100.107 36.5197 99.9081 36.1876C98.7378 34.2304 96.9155 33.3311 96.1782 31.1105C97.914 28.8821 99.0254 30.1087 100.432 26.1162Z" fill="#CABBF2"/>
<path d="M12.4738 64.7273C13.1824 65.0647 13.2747 65.7031 13.7887 66.2521C14.3295 67.384 14.9842 68.4578 15.7429 69.4569C17.3116 70.1341 18.9584 70.7873 20.6741 70.9331C20.4887 72.0563 20.2733 73.2625 19.8457 74.3235L19.7824 73.9185C19.1576 73.3504 14.7904 72.1343 13.6229 71.7272C12.8689 72.2562 12.2826 72.5311 11.3508 72.1825C9.56237 71.5135 9.27447 68.8499 9.85192 67.2853C10.332 65.9846 11.2718 65.2953 12.4738 64.7273Z" fill="#A0D191"/>
</g>
<defs>
<clipPath id="clip0_90_1154">
<rect width="145" height="158.594" fill="white"/>
</clipPath>
</defs>
</svg>
