<svg width="224" height="173" viewBox="0 0 224 173" fill="none" xmlns="http://www.w3.org/2000/svg">
<g clip-path="url(#clip0_90_1264)">
<path d="M69.1004 51.5848L70.1369 51.4213C70.6661 52.3297 71.7593 53.6291 72.9046 53.3692C73.7507 52.5552 73.378 48.8947 74.0335 47.3115C74.7721 47.5817 77.627 47.7134 78.6775 47.8322C80.7661 48.0539 82.8394 48.4039 84.8852 48.88C99.0609 52.1427 108.64 61.3671 115.174 74.0834C118.057 79.6951 118.814 83.3634 120.06 89.3669C119.525 90.783 120.328 100.252 119.976 102.414C119.85 103.188 120.074 104.144 119.676 105.084C119.387 105.363 119.45 105.67 119.371 106.074C118.863 108.685 118.073 111.396 117.147 113.888C114.853 119.884 111.3 125.318 106.728 129.825C106.341 130.208 105.25 131.161 105.002 131.465C103.997 132.696 97.241 136.811 97.068 137.569C96.206 138.422 91.9621 139.652 90.6651 140.215C89.5158 140.713 87.6037 140.925 86.4788 141.592C86.3128 141.69 86.3386 143.384 86.3116 143.626C86.1937 143.051 86.1776 142.194 86.1458 141.586C80.166 142.776 72.9592 143.183 66.9442 142.232C66.8516 144.636 66.5742 148.481 66.0652 150.752C69.7671 151.404 72.0996 153.01 71.6601 157.076C71.4343 158.854 69.8354 159.846 68.1817 160.004C65.6764 160.289 62.5596 159.89 60.1163 160.035C53.9552 160.583 53.1008 156.793 54.1843 151.662C55.02 147.704 55.3037 143.299 56.0934 139.366C53.9131 138.149 48.8013 135.053 47.1436 133.447C46.481 134.881 45.69 136.19 45.2672 137.719C46.0918 139.527 47.415 141.424 47.2651 143.476C47.121 145.448 45.4772 146.071 43.8666 145.093C43.3684 144.791 42.683 143.809 42.2985 143.306C41.9474 143.97 41.5936 144.606 41.0793 145.161C39.9881 146.341 38.4747 147.042 36.8691 147.111C35.5695 147.158 34.1894 146.943 33.2068 146.027C32.1678 145.058 32.2536 144.379 32.1952 143.053C26.7472 140.148 32.2307 137.113 32.7549 134.228C33.6718 129.182 34.6055 126.209 36.6636 121.541C28.7894 108.847 28.1429 90.2008 33.3275 76.3853C35.9272 69.4577 43.0215 59.5955 49.3327 55.6248C53.7548 56.8319 64.8084 53.6309 69.1004 51.5848Z" fill="#5F2FAB"/>
<path d="M78.1134 96.6194C79.0996 98.2504 76.2353 101.668 74.6377 102.435C69.7616 104.777 65.2905 102.253 63.0798 97.8055C61.5958 94.8377 61.3522 91.4017 62.4029 88.2542C64.8145 81.1767 73.6617 79.7524 77.1617 86.7677C77.6863 87.819 78.4669 90.8781 77.9825 91.9279C78.2357 93.3939 77.9634 95.8841 78.1134 96.6194Z" fill="#FCFBFD"/>
<path d="M74.0577 100.237C70.6209 99.5272 68.5498 97.2942 68.4378 93.6694C68.3499 90.824 70.6354 86.5385 73.9023 86.6208C76.7494 86.6924 76.9778 89.1367 77.3834 91.3002C77.3834 91.3006 77.9188 91.8615 77.9823 91.928C78.2356 93.394 77.9632 95.8842 78.1133 96.6195C77.0641 98.9709 76.5086 99.5848 74.0577 100.237Z" fill="#020209"/>
<path d="M106.319 93.4125C107.264 94.9192 104.461 97.6764 103.168 98.379C101.494 99.2886 100.233 99.852 98.3215 99.3825C96.3973 98.8987 94.7514 97.6549 93.7607 95.9355C90.9636 91.1348 91.5467 82.8195 96.6804 79.7634C101.533 76.8745 107.73 84.1889 106.317 88.7098C106.979 91.4664 106.328 91.4443 106.319 93.4125Z" fill="#FCFBFD"/>
<path d="M106.319 93.4126C104.728 96.9263 101.095 98.3797 98.7738 94.4702C98.257 93.743 97.3388 90.6694 98.034 89.8387C99.4594 88.2484 97.9395 84.6229 100.053 83.7496C104.125 82.0676 104.982 86.1723 106.317 88.7098C106.979 91.4665 106.328 91.4444 106.319 93.4126Z" fill="#020209"/>
<path d="M79.6388 110.594C78.2935 109.567 77.5866 108.19 77.4246 106.533C77.2436 104.682 76.7174 101.883 79.4262 101.926C82.1708 101.969 84.8077 102.805 87.5456 102.464C89.5641 102.175 91.5324 100.882 93.6433 100.358C97.1251 102.009 96.0459 104.939 94.8246 107.915C94.1485 109.563 92.4492 111.454 90.8985 112.309C89.2541 113.306 87.1614 113.959 85.2331 113.62L86.8181 113.462C83.3272 113.393 82.3289 112.778 79.6388 110.594Z" fill="#020209"/>
<path d="M79.6388 110.594C79.3641 109.904 79.3249 110.085 79.4396 109.429C81.4178 106.511 90.889 106.83 91.5957 110.411C91.5526 111.049 91.1727 111.348 90.7016 111.801L90.8985 112.309C89.2541 113.306 87.1614 113.959 85.233 113.62L86.8181 113.463C83.3272 113.393 82.3289 112.778 79.6388 110.594Z" fill="#E23966"/>
<path d="M90.7017 111.801L90.8986 112.309C89.2542 113.306 87.1615 113.959 85.2332 113.62L86.8182 113.463C88.5739 113.063 89.1964 112.788 90.7017 111.801Z" fill="#11001D"/>
<path d="M98.1206 69.6643C100.209 69.7022 103.829 70.9174 103.462 73.549C103.101 74.1103 103.302 73.9371 102.707 74.2132C101.606 74.2284 101.139 73.6105 100.343 72.8738C97.842 71.3352 95.7935 74.1017 94.4126 72.3838C93.9573 70.3034 96.5876 69.8567 98.1206 69.6643Z" fill="#020209"/>
<path d="M66.5147 72.8464C67.8692 72.7482 70.168 72.5779 70.7622 74.2135C70.2962 75.424 68.6559 74.7974 67.6544 74.5808C65.9682 75.1157 65.4634 75.5734 64.2275 76.7553L62.2578 78.7306C61.9241 78.3265 61.286 77.5912 61.1962 77.0839C60.7748 74.7068 64.8467 73.2392 66.5147 72.8464Z" fill="#020209"/>
<path d="M164.82 33.7057C165.452 33.6441 166.008 33.6231 166.643 33.6035C167.43 33.9706 185.64 34.2533 186.277 33.9684C187.132 34.2496 187.653 34.3491 188.551 34.1572C200.656 33.1237 198.997 35.7829 199.001 46.2484L199.007 58.8919L198.947 102.171L198.925 138.973L198.964 150.895C198.967 153.772 199.023 157.1 198.678 159.939C191.236 160.123 183.735 159.921 176.289 159.941C175.83 159.943 175.367 159.943 174.909 159.9C170.522 159.894 166.133 159.921 161.745 159.983C160.068 159.998 156.515 160.1 154.941 159.948C153.417 159.851 150.821 159.968 149.183 159.98L137.667 160.05C135.811 160.059 132.832 160.159 131.08 159.894C130.038 156.298 130.051 132.051 130.471 127.5C133.167 124.159 134.76 125.11 138.764 124.989C142.54 124.875 146.355 125.091 150.132 125.136C150.66 125.142 150.918 125.252 151.286 124.887C151.118 123.146 151.234 119.944 151.235 118.075C151.237 115.004 151.164 111.538 151.542 108.503C151.587 108.142 152.31 106.865 152.554 106.222C152.666 99.6108 152.696 92.9984 152.645 86.3864C148.295 86.1854 144.494 85.3606 140.863 82.9136C140.48 81.91 139.025 81.1934 138.298 80.2843C138.048 80.065 137.504 79.1887 137.668 78.8266C138.553 76.8726 142.078 74.8121 144.008 73.9701C143.833 74.0465 145.332 75.2061 146.203 75.3168L146.447 75.1161C148.865 75.638 149.975 75.7672 152.445 75.7378C152.53 75.0762 152.53 74.4118 152.553 73.7439C152.834 65.6714 152.629 57.5689 152.64 49.4925C152.645 45.8536 152.339 42.2887 152.653 38.6541C153.236 31.9085 160.41 34.4452 164.694 33.728L164.82 33.7057Z" fill="#79C644"/>
<path d="M152.554 106.222C153.488 106.102 154.544 105.291 155.241 105.227C160.925 104.705 168.805 103.829 174.096 106.186C174.563 106.394 174.87 107.223 174.928 107.698C175.252 123.076 174.963 138.494 175.056 153.882C175.061 154.868 175.144 159.229 174.909 159.901C170.522 159.894 166.133 159.921 161.745 159.983C160.068 159.998 156.515 160.1 154.941 159.948C153.417 159.851 150.821 159.968 149.183 159.98L137.667 160.05C135.811 160.059 132.832 160.159 131.08 159.894C130.038 156.298 130.051 132.051 130.471 127.5C133.167 124.159 134.76 125.11 138.764 124.989C142.54 124.875 146.355 125.092 150.132 125.136C150.66 125.142 150.918 125.252 151.286 124.887C151.118 123.147 151.234 119.944 151.235 118.075C151.237 115.004 151.164 111.538 151.542 108.503C151.587 108.142 152.31 106.865 152.554 106.222Z" fill="#3BA458"/>
<path d="M151.286 124.887C151.502 125.349 152.825 125.921 153.483 126.363L153.53 144.857C153.526 147.562 153.219 157.547 153.877 159.633C154.276 159.896 154.47 159.884 154.941 159.948C153.417 159.851 150.821 159.968 149.183 159.98L137.667 160.05C135.811 160.059 132.832 160.159 131.08 159.894C130.038 156.298 130.051 132.051 130.471 127.5C133.167 124.159 134.76 125.11 138.764 124.989C142.54 124.875 146.355 125.091 150.132 125.136C150.66 125.142 150.918 125.252 151.286 124.887Z" fill="#79C644"/>
<path d="M138.317 129.641C140.263 130.039 140.788 132.288 143.801 130.957C144.113 130.819 144.435 130.964 144.701 131.161C144.698 131.794 144.594 131.75 144.225 132.379C141.79 134.537 137.591 132.555 138.317 129.641Z" fill="#9CCF7A"/>
<path d="M181.304 54.5709C181.907 52.4521 182.088 52.3881 184.335 51.9595C186.07 52.516 187.065 52.7863 187.921 54.4884C187.409 55.0564 186.668 55.7393 186.519 56.4703C189.822 59.2441 190.836 63.2457 186.038 64.9835C185.436 65.0799 183.939 65.0392 183.341 64.9777C182.578 64.8672 181.344 64.7611 180.736 64.3202C178.018 62.3518 180.079 58.4191 181.424 56.3701C181.192 55.5754 181.091 55.3538 181.304 54.5709Z" fill="#FCFBFD"/>
<path d="M181.304 54.5709C181.907 52.4521 182.088 52.3881 184.335 51.9595C186.07 52.516 187.065 52.7863 187.921 54.4884C187.409 55.0564 186.668 55.7393 186.519 56.4703C185.581 55.9564 182.321 55.715 181.424 56.3701C181.192 55.5754 181.091 55.3538 181.304 54.5709Z" fill="#3BA458"/>
<path d="M181.304 54.5709C181.907 52.4521 182.088 52.3881 184.335 51.9595C186.07 52.516 187.065 52.7863 187.921 54.4884C184.877 54.003 184.478 53.5322 181.304 54.5709Z" fill="#3C7641"/>
<path d="M183.341 64.9779L183.895 64.7695C184.193 63.677 183.792 62.1188 184.11 61.419L184.405 61.3325C185.444 62.3927 183.897 64.7608 186.037 64.9836C185.436 65.0801 183.939 65.0393 183.341 64.9779Z" fill="#9CCF7A"/>
<path d="M161.063 55.8764C166.896 53.373 169.95 61.0223 165.662 65.0693C163.265 65.2686 161.14 65.2923 159.035 63.9177C157.424 61.0098 158.346 58.1204 160.869 56.0888L161.063 55.8764Z" fill="#FCFBFD"/>
<path d="M166.411 69.72C166.797 69.7195 168.645 70.1856 169.092 70.3216C172.042 71.22 174.87 70.6894 177.766 70.8847L178.014 71.2638C177.825 71.8007 177.687 71.7561 177.132 72.1627C173.845 74.4121 169.645 74.2159 166.937 70.923C166.718 70.6573 166.524 70.0601 166.411 69.72Z" fill="#3BA458"/>
<path d="M160.869 56.0887C160.407 56.0194 160.232 56.0175 159.834 55.7597C158.084 52.9409 166.488 49.5135 166.41 52.7429C166.371 54.4235 160.959 52.7588 161.063 55.8763L160.869 56.0887Z" fill="#3BA458"/>
<path d="M185.612 66.3958C187.129 66.3027 188.805 66.3659 189.437 68.2959C189.634 68.9034 189.53 69.7573 189.182 70.3168C185.843 71.1484 184.946 69.467 185.612 66.3958Z" fill="#FBB92B"/>
<path d="M160.675 65.6101C163.604 65.9738 165.293 66.5334 163.071 69.5151C162.441 70.1253 161.899 70.6717 161.119 70.0341C160.54 68.8577 160.674 66.9747 160.675 65.6101Z" fill="#D3C931"/>
<path d="M186.144 34.2041C187.142 34.7922 187.534 34.4006 188.073 34.9395C188.051 35.5518 188.112 35.3092 187.754 35.8827C187.348 36.3631 187.151 36.6824 186.541 36.5325C186.183 36.004 186.193 34.8882 186.144 34.2041Z" fill="#3C7641"/>
<path d="M27.2256 36.9598L27.3076 36.9347C29.8355 36.1407 32.4722 34.6476 35.0154 33.9654C46.4264 30.9042 58.2112 34.0514 65.2096 43.9467C65.8692 44.8791 67.4116 46.7914 68.2472 47.5776C68.3032 48.1698 68.5032 48.4191 68.8129 48.9256C69.2922 49.3521 69.9909 49.8726 70.1857 50.4504C70.0218 51.1883 69.7463 51.2377 69.1006 51.5847C64.8085 53.6308 53.7549 56.8318 49.3328 55.6247C48.9469 55.4613 46.1181 55.0523 45.3085 54.8203C41.0286 53.5939 36.413 51.8776 33.3127 48.3931C31.503 46.3589 27.1766 40.5375 26.6267 37.6269C26.5821 37.3909 26.9835 37.1561 27.2256 36.9598Z" fill="#3BA458"/>
<path d="M27.2256 36.9598L27.3075 36.9347C29.8355 36.1407 32.4722 34.6476 35.0153 33.9654C46.4264 30.9042 58.2112 34.0514 65.2096 43.9467C65.8691 44.8791 67.4116 46.7914 68.2472 47.5776C68.3031 48.1698 68.5032 48.4191 68.8128 48.9256C68.667 49.0268 68.1256 49.3796 67.9602 49.3723C65.8167 49.1581 63.5988 47.3925 61.6291 46.5285C54.293 43.3057 47.0682 40.8286 39.1866 39.3383C36.3654 38.805 29.4339 38.2436 27.2256 36.9598Z" fill="#79C644"/>
<path d="M127.997 69.1046C128.957 68.4226 130.188 68.317 131.353 68.1218C131.809 68.9045 133.44 71.1042 134.155 71.5975C136.583 71.9505 136.78 72.2632 136.425 74.8377C136.133 76.9658 138.013 78.5331 137.615 80.5074C136.735 81.8039 136.384 83.8731 136.155 85.4016C135.104 92.4293 132.584 97.2901 126.717 101.44C125.375 102.389 121.266 104.737 119.676 105.084C120.074 104.144 119.85 103.187 119.976 102.414C120.328 100.252 119.525 90.7828 120.06 89.3667C122.894 86.5764 124.901 83.7807 125.502 79.7769C124.961 78.5405 124.556 77.5015 124.099 76.2309C125.09 74.1388 124.791 72.8116 125.618 70.7945C125.846 70.238 126.855 70.2504 127.454 70.1561C127.957 69.729 127.809 69.8474 127.997 69.1046Z" fill="#4A268B"/>
<path d="M97.068 137.569C97.3557 140.221 97.553 146.734 97.1617 149.322C99.3415 149.768 101.801 150.864 103.042 152.794C103.693 153.808 103.893 154.984 103.632 156.157C103.425 157.088 102.922 158.028 102.085 158.531C100.683 159.373 90.9731 159.017 89.1108 158.551C88.1679 158.316 87.3129 157.535 86.8488 156.695C85.8068 154.808 86.3325 146.171 86.3116 143.626C86.3386 143.384 86.3128 141.69 86.4788 141.592C87.6037 140.925 89.5158 140.713 90.6651 140.214C91.9621 139.652 96.206 138.422 97.068 137.569Z" fill="#4A268B"/>
<path d="M130.366 56.9078C131.083 56.8213 133.147 56.4422 133.623 56.896C134.319 57.5586 135.16 60.8747 136.561 60.753C136.986 60.7162 138.251 60.3371 138.621 60.7625C140.84 63.3154 141.583 67.2355 142.512 70.3229C142.869 71.5105 144.102 73.4702 144.668 74.3643C145.056 74.5273 146.128 74.9431 146.447 75.1163L146.203 75.317C145.332 75.2063 143.833 74.0467 144.008 73.9703C142.078 74.8123 138.553 76.8728 137.668 78.8268C137.504 79.1889 138.048 80.0652 138.298 80.2845C139.025 81.1936 140.48 81.9102 140.863 82.9138C140.18 82.5495 138.503 81.1142 137.615 80.5076C138.013 78.5334 136.133 76.966 136.425 74.838C136.78 72.2635 136.583 71.9507 134.155 71.5978C133.44 71.1045 131.809 68.9048 131.353 68.1221C130.188 68.3172 128.957 68.4228 127.997 69.1049C127.44 67.6017 127.623 64.6947 127.732 63.0635C127.889 60.7203 129.086 58.7985 130.366 56.9078Z" fill="#D3C931"/>
<path d="M68.2471 47.5778C68.7343 47.6704 70.0475 47.8989 70.1906 47.5744C70.7796 46.2394 70.9602 42.4013 71.3413 40.898C72.3725 36.8004 74.5224 32.0792 77.8648 29.3683C79.0721 28.3891 81.8387 28.6973 82.5718 30.2504C84.0303 33.3396 80.4507 34.9143 78.8467 36.8274C76.3838 39.7651 75.149 43.7133 74.0334 47.3115C73.3779 48.8947 73.7506 52.5552 72.9046 53.3692C71.7593 53.6291 70.666 52.3297 70.1369 51.4213L69.1004 51.5848C69.7461 51.2378 70.0217 51.1885 70.1855 50.4505C69.9908 49.8727 69.292 49.3522 68.8127 48.9258C68.503 48.4193 68.303 48.1699 68.2471 47.5778Z" fill="#4A268B"/>
<path d="M119.469 36.9656C119.629 36.9664 120.357 36.972 120.441 37.0762C122.561 39.6969 123.646 43.7175 125.158 46.7519C126.041 48.5252 125.807 49.2896 124.011 50.0027L123.705 49.8401C122.764 48.8713 121.791 47.067 120.946 45.942C119.733 44.3155 118.573 42.7153 117.461 41.0218C116.337 39.3083 118.167 37.9605 119.469 36.9656Z" fill="#FBB92B"/>
<path d="M190.922 12.5093C191.542 12.5568 192.63 12.8702 193.355 12.9733C195 13.2074 196.341 13.0642 197.972 12.9105C198.377 14.4813 198.72 16.2102 199.068 17.8047C198.293 18.9359 198.093 19.1762 196.811 19.6333C195.353 19.1689 193.885 18.0915 192.549 17.2596C191.329 17.5813 190.286 18.1534 189.247 17.3781C188.357 15.8201 189.54 13.5067 190.922 12.5093Z" fill="#3BA458"/>
<path d="M134.289 36.9987C135.114 36.072 135.787 35.2078 137.148 35.1017C137.941 34.9436 139.726 35.6582 139.482 36.7028C139.197 37.9201 138.436 38.9936 137.844 40.3015C136.852 42.4963 136.511 45.5502 135.036 47.4511C134.846 47.6959 134.263 47.9086 133.959 47.8478C132.678 47.4604 132.533 47.4665 132.348 46.2283C132.42 46.1442 132.474 46.0781 132.541 45.9881L132.624 45.8744C133.346 44.8982 133.729 41.4678 133.847 40.1775C133.943 38.9292 134.044 38.2266 134.289 36.9987Z" fill="#FBB92B"/>
<path d="M14.3544 57.7488C14.6484 58.003 15.232 58.8103 15.6569 59.1946C16.6899 60.1291 18.3821 60.9435 18.9827 62.1839C19.0106 62.8776 18.9255 63.0837 18.3754 63.551C16.6319 65.0318 15.9174 66.2488 15.1147 68.3655L15.051 68.4347C14.1715 68.6395 13.1376 65.4836 12.2545 64.7683C11.6325 64.2647 11.3835 64.1604 10.6789 63.8026L10.6147 61.5291C12.3337 60.1024 12.9887 59.5122 14.3544 57.7488Z" fill="#EBE8F8"/>
<path d="M186.277 33.9685C184.779 30.8621 183.986 26.8309 186.98 24.3097C189.401 22.2692 192.888 23.6958 192.128 26.9691C191.83 28.245 188.751 27.333 187.803 27.306C187.928 29.6477 188.44 31.8239 188.551 34.1572C187.652 34.3491 187.132 34.2496 186.277 33.9685Z" fill="#4A268B"/>
<path d="M164.82 33.7057C163.761 31.3376 166.599 30.0272 165.802 28.2455C164.846 27.3701 162.38 28.6714 161.239 28.3116C159.187 25.8215 168.589 21.74 168.375 27.9774C168.294 30.3445 168.356 31.6271 166.643 33.6035C166.008 33.6231 165.452 33.644 164.82 33.7057Z" fill="#4A268B"/>
<path d="M114.15 51.655C115.417 51.7596 121.247 54.3112 121.683 55.6117C120.995 56.7558 121.099 57.5473 120.246 58.1265C118.209 57.4548 113.348 55.25 111.909 53.7035C112.737 52.64 112.962 52.3068 114.15 51.655Z" fill="#FBB92B"/>
<path d="M132.348 46.2284C131.747 41.4878 130.09 39.573 129.564 35.1622C129.538 34.6704 129.367 32.9627 129.888 32.7103C133.776 30.8275 131.819 39.6341 133.224 40.98L133.559 40.8499L133.847 40.1776C133.729 41.4679 133.346 44.8983 132.624 45.8745L132.541 45.9882C132.474 46.0782 132.42 46.1443 132.348 46.2284Z" fill="#FEEA9A"/>
<path d="M144.711 45.9983C145.883 46.4144 146.947 48.0141 147.628 48.9999C146.319 50.8888 145.088 52.0384 143.38 53.577C142.767 53.9816 142.656 54.086 142.019 53.9953C139.197 51.8619 143.398 48.3318 144.711 45.9983Z" fill="#FBB92B"/>
</g>
<defs>
<clipPath id="clip0_90_1264">
<rect width="223.684" height="173" fill="white"/>
</clipPath>
</defs>
</svg>
